<svg xmlns="http://www.w3.org/2000/svg" width="10" height="13" viewBox="0 0 10 13">
    <g fill="none" fill-rule="evenodd">
        <path d="M-7-6h24v24H-7z" opacity=".05"/>
        <g stroke="#80959D">
            <path d="M4.963 6.055c-.77 0-1.401-.63-1.401-1.402 0-.77.63-1.4 1.401-1.4.77 0 1.401.63 1.401 1.4 0 .771-.63 1.402-1.4 1.402z"/>
            <path d="M4.963.8A3.865 3.865 0 0 0 1.11 4.653c0 2.838 3.573 7.112 3.713 7.287l.14.157.14-.157c.14-.175 3.714-4.45 3.714-7.287A3.865 3.865 0 0 0 4.963.8z"/>
        </g>
    </g>
</svg>
