<?xml version="1.0" encoding="UTF-8"?>
<svg width="87px" height="87px" viewBox="0 0 87 87" version="1.1" xmlns="http://www.w3.org/2000/svg" xmlns:xlink="http://www.w3.org/1999/xlink">
    <!-- Generator: Sketch 46.2 (44496) - http://www.bohemiancoding.com/sketch -->
    <title>placeholder_geniric</title>
    <desc>Created with Sketch.</desc>
    <defs></defs>
    <g id="Page-1" stroke="none" stroke-width="1" fill="none" fill-rule="evenodd">
        <g id="placeholder_geniric" fill="#EAEAEA">
            <g id="Group-19-Copy" transform="translate(2.000000, 10.000000)">
                <g id="Group-18" transform="translate(0.000000, 29.000000)">
                    <path d="M4,33 L49,33 L49,4 L4,4 L4,33 Z M0,0 L53,0 L53,37 L0,37 L0,0 Z" id="Rectangle-13-Copy-4" fill-rule="nonzero"></path>
                    <polygon id="Path-18-Copy" points="9 27 15.0010941 10 25.7773523 22.1753609 32 19.1828495 32 27"></polygon>
                    <circle id="Oval-9-Copy" cx="41" cy="14" r="4"></circle>
                </g>
                <polygon id="Path-18" fill-rule="nonzero" points="34.4493676 6.90908193 77.1698929 31.0948432 61.2442191 58.1291196 55.3671998 54.9762134 55.7477501 60.3362417 63.3641812 64.3911772 84.0592295 29.2494862 32.5955467 0.113881444 17.5008772 26.7667737 23.663614 25.61717"></polygon>
                <circle id="Oval-9-Copy-4" cx="62" cy="37" r="4"></circle>
                <polygon id="Path-20-Copy" points="33 25 43 25 41.1833819 17"></polygon>
            </g>
        </g>
    </g>
</svg>