<?xml version="1.0" encoding="UTF-8"?>
<svg width="300px" height="300px" viewBox="0 0 300 300" version="1.1" xmlns="http://www.w3.org/2000/svg" xmlns:xlink="http://www.w3.org/1999/xlink">
    <!-- Generator: Sketch 48.2 (47327) - http://www.bohemiancoding.com/sketch -->
    <title>attendance data</title>
    <desc>Created with Sketch.</desc>
    <defs>
        <linearGradient x1="169.961462%" y1="-324.053889%" x2="38.5316377%" y2="125.542689%" id="linearGradient-1">
            <stop stop-color="#44C0FF" offset="0%"></stop>
            <stop stop-color="#B9F9F0" stop-opacity="0" offset="100%"></stop>
        </linearGradient>
    </defs>
    <g id="resized-illustrations_version-2" stroke="none" stroke-width="1" fill="none" fill-rule="evenodd">
        <g id="attendance-data">
            <g id="error-msg">
                <rect id="Rectangle-4" x="0" y="0" width="300" height="300"></rect>
                <path d="M265.254584,151.741573 C264.589504,212.19705 215.411011,261 154.842324,261 C93.8595457,261 44.4232365,211.527465 44.4232365,150.5 C44.4232365,145.447329 44.7621099,140.473863 45.4183532,135.601124 L10.9325843,135.601124 C5.44696945,135.601124 1,131.154154 1,125.668539 C1,120.182925 5.44696945,115.735955 10.9325843,115.735955 L49.9985591,115.735955 L89.0798639,115.735955 C94.5654787,115.735955 99.0124481,111.288986 99.0124481,105.803371 C99.0124481,101.536153 96.3215139,97.8974372 92.543996,96.491573 C91.4654202,96.8929824 90.2982612,97.1123596 89.0798639,97.1123596 L43.1898457,97.1123596 C37.7042309,97.1123596 33.2572614,92.6653901 33.2572614,87.1797753 C33.2572614,81.6941605 37.7042309,77.247191 43.1898457,77.247191 L72.1710885,77.247191 C92.4001989,54.4006708 121.940764,40 154.842324,40 C202.299058,40 242.763324,69.9602512 258.37869,112.011236 L290.067416,112.011236 C295.553031,112.011236 300,116.458205 300,121.94382 C300,127.429435 295.553031,131.876404 290.067416,131.876404 L263.699818,131.876404 L241.69607,131.876404 C236.210455,131.876404 231.763485,136.323374 231.763485,141.808989 C231.763485,147.294604 236.210455,151.741573 241.69607,151.741573 L265.254584,151.741573 Z" id="Combined-Shape" fill="url(#linearGradient-1)"></path>
            </g>
            <g id="Group-3" transform="translate(111.000000, 106.000000)">
                <g id="Group-2">
                    <path d="M0,0 L92.1913043,0 L92.1913043,119.026549 C92.1913043,121.235688 90.4004433,123.026549 88.1913043,123.026549 L0,123.026549 L0,0 Z" id="Rectangle" stroke="#80959D" fill="#FFFFFF"></path>
                    <ellipse id="Oval-9" fill="#EB8181" cx="16.3565217" cy="31.3185841" rx="4.46086957" ry="4.46017699"></ellipse>
                    <ellipse id="Oval-9-Copy" fill="#EB8181" cx="16.3565217" cy="54.1150442" rx="4.46086957" ry="4.46017699"></ellipse>
                    <ellipse id="Oval-9-Copy-2" fill="#EB8181" cx="16.3565217" cy="76.9115044" rx="4.46086957" ry="4.46017699"></ellipse>
                    <ellipse id="Oval-9-Copy-3" fill="#EB8181" cx="16.3565217" cy="99.7079646" rx="4.46086957" ry="4.46017699"></ellipse>
                    <path d="M28.0548913,29 L59.7718786,29" id="Line" stroke="#80959D" stroke-width="2" stroke-linecap="square"></path>
                    <path d="M28.0548913,51 L59.7718786,51" id="Line-Copy" stroke="#80959D" stroke-width="2" stroke-linecap="square"></path>
                    <path d="M28.0548913,74 L59.7718786,74" id="Line-Copy-2" stroke="#80959D" stroke-width="2" stroke-linecap="square"></path>
                    <path d="M28.0548913,97 L59.7718786,97" id="Line-Copy-3" stroke="#80959D" stroke-width="2" stroke-linecap="square"></path>
                    <path d="M26.8673913,35.4778761 L39.0108696,35.4778761" id="Line-2" stroke="#80959D" stroke-linecap="square"></path>
                    <path d="M26.8673913,57.4778761 L39.0108696,57.4778761" id="Line-2-Copy" stroke="#80959D" stroke-linecap="square"></path>
                    <path d="M26.8673913,80.4778761 L39.0108696,80.4778761" id="Line-2-Copy-2" stroke="#80959D" stroke-linecap="square"></path>
                    <path d="M26.8673913,103.477876 L39.0108696,103.477876" id="Line-2-Copy-3" stroke="#80959D" stroke-linecap="square"></path>
                    <circle id="-g-Oval-10" fill="#87D5FA" cx="90" cy="106" r="20"></circle>
                    <g id="Group" transform="translate(78.000000, 91.000000)" fill="#FFFFFF">
                        <path d="M17.2467532,14.2413793 C15.6883117,14.9548842 13.9220779,15.3909149 12,15.3909149 C10.0779221,15.3909149 8.25974026,14.9548842 6.75324675,14.2413793 C2.85714286,14.9945233 0,17.6503471 0,20.8214798 L0,25 L24,25 L24,20.8214798 C24,17.6107079 21.0909091,14.9945233 17.2467532,14.2413793 Z" id="Shape"></path>
                        <path d="M11.5714286,13.7068966 C15.3063845,13.7068966 18.3035714,10.7685404 18.3035714,7.20689655 C18.3035714,3.64525272 15.260274,0.706896552 11.5714286,0.706896552 C7.88258317,0.706896552 4.83928571,3.68977326 4.83928571,7.2514171 C4.83928571,10.8130609 7.8364726,13.7068966 11.5714286,13.7068966 Z" id="Shape"></path>
                    </g>
                </g>
            </g>
            <g id="Group-45" transform="translate(133.000000, 91.000000)" fill="#87D5FA">
                <rect id="Rectangle-58" x="0" y="10" width="49" height="15"></rect>
                <path d="M24.5,20 C19.0876095,20 14.7,15.5228475 14.7,10 C14.7,4.4771525 19.0876095,0 24.5,0 C29.9123905,0 34.3,4.4771525 34.3,10 C34.3,15.5228475 29.9123905,20 24.5,20 Z M24.5,10 C25.8530976,10 26.95,8.88071187 26.95,7.5 C26.95,6.11928813 25.8530976,5 24.5,5 C23.1469024,5 22.05,6.11928813 22.05,7.5 C22.05,8.88071187 23.1469024,10 24.5,10 Z" id="Combined-Shape"></path>
            </g>
        </g>
    </g>
</svg>