<svg xmlns="http://www.w3.org/2000/svg" xmlns:xlink="http://www.w3.org/1999/xlink" width="43" height="43" viewBox="0 0 43 43">
    <defs>
        <circle id="a" cx="20.5" cy="20.5" r="20.5"/>
    </defs>
    <g fill="none" fill-rule="evenodd" transform="translate(1 1)">
        <mask id="b" fill="#fff">
            <use xlink:href="#a"/>
        </mask>
        <use fill="#AEB9BD" stroke="#AEB9BD" xlink:href="#a"/>
        <g fill="#FFF" fill-rule="nonzero" mask="url(#b)">
            <path d="M20.5 27c4.692 0 8.5-3.808 8.5-8.5S25.192 10 20.5 10a8.503 8.503 0 0 0-8.5 8.5c0 4.692 3.808 8.5 8.5 8.5zM35.945 34.56c-.237-.569-.553-1.139-.87-1.668-1.738-2.644-4.465-4.434-7.507-4.882-.395-.04-.79.04-1.107.285a9.097 9.097 0 0 1-5.453 1.83 9.097 9.097 0 0 1-5.453-1.83c-.316-.244-.711-.326-1.106-.285-3.043.448-5.77 2.197-7.508 4.882a9.54 9.54 0 0 0-.87 1.669.795.795 0 0 0 .04.732c.316.529.672 1.099 1.027 1.587a14.122 14.122 0 0 0 1.74 2.034c.552.57 1.145 1.058 1.777 1.546A16.829 16.829 0 0 0 21.008 44c3.754 0 7.35-1.22 10.353-3.54a22.43 22.43 0 0 0 1.778-1.546 14.122 14.122 0 0 0 1.739-2.034 15.4 15.4 0 0 0 1.027-1.587.946.946 0 0 0 .04-.732z"/>
        </g>
    </g>
</svg>
