<?xml version="1.0" encoding="UTF-8"?>
<svg width="40px" height="24px" viewBox="0 0 40 24" version="1.1" xmlns="http://www.w3.org/2000/svg" xmlns:xlink="http://www.w3.org/1999/xlink">
    <!-- Generator: Sketch 48.2 (47327) - http://www.bohemiancoding.com/sketch -->
    <title>mastercard</title>
    <desc>Created with Sketch.</desc>
    <defs>
        <rect id="path-1" x="0" y="0" width="40" height="24" rx="2"></rect>
    </defs>
    <g id="Page-1" stroke="none" stroke-width="1" fill="none" fill-rule="evenodd">
        <g id="mastercard">
            <g id="Group-21" fill="#FFFFFF" fill-rule="nonzero">
                <g id="Group-23">
                    <g id="Group-22">
                        <g id="Mask">
                            <rect id="path-1" x="0" y="0" width="40" height="24" rx="2"></rect>
                        </g>
                    </g>
                </g>
            </g>
            <rect id="Rectangle-path" stroke="#EAEAEA" x="0.5" y="0.5" width="39" height="23" rx="2"></rect>
            <g id="Group-5-Clipped">
                <mask id="mask-2" fill="white">
                    <use xlink:href="#path-1"></use>
                </mask>
                <g id="path-3"></g>
                <g id="Group-5" mask="url(#mask-2)">
                    <g transform="translate(9.000000, 4.000000)" id="Group">
                        <g>
                            <path d="M4.35950697,17.2851281 L4.35950697,16.1890451 C4.37684891,16.0034941 4.310208,15.8198199 4.17710954,15.6863254 C4.04401107,15.5528308 3.85777604,15.4828766 3.66738074,15.4948592 C3.41488057,15.4850533 3.17484015,15.6022629 3.03137286,15.8054161 C2.9065105,15.601235 2.67592265,15.4816039 2.4327772,15.4948592 C2.21945491,15.4857755 2.01570013,15.5818364 1.89029989,15.7506119 L1.89029989,15.5313953 L1.53488372,15.5313953 L1.53488372,17.2851281 L1.89029989,17.2851281 L1.89029989,16.2803853 C1.87533501,16.1586154 1.91708629,16.0367106 2.00405778,15.9482369 C2.09102927,15.8597632 2.21404988,15.81405 2.33924663,15.8236841 C2.60113223,15.8236841 2.75078115,15.9880966 2.75078115,16.2803853 L2.75078115,17.2851281 L3.10619732,17.2851281 L3.10619732,16.2803853 C3.09123243,16.1586154 3.13298372,16.0367106 3.21995521,15.9482369 C3.3069267,15.8597632 3.4299473,15.81405 3.55514406,15.8236841 C3.81702966,15.8236841 3.96667857,15.9880966 3.96667857,16.2803853 L3.96667857,17.2851281 L4.35950697,17.2851281 Z M10.1958146,15.5496634 L9.54110061,15.5496634 L9.54110061,15.0198899 L9.18568444,15.0198899 L9.18568444,15.5496634 L8.81156215,15.5496634 L8.81156215,15.8602202 L9.18568444,15.8602202 L9.18568444,16.6822824 C9.18568444,17.0841795 9.33533335,17.3216642 9.78428009,17.3216642 C9.95464719,17.3183754 10.1216101,17.2744765 10.2706391,17.1937878 L10.1584024,16.883231 C10.057561,16.9448112 9.9406087,16.9765372 9.82169232,16.9745712 C9.74205134,16.9809845 9.66377005,16.9515364 9.60911544,16.8946034 C9.55446083,16.8376704 9.52941441,16.7594833 9.54110061,16.6822824 L9.54110061,15.8419522 L10.1958146,15.8419522 L10.1958146,15.5496634 Z M13.5255029,15.4948592 C13.3286692,15.4908933 13.1441024,15.5879481 13.039144,15.7506119 L13.039144,15.5313953 L12.6837278,15.5313953 L12.6837278,17.2851281 L13.039144,17.2851281 L13.039144,16.2986534 C13.039144,16.0063646 13.1887929,15.8236841 13.4319724,15.8236841 C13.5141809,15.8268966 13.5957562,15.8391527 13.6751518,15.8602202 L13.7873885,15.5313953 C13.7016441,15.510295 13.6138673,15.4980491 13.5255029,15.4948592 Z M8.49355821,15.6775397 C8.27456205,15.5467578 8.0204353,15.4831231 7.76401976,15.4948592 C7.31507301,15.4948592 7.0344813,15.6958078 7.0344813,16.0429007 C7.0344813,16.3351895 7.24024856,16.4996019 7.63307696,16.5544061 L7.8201381,16.5726741 C8.02590535,16.6092102 8.15684815,16.6822824 8.15684815,16.7736227 C8.15684815,16.901499 8.00719924,16.9928393 7.72660753,16.9928393 C7.51203286,16.9972035 7.30186146,16.933063 7.12801187,16.8101588 L6.94095073,17.0841795 C7.16820401,17.2309227 7.43549258,17.3073214 7.70790141,17.3033961 C8.23167261,17.3033961 8.51226432,17.0659115 8.51226432,16.7370866 C8.51226432,16.4082617 8.28779095,16.2803853 7.89496256,16.2255812 L7.70790141,16.2073132 C7.53954639,16.1890451 7.38989747,16.134241 7.38989747,16.0246327 C7.38989747,15.9150244 7.53954639,15.8054161 7.74531364,15.8054161 C7.94102295,15.8137523 8.13252372,15.8636232 8.30649707,15.9515605 L8.49355821,15.6775397 Z M13.9370374,16.4082617 C13.9215572,16.6548357 14.0151161,16.896051 14.1939864,17.0707325 C14.3728568,17.245414 14.6198564,17.3367819 14.8723432,17.3216642 C15.1024548,17.3334796 15.3289339,17.2619228 15.508351,17.1207156 L15.3212899,16.8466949 C15.1891427,16.951937 15.0241508,17.0099431 14.853637,17.0111073 C14.5413513,16.9869783 14.3005309,16.7324553 14.3005309,16.4265297 C14.3005309,16.1206041 14.5413513,15.8660812 14.853637,15.8419522 C15.0241508,15.8431164 15.1891427,15.9011225 15.3212899,16.0063646 L15.508351,15.7323439 C15.3289339,15.5911367 15.1024548,15.5195799 14.8723432,15.5313953 C14.6229631,15.5021665 14.3733072,15.5837135 14.1921166,15.7535831 C14.010926,15.9234526 13.9173071,16.163732 13.9370374,16.4082617 Z M11.411712,15.4948592 C10.8879408,15.4948592 10.5325247,15.8602202 10.5325247,16.4082617 C10.5163237,16.6518043 10.6070177,16.890572 10.7819357,17.0648799 C10.9568538,17.2391878 11.1994652,17.3325629 11.4491243,17.3216642 C11.7130688,17.3270188 11.9707969,17.2431213 12.1786627,17.0841795 L11.9916016,16.8284268 C11.8413358,16.9421473 11.657867,17.0061374 11.4678304,17.0111073 C11.1923486,17.021352 10.9555667,16.8220098 10.9253531,16.5544061 L12.2534872,16.5544061 L12.2534872,16.4082617 C12.2534872,15.8602202 11.9167771,15.4948592 11.411712,15.4948592 Z M11.411712,15.8236841 C11.5341329,15.8181741 11.6535028,15.8619824 11.7419094,15.9448652 C11.8303159,16.027748 11.8800076,16.1424381 11.879371,16.2621173 L10.9066469,16.2621173 C10.9236942,16.0055806 11.1488366,15.8101406 11.411712,15.8236841 Z M6.56682845,16.4082617 L6.56682845,15.5313953 L6.21141228,15.5313953 L6.21141228,15.7506119 C6.07247743,15.5780004 5.85598664,15.48252 5.63152273,15.4948592 C5.11496765,15.4948592 4.69621702,15.9038034 4.69621702,16.4082617 C4.69621702,16.91272 5.11496765,17.3216642 5.63152273,17.3216642 C5.85598664,17.3340034 6.07247743,17.238523 6.21141228,17.0659115 L6.21141228,17.2851281 L6.56682845,17.2851281 L6.56682845,16.4082617 Z M5.10775154,16.4082617 C5.12807952,16.1111561 5.38760642,15.8842623 5.69222332,15.8972818 C5.99684023,15.9103012 6.23507727,16.1584697 6.22874895,16.4561736 C6.22242063,16.7538776 5.9738427,16.9921768 5.66893496,16.9928393 C5.51230505,16.9965654 5.36148331,16.934874 5.2543259,16.8232495 C5.14716848,16.7116249 5.09384934,16.5606655 5.10775154,16.4082617 Z M18.9315699,15.4948592 C18.7347363,15.4908933 18.5501694,15.5879481 18.445211,15.7506119 L18.445211,15.5313953 L18.0897948,15.5313953 L18.0897948,17.2851281 L18.445211,17.2851281 L18.445211,16.2986534 C18.445211,16.0063646 18.5948599,15.8236841 18.8380394,15.8236841 C18.9202479,15.8268966 19.0018232,15.8391527 19.0812189,15.8602202 L19.1934555,15.5313953 C19.1077112,15.510295 19.0199343,15.4980491 18.9315699,15.4948592 Z M21.8123115,17.0293754 C21.8386796,17.0266418 21.8651873,17.0331135 21.887136,17.0476434 C21.9058421,17.0476434 21.9245482,17.0659115 21.9432543,17.0841795 C21.9619604,17.1024476 21.9806666,17.1207156 21.9806666,17.1389837 C21.9806666,17.1572517 21.9993727,17.1755198 21.9993727,17.2120559 C22.0021718,17.2378065 21.9955449,17.2636933 21.9806666,17.2851281 C21.9619604,17.3033961 21.9619604,17.3216642 21.9432543,17.3399322 C21.9245482,17.3582003 21.9058421,17.3764683 21.887136,17.3764683 C21.8684299,17.3764683 21.8497238,17.3947364 21.8123115,17.3947364 C21.7859434,17.39747 21.7594358,17.3909983 21.7374871,17.3764683 C21.718781,17.3582003 21.7000748,17.3582003 21.6813687,17.3399322 C21.6626626,17.3216642 21.6439565,17.3033961 21.6439565,17.2851281 C21.6439565,17.26686 21.6252504,17.248592 21.6252504,17.2120559 C21.6224512,17.1863053 21.6290781,17.1604184 21.6439565,17.1389837 C21.6626626,17.1207156 21.6626626,17.1024476 21.6813687,17.0841795 C21.7000748,17.0659115 21.718781,17.0476434 21.7374871,17.0476434 C21.7561932,17.0476434 21.7936054,17.0293754 21.8123115,17.0293754 Z M21.8123115,17.3399322 C21.8328743,17.3423494 21.8534648,17.3356466 21.8684299,17.3216642 C21.888327,17.3199651 21.9041023,17.3045592 21.9058421,17.2851281 L21.9432543,17.248592 C21.9432543,17.2303239 21.9619604,17.2120559 21.9619604,17.1937878 C21.9644356,17.1737067 21.957572,17.1535983 21.9432543,17.1389837 C21.9415145,17.1195526 21.9257392,17.1041466 21.9058421,17.1024476 L21.8684299,17.0659115 C21.8497238,17.0659115 21.8310176,17.0476434 21.8123115,17.0476434 C21.7917488,17.0452263 21.7711583,17.0519291 21.7561932,17.0659115 C21.7362961,17.0676105 21.7205208,17.0830165 21.718781,17.1024476 L21.6813687,17.1389837 C21.6813687,17.1572517 21.6626626,17.1755198 21.6626626,17.1937878 C21.6601875,17.213869 21.667051,17.2339773 21.6813687,17.248592 C21.6831085,17.2680231 21.6988839,17.283429 21.718781,17.2851281 L21.7561932,17.3216642 C21.7711583,17.3356466 21.7917488,17.3423494 21.8123115,17.3399322 Z M21.8310176,17.1389837 C21.8515804,17.1365665 21.8721709,17.1432693 21.887136,17.1572517 C21.9058421,17.1755198 21.9058421,17.1755198 21.9058421,17.1937878 C21.9058421,17.2120559 21.9058421,17.2120559 21.887136,17.2303239 C21.8770461,17.2402445 21.8639044,17.2466614 21.8497238,17.248592 L21.9058421,17.3033961 L21.8497238,17.3033961 L21.7936054,17.248592 L21.7748993,17.248592 L21.7748993,17.3033961 L21.7374871,17.3033961 L21.7374871,17.1389837 L21.8310176,17.1389837 Z M21.7936054,17.1572517 L21.7936054,17.1937878 L21.8497238,17.1937878 L21.8497238,17.1572517 L21.7936054,17.1572517 Z M17.5473175,16.4082617 L17.5473175,15.5313953 L17.1919013,15.5313953 L17.1919013,15.7506119 C17.0529665,15.5780004 16.8364757,15.48252 16.6120118,15.4948592 C16.0954567,15.4948592 15.6767061,15.9038034 15.6767061,16.4082617 C15.6767061,16.91272 16.0954567,17.3216642 16.6120118,17.3216642 C16.8364757,17.3340034 17.0529665,17.238523 17.1919013,17.0659115 L17.1919013,17.2851281 L17.5473175,17.2851281 L17.5473175,16.4082617 Z M16.1069467,16.4082617 C16.1272747,16.1111561 16.3868016,15.8842623 16.6914185,15.8972818 C16.9960354,15.9103012 17.2342724,16.1584697 17.2279441,16.4561736 C17.2216158,16.7538776 16.9730379,16.9921768 16.6681301,16.9928393 C16.312714,17.0111073 16.1069467,16.7370866 16.1069467,16.4082617 Z M21.1763037,16.4082617 L21.1763037,14.8372094 L20.8208875,14.8372094 L20.8208875,15.7506119 C20.6819526,15.5780004 20.4654618,15.48252 20.2409979,15.4948592 C19.7244429,15.4948592 19.3056922,15.9038034 19.3056922,16.4082617 C19.3056922,16.91272 19.7244429,17.3216642 20.2409979,17.3216642 C20.4654618,17.3340034 20.6819526,17.238523 20.8208875,17.0659115 L20.8208875,17.2851281 L21.1763037,17.2851281 L21.1763037,16.4082617 Z M19.7172267,16.4082617 C19.7375547,16.1111561 19.9970816,15.8842623 20.3016985,15.8972818 C20.6063154,15.9103012 20.8445525,16.1584697 20.8382242,16.4561736 C20.8318958,16.7538776 20.5833179,16.9921768 20.2784102,16.9928393 C20.1217803,16.9965654 19.9709585,16.934874 19.8638011,16.8232495 C19.7566437,16.7116249 19.7033245,16.5606655 19.7172267,16.4082617 Z" id="_Compound_Path_" fill="#FFFFFF" fill-rule="nonzero"></path>
                            <rect id="Rectangle" fill="#FF5F00" x="7.6744186" y="1.53488374" width="6.46949153" height="10.7105449"></rect>
                            <path d="M8.30662205,6.81236264 C8.30718568,4.72493767 9.24803354,2.75233448 10.8608593,1.45709021 C8.54947178,-0.387458768 5.32431515,-0.490336061 2.9033718,1.2032592 C0.482428457,2.89685446 -0.570631071,5.99260088 0.305138904,8.84145058 C1.18090888,11.6903003 3.78160201,13.6289529 6.72187629,13.6247233 C8.22380831,13.6257963 9.68214921,13.1124017 10.8608593,12.1676351 C9.24803354,10.8723908 8.30718568,8.89978761 8.30662205,6.81236264 Z" id="_Path_" fill="#EB001B"></path>
                            <path d="M21.5950335,6.80483537 C21.5921777,9.40958623 20.1261926,11.7846779 17.8182505,12.9237279 C15.5103084,14.062778 12.76446,13.7663734 10.744186,12.1601078 C12.3574345,10.8652128 13.2983734,8.89238013 13.2983734,6.80483537 C13.2983734,4.7172906 12.3574345,2.74445793 10.744186,1.44956294 C12.76446,-0.156702704 15.5103084,-0.453107291 17.8182505,0.685942788 C20.1261926,1.82499287 21.5921777,4.2000845 21.5950335,6.80483537 Z" id="Path" fill="#F79E1B"></path>
                        </g>
                    </g>
                </g>
            </g>
        </g>
    </g>
</svg>