<svg xmlns="http://www.w3.org/2000/svg" width="52" height="52" viewBox="0 0 52 52">
    <g fill="none" fill-rule="evenodd" transform="translate(1 1)">
        <circle cx="25" cy="25" r="25" stroke="#EB8181"/>
        <path fill="#EB8181" d="M27.067 31.52h-2.871l-.858-16.797h4.57l-.841 16.796zm-3.927 5.263c0-.814.215-1.433.644-1.857.429-.423 1.039-.635 1.831-.635.781 0 1.38.22 1.798.66.418.44.627 1.05.627 1.832 0 .78-.211 1.4-.635 1.856-.423.456-1.02.685-1.79.685-.781 0-1.389-.22-1.823-.66-.435-.44-.652-1.067-.652-1.881z"/>
    </g>
</svg>
