<?xml version="1.0" encoding="UTF-8"?>
<svg width="117px" height="24px" viewBox="0 0 117 24" version="1.1" xmlns="http://www.w3.org/2000/svg" xmlns:xlink="http://www.w3.org/1999/xlink">
    <!-- Generator: Sketch 48.2 (47327) - http://www.bohemiancoding.com/sketch -->
    <title>Final logo</title>
    <desc>Created with Sketch.</desc>
    <defs></defs>
    <g id="SmartStore_Eazy" stroke="none" stroke-width="1" fill="none" fill-rule="evenodd" transform="translate(-131.000000, -8.000000)">
        <g id="Group-2">
            <g id="Group-3">
                <g id="Group-9">
                    <g id="Final-logo" transform="translate(131.000000, 8.000000)">
                        <path d="M5.10532931,12.2839065 L5.09946196,11.689658 C5.09946196,11.689658 4.54815024,11.694563 3.445527,11.7043734 C2.96159056,11.6650801 2.72484705,11.3591623 2.73529657,10.7866203 C2.71653967,10.8322217 2.71653967,10.1718782 2.73529657,8.80558964 C2.73529657,8.80558964 2.3381331,8.59618658 1.54380604,8.17738044 C1.29379974,8.10639353 1.4392503,7.85791832 1.54380604,7.54528791 C1.59951284,7.37872037 1.81846422,6.85861222 2.20066019,5.98496335 C2.16537573,5.74642618 2.14705797,5.50414411 2.14705797,5.25944697 C2.14705797,2.35473461 4.69148306,0 7.59394031,0 C10.4963974,0 13.1550973,2.3524808 13.1550973,5.25719316 C13.1550973,6.94962199 12.2650046,8.52728265 10.947943,9.54936814 L10.9573522,12.2985102 L11.683013,12.3003211 C11.6917085,10.7483129 11.6982236,9.97042346 11.7025583,9.96665253 C13.0279545,8.81366519 13.8420147,6.960221 13.8778638,5.11587821 C14.2364964,5.11608945 14.4698107,5.11632965 14.5411563,5.11659821 L14.5411087,17.4125771 C14.5411563,18.6200309 13.5638815,19.5965745 12.2576755,19.5988073 C9.66758566,19.0695025 4.82740316,19.1027208 2.28350451,19.5987845 C1.1145872,19.6010401 2.38105733e-05,18.6200309 2.38105733e-05,17.4126455 L0,5.11652984 C0.125683056,5.11607316 0.684012267,5.11570668 1.51407075,5.11542787 C1.51984075,5.37050222 1.53711025,5.71066678 1.54520454,5.8428367 L0.685797658,7.91575641 C0.55225008,8.1533723 0.581582295,8.29946866 0.773794404,8.35404548 C1.68984664,8.83703075 2.14787275,9.07852344 2.14787275,9.07852344 C2.14642573,10.5371639 2.14570217,11.266484 2.14570217,11.266484 C2.23143792,11.910394 2.55335406,12.2550065 3.11145039,12.3003211 C4.29224635,12.2890076 4.88264449,12.2833508 4.88264449,12.2833508 L5.10532931,12.2839065 Z M7.12889088,1.11031672 C6.57706828,1.11113223 6.81550827,1.08429768 6.41014139,1.15509416 C5.70105247,1.38618249 5.27577896,1.97107435 5.29614564,2.68172511 C3.83497635,2.83396042 3.92091755,4.9990531 5.19301602,4.9990531 C5.19301602,4.9990531 9.47322728,4.9990531 10.2813682,4.9990531 C11.4499607,4.9990531 11.6863933,2.74939848 9.98136822,2.69865341 C10.0744399,1.75627777 8.88108957,1.10393123 8.09818737,1.68377052 C7.80347777,1.31542572 7.57101796,1.24254043 7.12889088,1.11031672 Z" id="Combined-Shape-Copy-7" fill="#00B6A4" fill-rule="nonzero"></path>
                        <path d="M30.7182517,18.0741684 L30.7182517,19.661969 C29.9816309,19.5485547 29.4905504,19.5296523 28.5083894,19.5296523 L21.4254973,19.5296523 C20.2922346,19.5296523 19.8767049,19.5485547 19.2722981,19.5863594 L19.2722981,18.2442899 C19.6500524,17.8851445 20.0089189,17.469292 20.6511011,16.6375869 L27.809544,7.24310013 C27.9984212,7.01627147 28.2250737,6.75163804 28.5083894,6.43029744 C28.1306351,6.46810222 27.6206669,6.48700461 27.3562389,6.48700461 L22.1810058,6.48700461 C21.1988448,6.48700461 20.6511011,6.52480938 19.9900312,6.61932132 L19.9900312,5.03152074 C20.6322134,5.12603268 21.1988448,5.16383745 22.1810058,5.16383745 L28.2817368,5.16383745 C29.056133,5.16383745 29.6605398,5.14493506 30.3971606,5.10713029 L30.3971606,6.41139506 C30.0005186,6.78944282 29.6416521,7.22419774 29.0372453,8.01809803 L22.0676795,17.1668538 C21.8032516,17.5070968 21.5577113,17.7906326 21.1610694,18.2442899 C21.8032516,18.2064851 22.1621181,18.2064851 22.6154232,18.2064851 L28.5083894,18.2064851 C29.3961119,18.2064851 30.0194064,18.1686804 30.7182517,18.0741684 Z M37.2534001,19.7753833 C34.1558153,19.7753833 32.1914933,17.715023 32.1914933,14.4449099 C32.1914933,11.1747968 34.1558153,9.09553414 37.2345124,9.09553414 C40.3132095,9.09553414 42.2586438,11.1747968 42.2586438,14.4260075 C42.2586438,17.6583159 40.2943218,19.7753833 37.2534001,19.7753833 Z M37.2722878,10.2863846 C35.0246501,10.2863846 33.6458471,11.8552828 33.6458471,14.4071052 C33.6458471,16.9778299 35.0246501,18.5467281 37.2345124,18.5467281 C39.4443747,18.5467281 40.80429,16.9778299 40.80429,14.4260075 C40.80429,11.8741852 39.4443747,10.2863846 37.2722878,10.2863846 Z M46.1306248,23.4991537 L44.4685062,23.4991537 C44.5629447,22.7619606 44.6007202,22.1570842 44.6007202,21.3820863 L44.6007202,11.5150398 C44.6007202,10.6077252 44.5629447,10.0595559 44.4685062,9.34126519 L45.9795231,9.34126519 L45.9795231,10.4187013 C45.9795231,10.6644323 45.9606354,10.8723586 45.92286,11.1936992 C46.7728071,9.85162966 48.0949469,9.15224131 49.7759533,9.15224131 C52.684661,9.15224131 54.4601059,11.136992 54.4601059,14.4260075 C54.4601059,17.6394135 52.6468855,19.6997738 49.8137287,19.6997738 C48.15161,19.6997738 46.8105825,19.0003854 45.92286,17.6961207 C45.9795231,18.2253875 45.9984109,18.5089233 45.9984109,19.0192878 L45.9984109,21.3631839 C45.9984109,22.2515961 46.0361863,22.7997654 46.1306248,23.4991537 Z M49.6815147,18.4711186 C51.7402754,18.4711186 52.9868644,16.9400251 52.9868644,14.4260075 C52.9868644,11.8552828 51.7780508,10.3808965 49.662627,10.3808965 C47.4905401,10.3808965 46.0172986,12.0065019 46.0172986,14.4449099 C46.0172986,15.6735651 46.4139405,16.8077084 47.0938982,17.469292 C47.7549681,18.1119732 48.6993537,18.4711186 49.6815147,18.4711186 Z" id="Zop" fill="#FFFFFF"></path>
                        <path d="M55.8436307,15.4656389 L58.5634613,15.1821031 C58.6390121,16.0327105 58.7523384,16.4107583 59.0923172,16.8455132 C59.6400609,17.5638039 60.6222219,17.9607541 61.8499232,17.9607541 C63.7386944,17.9607541 64.8719571,17.1101466 64.8719571,15.6924675 C64.8719571,14.9174696 64.5130906,14.2747884 63.9275715,13.9534478 C63.3609402,13.6510096 63.2476139,13.6321072 60.6411096,13.0272308 C59.2245312,12.7058902 58.4690227,12.403452 57.7890651,11.8741852 C56.8257918,11.1180897 56.3347112,10.0784583 56.3347112,8.81199832 C56.3347112,6.1845664 58.450135,4.48335149 61.6988215,4.48335149 C63.8520207,4.48335149 65.4763639,5.14493506 66.4018618,6.39249267 C66.8740546,7.01627147 67.1007072,7.58334311 67.3273597,8.58516967 L64.6264169,8.90651026 C64.5130906,8.26382907 64.3808766,7.94248848 64.0597855,7.56444072 C63.568705,6.97846669 62.7376457,6.6571261 61.6988215,6.6571261 C60.0555905,6.6571261 58.9412155,7.48883117 58.9412155,8.71748638 C58.9412155,9.51138668 59.3567452,10.0595559 60.2255799,10.4376037 C60.6411096,10.6077252 60.7922113,10.64553 62.8887474,11.1180897 C64.3808766,11.4394302 65.2874868,11.7985756 65.9674444,12.2711353 C67.044044,13.0650356 67.5351246,14.1046669 67.5351246,15.522346 C67.5351246,16.8644156 67.1195949,17.9607541 66.3451987,18.735752 C65.3441499,19.6997738 63.8520207,20.1723335 61.8310355,20.1723335 C60.2822431,20.1723335 58.7712261,19.7942857 57.8646159,19.1894093 C57.1091074,18.6790448 56.5613638,17.9607541 56.2024973,17.0345371 C56.0325078,16.5997822 55.956957,16.2406368 55.8436307,15.4656389 Z M72.3326034,19.8698953 L69.669436,19.8698953 C69.7638746,19.0570926 69.80165,18.4333138 69.80165,17.4125848 L69.80165,11.477235 C69.80165,10.2863846 69.7638746,9.73821533 69.669436,9.01992459 L72.2003895,9.01992459 L72.2003895,9.98394638 C72.2003895,10.0973607 72.2003895,10.3808965 72.1815017,10.6833347 C72.7292454,9.53028907 74.1269361,8.79309594 75.6946162,8.79309594 C76.7145527,8.79309594 77.545612,9.07663176 78.1311311,9.64370339 C78.4711099,9.9461416 78.6222116,10.1918726 78.8488641,10.7778467 C79.4910464,9.92723921 79.8499129,9.58699623 80.435432,9.28455802 C81.0587265,8.94431504 81.7009087,8.79309594 82.5508557,8.79309594 C83.7596693,8.79309594 84.7418303,9.1711437 85.3840126,9.87053205 C86.0073071,10.551018 86.271735,11.4016255 86.271735,12.743695 L86.271735,17.4125848 C86.271735,18.4711186 86.3095104,19.0948974 86.4228367,19.8698953 L83.6652307,19.8698953 C83.778557,19.0948974 83.8163324,18.5278257 83.8163324,17.4125848 L83.8163324,13.1784499 C83.8163324,11.5150398 83.2308134,10.7589443 81.9653366,10.7589443 C81.3420421,10.7589443 80.8698493,10.9290658 80.4165443,11.3260159 C79.7554743,11.8930876 79.4532709,12.497964 79.2266184,13.669912 L79.2266184,17.4125848 C79.2266184,18.4522162 79.2643938,19.0948974 79.3588324,19.8698953 L76.6390018,19.8698953 C76.7523281,19.075995 76.7901035,18.4900209 76.7901035,17.4125848 L76.7901035,13.1784499 C76.7901035,11.5906494 76.1856967,10.7967491 74.9579954,10.7967491 C74.1647115,10.7967491 73.5225293,11.1180897 73.0125611,11.7796732 C72.5970314,12.3278425 72.4081543,12.7625974 72.2003895,13.669912 L72.2003895,17.4125848 C72.2003895,18.4333138 72.2381649,19.0003854 72.3326034,19.8698953 Z M95.9233559,19.8698953 L95.9233559,18.6412401 C95.1678475,19.3595308 94.6956546,19.6241642 93.9212585,19.8320905 C93.3735148,19.9833096 92.769108,20.0589191 92.1647012,20.0589191 C89.8604003,20.0589191 88.4627096,18.8680687 88.4627096,16.883318 C88.4627096,15.5601508 89.293769,14.3693004 90.5970211,13.8211311 C91.8247224,13.3107667 93.2224131,13.1217428 95.9233559,13.0650356 L95.9233559,12.1010138 C95.9233559,11.0046753 95.1867352,10.4376037 93.751269,10.4376037 C92.9957606,10.4376037 92.2213644,10.64553 91.786947,10.9857729 C91.4280804,11.2504064 91.258091,11.5150398 91.0314385,12.1955258 L88.6138113,11.7607708 C89.0482287,10.6644323 89.3882075,10.1729703 90.1059406,9.66260578 C91.0314385,8.98211982 92.0891504,8.698584 93.7134936,8.698584 C95.526714,8.698584 96.6222013,9.01992459 97.4343729,9.81382488 C98.0765551,10.4187013 98.3220954,11.136992 98.3220954,12.4223544 L98.3220954,17.5070968 C98.3220954,18.5089233 98.3598708,19.0192878 98.4731971,19.8698953 L95.9233559,19.8698953 Z M95.9233559,15.6546628 L95.9233559,14.7095434 C92.3158029,14.7851529 90.8992245,15.4089317 90.8992245,16.883318 C90.8992245,17.7717302 91.5602944,18.3198995 92.6180063,18.3198995 C93.6190551,18.3198995 94.6012161,17.9418517 95.2433983,17.3180729 C95.6967034,16.8644156 95.9233559,16.3162463 95.9233559,15.6546628 Z M108.634786,9.01992459 L107.973716,11.4016255 C107.180432,11.1747968 106.78379,11.0991873 106.29271,11.0991873 C105.348324,11.0991873 104.630591,11.4016255 104.101735,12.0254043 C103.629543,12.5735735 103.440665,13.0083284 103.327339,13.9156431 L103.327339,17.4125848 C103.327339,18.4333138 103.365115,18.981483 103.459553,19.8698953 L100.75861,19.8698953 C100.853049,18.9436783 100.890824,18.395509 100.890824,17.4125848 L100.890824,11.477235 C100.890824,10.3241894 100.871937,9.7949225 100.75861,9.01992459 L103.327339,9.01992459 L103.327339,10.7967491 C104.007297,9.45467951 105.178335,8.81199832 106.878229,8.81199832 C107.331534,8.81199832 107.784839,8.86870549 108.634786,9.01992459 Z M111.279066,6.10895685 L113.980009,6.10895685 C113.904458,6.77054043 113.847795,7.58334311 113.847795,8.43395057 L113.847795,9.01992459 L114.641079,9.01992459 C115.528801,9.01992459 115.944331,9.0010222 116.548738,8.90651026 L116.548738,11.136992 C115.925443,11.0424801 115.566577,11.0235777 114.697742,11.0235777 L113.847795,11.0235777 L113.847795,16.883318 C113.847795,17.809535 114.187774,18.149778 115.094384,18.149778 C115.585464,18.149778 115.887668,18.055266 116.473187,17.7339254 L116.813166,19.7375786 C116.000994,20.0400168 115.434363,20.1345287 114.452202,20.1345287 C112.280115,20.1345287 111.41128,19.3595308 111.41128,17.3747801 L111.41128,11.0235777 L110.693547,11.0235777 C109.994702,11.0235777 109.635835,11.0424801 109.01254,11.136992 L109.01254,8.90651026 C109.560284,9.0010222 109.919151,9.01992459 110.712435,9.01992459 L111.41128,9.01992459 L111.41128,8.43395057 C111.41128,7.62114788 111.354617,6.78944282 111.279066,6.10895685 Z" id="Smart" fill="#00B6A4"></path>
                    </g>
                </g>
            </g>
        </g>
    </g>
</svg>