<svg xmlns="http://www.w3.org/2000/svg" width="21" height="24" viewBox="0 0 21 24">
    <g fill="none" fill-rule="evenodd">
        <path d="M-5-3h30v30H-5z" opacity=".05"/>
        <g stroke="#80959D">
            <path d="M13.307 20.57v.049c0 1.639-1.288 2.714-2.879 2.717-1.59-.011-2.875-1.082-2.884-2.72v-.045"/>
            <path d="M.91 19.461l.821-1.73a9.318 9.318 0 0 0 .892-3.963V8.379v-.41C2.83 3.838 6.216.599 10.344.599h.183c4.13 0 7.515 3.245 7.71 7.385v5.799a9.317 9.317 0 0 0 .905 3.96l.82 1.73a.922.922 0 0 1-.044.872.866.866 0 0 1-.74.422H1.701a.866.866 0 0 1-.749-.434.922.922 0 0 1-.044-.872z"/>
        </g>
    </g>
</svg>
