<svg xmlns="http://www.w3.org/2000/svg" width="28" height="29" viewBox="0 0 28 29">
    <g fill="none" fill-rule="evenodd" stroke="#20C05C">
        <path d="M12.909 3.958h6v6h-6z"/>
        <path d="M7.414 17.247H1V1h21.053v6.405M10.38 6.956H3.467M10.38 9.956H3.467M13.776 20.916v5.364a1.591 1.591 0 0 0 3.182 0v-5.54M25.246 15.465c.997 0 1.805.809 1.805 1.806v.61c0 .918-.744 1.663-1.662 1.663M10.38 3.956H3.467M18.889 14.67H13.57a2.864 2.864 0 1 0 0 5.728h5.319v-5.727zM19.212 14.483l5.76-4.468v15.344l-5.76-4.755"/>
    </g>
</svg>
