<?xml version="1.0" encoding="UTF-8"?>
<svg width="30px" height="30px" viewBox="0 0 30 30" version="1.1" xmlns="http://www.w3.org/2000/svg" xmlns:xlink="http://www.w3.org/1999/xlink">
    <!-- Generator: Sketch 48.2 (47327) - http://www.bohemiancoding.com/sketch -->
    <title>language</title>
    <desc>Created with Sketch.</desc>
    <defs></defs>
    <g id="mster-icons" stroke="none" stroke-width="1" fill="none" fill-rule="evenodd">
        <g id="language">
            <g>
                <g id="master">
                    <rect id="Rectangle" x="0" y="0" width="30" height="30"></rect>
                </g>
                <g id="Group-3" transform="translate(3.000000, 3.000000)" stroke="#80959D">
                    <path d="M12.2366885,16.8341507 C13.0197109,17.0431255 12.9485271,17.0431255 13.3756303,16.4858594 C13.5891819,16.2072264 13.3756303,15.301669 13.517998,15.0230359 C13.7315496,14.6050864 14.0874689,14.1871369 13.7315496,13.9085038 C13.3044464,13.4905541 13.517998,13.4905541 12.3790562,13.5602125 C12.2366885,13.5602125 11.5248498,13.2815794 11.3824821,13.0029464 L11.2401143,12.5849968 C11.0265628,12.0277307 10.5282757,12.5153386 10.2435402,12.0973889 C9.31815,10.9131986 9.88762091,11.818756 8.53512748,11.1221734 C8.03684042,10.8435403 7.75210497,11.6097812 7.18263405,12.5153386 C6.96908246,12.8636299 6.54197927,12.7243133 6.54197927,13.2119212 C6.54197927,14.3264533 6.39961153,14.1174785 7.25381791,14.7444029 C7.60973724,15.0230359 7.25381791,15.4409855 7.60973724,15.7196185 C8.6774952,16.3465429 8.39275975,15.9285934 8.81986294,18.1576576 C8.81986294,18.2969742 8.6774952,18.784582 8.60631135,18.9935568 C8.46394362,19.4811646 9.17578226,19.4811646 9.03341453,19.9687725 C8.81986294,20.9439882 8.6774952,20.5956969 10.0299886,21.9888621 C10.1011725,22.0585203 10.2435402,22.1281785 10.3147241,22.1281785 C11.0265628,22.1281785 10.9553789,21.7798872 10.9553789,20.9439882 C10.9553789,20.7350133 10.6706434,20.386722 10.5282757,20.1777472 C10.385908,19.9687725 10.4570918,19.6901394 10.6706434,19.5508229 C11.3824821,19.2025316 11.0977466,19.4115064 12.1655046,18.0183412 C12.3078723,17.7397081 12.2366885,17.0431255 12.2366885,16.8341507 Z" id="Shape"></path>
                    <path d="M24,11.9053577 C24,5.32972405 18.627907,0 12,0 C5.37209302,0 4.13891144e-13,5.32972405 4.13891144e-13,11.9053577 C4.13891144e-13,18.4809913 5.37209302,23.8107153 12,23.8107153 C18.627907,23.8107153 24,18.4809913 24,11.9053577 Z M0.0290697675,11.9385621 C0.0290697675,10.4972583 0.334914321,9.13181246 0.793681151,7.84222477 L1.48183139,9.66281916 C1.55829253,9.81453536 1.63475367,9.89039346 1.71121481,9.96625156 C4.00504896,11.1799811 3.77566555,11.2558393 4.38735466,9.13181246 C4.54027693,8.52494766 5.30488831,8.67666386 6.2988831,8.67666386 C6.52826653,8.67666386 7.82810588,7.91808287 8.05748929,7.84222477 C8.59271726,7.53879236 8.13395043,7.08364377 8.59271726,6.78021137 C10.8100902,5.26304938 10.12194,5.56648177 11.8805462,5.11133317 C12.1863907,5.03547508 12.4157742,4.65618458 12.2628519,4.35275218 C12.1099296,3.97346169 12.4922353,3.44245499 12.7216188,2.98730639 C13.1039244,2.22872539 11.9570074,2.00115109 10.5807069,1.39428629 C10.4277846,1.31842819 9.20440637,1.24257009 8.97502295,1.47014439 C7.44580018,2.60801588 8.05748929,2.53215779 5.76365514,1.84943489 C7.59872246,0.711563395 9.81609547,0.0288404981 12.1099296,0.0288404981 C15.091914,0.0288404981 17.844515,1.0908539 19.9089658,2.91144829 C19.3737378,3.21488068 19.5266601,3.51831309 19.8325046,3.97346169 C19.9854269,4.27689408 19.9089658,4.65618458 19.6031212,4.80790078 L19.3737378,4.88375888 C18.9914321,5.11133317 18.9914321,5.64233987 19.2972766,5.86991418 L19.8325046,6.24920467 C19.8325046,6.24920467 19.9089658,6.32506277 19.9089658,6.32506277 C21.3617274,6.93192757 21.8969553,7.38707617 22.3557221,6.93192757 C22.4321833,6.78021137 22.5851056,6.78021137 22.7380278,6.78021137 C22.9674113,7.23535997 23.1203335,7.61465046 23.2732558,8.14565716 C22.5851056,7.84222477 22.5851056,7.91808287 22.1263388,8.44908957 C21.8204942,8.75252196 21.4381885,8.52494766 20.9794217,8.44908957 C20.7500383,8.37323147 20.5971159,8.22151526 20.5971159,7.99394097 C20.5971159,7.15950187 19.5266601,7.61465046 18.6855875,7.84222477 C18.6091264,7.84222477 18.6091264,7.84222477 18.5326653,7.84222477 C17.9209761,7.84222477 17.1563648,7.69050857 17.0799036,8.22151526 C16.9269813,9.05595436 17.0799036,8.75252196 15.7036031,9.73867726 C15.3212974,9.96625156 15.4742197,10.4214002 15.7036031,11.9385621 C15.7036031,12.0902784 15.7800642,12.1661364 15.8565254,12.2419946 C17.4622093,13.6074403 16.8505202,13.5315823 18.7620486,12.9247174 C19.3737378,12.7730013 19.2972766,13.379866 19.8325046,13.379866 L20.2912715,13.379866 C20.2912715,15.0487442 20.2148102,14.7453118 20.8264994,15.5797509 C21.2852662,16.1866157 20.1383491,16.8693387 20.7500383,17.4003453 C21.0558828,17.6279196 20.9794217,17.7796358 20.9029605,18.1589263 C20.7500383,18.8416492 21.5146496,18.6140749 21.5146496,19.2967979 C19.2972766,22.1794057 15.8565254,24 11.9570074,24 C5.38134945,23.8482838 0.0290697675,18.5382169 0.0290697675,11.9385621 Z" id="Shape"></path>
                </g>
            </g>
        </g>
    </g>
</svg>