<?xml version="1.0" encoding="UTF-8"?>
<svg width="1775px" height="187px" viewBox="0 0 1775 187" version="1.1" xmlns="http://www.w3.org/2000/svg" xmlns:xlink="http://www.w3.org/1999/xlink">
    <!-- Generator: Sketch 48.1 (47250) - http://www.bohemiancoding.com/sketch -->
    <title>illustration</title>
    <desc>Created with Sketch.</desc>
    <defs>
        <linearGradient x1="43.0410445%" y1="100%" x2="43.0410458%" y2="0%" id="linearGradient-1">
            <stop stop-color="#F0F5F8" offset="0%"></stop>
            <stop stop-color="#FFFFFF" offset="100%"></stop>
        </linearGradient>
        <linearGradient x1="50%" y1="0%" x2="50%" y2="100%" id="linearGradient-2">
            <stop stop-color="#20C05C" offset="0%"></stop>
            <stop stop-color="#E9FCF1" offset="100%"></stop>
        </linearGradient>
    </defs>
    <g id="Page-1" stroke="none" stroke-width="1" fill="none" fill-rule="evenodd">
        <g id="illustration">
            <g id="Group-Copy" transform="translate(1.000000, 26.000000)">
                <polygon id="Stroke-2327" stroke="#80959D" fill="url(#linearGradient-1)" points="406.56492 137.307692 421.373576 137.307692 421.373576 12.1153846 406.56492 12.1153846"></polygon>
                <polygon id="Fill-2328" stroke="#80959D" fill="url(#linearGradient-1)" fill-rule="nonzero" points="669.082005 137.307692 691.968109 137.307692 691.968109 24.2307692 669.082005 24.2307692"></polygon>
                <polygon id="Fill-2330" stroke="#80959D" fill-rule="nonzero" points="682.544419 36.3461538 686.583144 36.3461538 686.583144 30.9615385 682.544419 30.9615385"></polygon>
                <polygon id="Fill-2332" stroke="#80959D" fill-rule="nonzero" points="682.544419 47.1153846 686.583144 47.1153846 686.583144 41.7307692 682.544419 41.7307692"></polygon>
                <polygon id="Stroke-2335" stroke="#80959D" fill="url(#linearGradient-1)" points="161.713004 21.8368031 161.713004 13.4615385 145.231204 13.4615385 145.231204 21.8368031 142.701595 21.8368031 142.701595 137.307692 164.241458 137.307692 164.241458 21.8368031"></polygon>
                <polygon id="Fill-2336" stroke="#80959D" fill-rule="nonzero" points="150.779043 32.3076923 154.817768 32.3076923 154.817768 26.9230769 150.779043 26.9230769"></polygon>
                <polygon id="Fill-2338" stroke="#80959D" fill-rule="nonzero" points="150.779043 43.0769231 154.817768 43.0769231 154.817768 37.6923077 150.779043 37.6923077"></polygon>
                <polygon id="Stroke-2351" stroke="#80959D" fill="url(#linearGradient-1)" points="856.209567 137.307692 885.826879 137.307692 885.826879 52.5 856.209567 52.5"></polygon>
                <polyline id="Fill-2352" stroke="#80959D" fill="url(#linearGradient-1)" fill-rule="nonzero" points="893.5182 52.5 893.5182 94.9038463 884.480638 94.9038463 884.480638 134.707257 893.5182 134.707257 893.5182 137.307692 915.444191 137.307692 915.444191 52.5 893.5182 52.5"></polyline>
                <polygon id="Fill-2354" stroke="#80959D" fill-rule="nonzero" points="907.366743 63.2692308 911.405467 63.2692308 911.405467 57.8846154 907.366743 57.8846154"></polygon>
                <polygon id="Fill-2356" stroke="#80959D" fill-rule="nonzero" points="897.943052 63.2692308 901.981777 63.2692308 901.981777 57.8846154 897.943052 57.8846154"></polygon>
                <polygon id="Fill-2358" stroke="#80959D" fill-rule="nonzero" points="876.403189 63.2692308 880.441913 63.2692308 880.441913 57.8846154 876.403189 57.8846154"></polygon>
                <polygon id="Fill-2360" stroke="#80959D" fill-rule="nonzero" points="866.979499 63.2692308 871.018223 63.2692308 871.018223 57.8846154 866.979499 57.8846154"></polygon>
                <polygon id="Fill-2362" stroke="#80959D" fill="url(#linearGradient-1)" fill-rule="nonzero" points="29.6173121 137.307692 67.3120729 137.307692 67.3120729 21.5384615 29.6173121 21.5384615"></polygon>
                <polygon id="Stroke-2375" stroke="#80959D" fill="url(#linearGradient-1)" points="230.528518 43.791713 230.528518 37.6923077 215.077405 37.6923077 215.077405 43.791713 212.70615 43.791713 212.70615 127.884615 232.899772 127.884615 232.899772 43.791713"></polygon>
                <polygon id="Stroke-2381" stroke="#80959D" fill="url(#linearGradient-1)" points="295.981812 120.064249 295.981812 109.231846 310.593249 109.231846 310.593249 98.7927664 325.211781 98.7927664 325.211781 88.4792427 339.827948 88.4792427 339.827948 77.9094822 354.445298 77.9094822 354.445298 67.3076923 369.060283 67.3076923 369.060283 77.9094822 383.678815 77.9094822 383.678815 137.125764 310.593249 137.125764 290.638385 137.307692 281.364465 137.307692 281.364465 120.064249"></polygon>
                <polygon id="Stroke-2383" stroke="#80959D" points="358.100228 95.5769231 362.138952 95.5769231 362.138952 90.1923077 358.100228 90.1923077"></polygon>
                <polygon id="Stroke-2385" stroke="#80959D" points="367.523918 95.5769231 371.562642 95.5769231 371.562642 90.1923077 367.523918 90.1923077"></polygon>
                <polygon id="Stroke-2387" stroke="#80959D" fill="#FFFFFF" points="195.012007 118.483265 195.012007 97.8946879 173.280336 97.8946879 173.280336 83.238961 151.548665 83.238961 151.548665 68.7630039 129.815799 68.7630039 129.815799 53.9236819 108.084128 53.9236819 108.084128 39.0384615 86.3512615 39.0384615 86.3512615 53.9236819 64.61959 53.9236819 64.61959 137.055249 173.280336 137.055249 216.744875 137.307692 216.744875 118.483265"></polygon>
                <polygon id="Stroke-2391" stroke="#80959D" fill="#FFFFFF" points="38.9628705 62.9635323 38.9628705 55.1923077 12.1943049 55.1923077 12.1943049 62.9635323 0 62.9635323 0 137.307692 51.1571754 137.307692 51.1571754 62.9635323"></polygon>
                <polygon id="Stroke-2393" stroke="#80959D" fill="url(#linearGradient-1)" points="281.573097 9.27934038 281.573097 0 256.616817 0 256.616817 9.27934038 252.786728 9.27934038 252.786728 78.0378358 230.207289 78.0378358 230.207289 137.307692 285.403189 137.307692 285.403189 9.27934038"></polygon>
                <polygon id="Fill-2408" stroke="#80959D" fill-rule="nonzero" points="6.73120729 76.7307692 13.4624146 76.7307692 13.4624146 70 6.73120729 70"></polygon>
                <polygon id="Fill-2410" stroke="#80959D" fill-rule="nonzero" points="18.8473804 76.7307692 25.5785877 76.7307692 25.5785877 70 18.8473804 70"></polygon>
                <polygon id="Fill-2412" stroke="#80959D" fill-rule="nonzero" points="271.940774 25.5769231 278.671982 25.5769231 278.671982 18.8461538 271.940774 18.8461538"></polygon>
                <polygon id="Fill-2414" stroke="#80959D" fill-rule="nonzero" points="271.940774 37.6923077 278.671982 37.6923077 278.671982 30.9615385 271.940774 30.9615385"></polygon>
                <polygon id="Fill-2416" stroke="#80959D" fill-rule="nonzero" points="74.0432802 83.4615385 80.7744875 83.4615385 80.7744875 76.7307692 74.0432802 76.7307692"></polygon>
                <polygon id="Fill-2418" stroke="#80959D" fill-rule="nonzero" points="86.1594533 83.4615385 92.8906606 83.4615385 92.8906606 76.7307692 86.1594533 76.7307692"></polygon>
                <polygon id="Fill-2420" stroke="#80959D" fill-rule="nonzero" points="74.0432802 71.3461538 80.7744875 71.3461538 80.7744875 64.6153846 74.0432802 64.6153846"></polygon>
                <polygon id="Fill-2422" stroke="#80959D" fill-rule="nonzero" points="74.0432802 95.5769231 80.7744875 95.5769231 80.7744875 88.8461538 74.0432802 88.8461538"></polygon>
                <polygon id="Stroke-2425" stroke="#80959D" fill="#FFFFFF" points="389.063781 137.307692 422.719818 137.307692 422.719818 64.6153846 389.063781 64.6153846"></polygon>
                <polygon id="Stroke-2427" stroke="#80959D" fill="url(#linearGradient-1)" points="495.646907 9.42307692 495.646907 73.3672897 485.107666 73.3672897 485.107666 9.42307692 452.33713 9.42307692 452.33713 137.307692 485.107666 137.307692 485.107666 133.389604 495.646907 133.389604 495.646907 137.307692 539.842825 137.307692 539.842825 9.42307692"></polygon>
                <polyline id="Fill-2428" stroke="#80959D" fill="#FFFFFF" fill-rule="nonzero" points="590.923057 62.9633336 590.923057 55.1923077 564.154493 55.1923077 564.154493 62.9633336 551.958998 62.9633336 551.958998 137.307692 603.116173 137.307692 603.116173 62.9633336 590.923057 62.9633336"></polyline>
                <polygon id="Fill-2430" stroke="#80959D" fill-rule="nonzero" points="397.14123 78.0769231 403.872437 78.0769231 403.872437 71.3461538 397.14123 71.3461538"></polygon>
                <polygon id="Fill-2432" stroke="#80959D" fill-rule="nonzero" points="397.14123 90.1923077 403.872437 90.1923077 403.872437 83.4615385 397.14123 83.4615385"></polygon>
                <polygon id="Fill-2434" stroke="#80959D" fill-rule="nonzero" points="459.068337 22.8846154 465.799544 22.8846154 465.799544 16.1538462 459.068337 16.1538462"></polygon>
                <polygon id="Fill-2436" stroke="#80959D" fill-rule="nonzero" points="471.18451 22.8846154 477.915718 22.8846154 477.915718 16.1538462 471.18451 16.1538462"></polygon>
                <polygon id="Fill-2438" stroke="#80959D" fill-rule="nonzero" points="503.494305 24.2307692 510.225513 24.2307692 510.225513 17.5 503.494305 17.5"></polygon>
                <polygon id="Fill-2440" stroke="#80959D" fill-rule="nonzero" points="503.494305 36.3461538 510.225513 36.3461538 510.225513 29.6153846 503.494305 29.6153846"></polygon>
                <polygon id="Fill-2442" stroke="#80959D" fill-rule="nonzero" points="558.690205 76.7307692 565.421412 76.7307692 565.421412 70 558.690205 70"></polygon>
                <polygon id="Fill-2442" stroke="#80959D" fill-rule="nonzero" points="558.690205 88.8461538 565.421412 88.8461538 565.421412 82.1153846 558.690205 82.1153846"></polygon>
                <polygon id="Fill-2444" fill="#FFFFFE" fill-rule="nonzero" points="570.806378 88.8461538 577.537585 88.8461538 577.537585 82.1153846 570.806378 82.1153846"></polygon>
                <polygon id="Stroke-2447" stroke="#80959D" fill="url(#linearGradient-1)" points="833.565751 13.0465628 833.565751 4.03846154 808.844112 4.03846154 808.844112 13.0465628 805.052392 13.0465628 805.052392 137.307692 837.362187 137.307692 837.362187 13.0465628"></polygon>
                <polygon id="Fill-2448" stroke="#80959D" fill-rule="nonzero" points="823.899772 29.6153846 830.630979 29.6153846 830.630979 22.8846154 823.899772 22.8846154"></polygon>
                <polygon id="Fill-2450" stroke="#80959D" fill-rule="nonzero" points="823.899772 41.7307692 830.630979 41.7307692 830.630979 35 823.899772 35"></polygon>
                <polygon id="Fill-2452" stroke="#80959D" fill-rule="nonzero" points="823.899772 53.8461538 830.630979 53.8461538 830.630979 47.1153846 823.899772 47.1153846"></polygon>
                <polygon id="Stroke-2455" stroke="#80959D" fill="url(#linearGradient-1)" points="782.166287 135.961538 805.052392 135.961538 805.052392 78.0769231 782.166287 78.0769231"></polygon>
                <polygon id="Fill-2456" stroke="#80959D" fill-rule="nonzero" points="790.243736 94.2307692 796.974943 94.2307692 796.974943 87.5 790.243736 87.5"></polygon>
                <polygon id="Fill-2458" stroke="#80959D" fill="#FFFFFF" fill-rule="nonzero" points="745.625789 102.215361 723.895143 102.215361 723.895143 89.1668588 702.163301 89.1668588 702.163301 76.2760579 680.430262 76.2760579 680.430262 63.0622236 658.69842 63.0622236 658.69842 49.8076923 636.965385 49.8076923 636.965385 63.0622236 615.232346 63.0622236 615.15427 137.307692 723.943748 137.307692 767.357631 137.307692 767.357631 115.7535 745.625789 115.7535"></polygon>
                <polygon id="Stroke-2461" stroke="#80959D" points="623.309795 78.0769231 630.041002 78.0769231 630.041002 71.3461538 623.309795 71.3461538"></polygon>
                <polygon id="Fill-2462" stroke="#80959D" fill-rule="nonzero" points="635.425968 90.1923077 642.157175 90.1923077 642.157175 83.4615385 635.425968 83.4615385"></polygon>
                <polygon id="Fill-2464" stroke="#80959D" fill-rule="nonzero" points="635.425968 78.0769231 642.157175 78.0769231 642.157175 71.3461538 635.425968 71.3461538"></polygon>
                <polygon id="Fill-2466" stroke="#80959D" fill-rule="nonzero" points="623.309795 90.1923077 630.041002 90.1923077 630.041002 83.4615385 623.309795 83.4615385"></polygon>
                <path d="M138.660057,137.307692 C138.660057,137.270919 138.66287,137.229072 138.66287,137.192299 C138.66287,129.77667 132.584249,123.76225 125.082315,123.76225 C124.768679,123.76225 124.45645,123.777467 124.145628,123.799024 C123.313017,117.173399 117.598664,112.046622 110.673368,112.046622 C107.418873,112.046622 104.433007,113.18027 102.09129,115.069683 C100.994269,109.278442 97.1054711,105 92.4853254,105 C87.990353,105 84.1943795,109.048923 82.9778117,114.596696 C81.5882519,113.591122 80.0003845,113.02303 78.311254,113.02303 C73.3760667,113.02303 69.2819285,117.903802 68.5224525,124.298641 C67.3185425,123.953728 66.0499363,123.76225 64.7363245,123.76225 C57.2372025,123.76225 51.1571754,129.77667 51.1571754,137.192299 C51.1571754,137.229072 51.1613949,137.270919 51.1613949,137.307692 L138.660057,137.307692 Z" id="Stroke-2471" stroke="#80959D" fill="#FFFFFF"></path>
                <path d="M247.703581,137.307692 C247.703581,137.271377 247.708428,137.230054 247.708428,137.191235 C247.708428,129.776744 239.572691,123.764759 229.534353,123.764759 C229.110798,123.764759 228.692088,123.779785 228.27532,123.798569 C227.158765,117.176744 219.516366,112.045081 210.245657,112.045081 C205.887022,112.045081 201.887968,113.183363 198.758316,115.070483 C197.286053,109.278891 192.086121,105 185.898543,105 C179.882516,105 174.802769,109.04848 173.17543,114.599642 C171.312564,113.597853 169.187038,113.023077 166.930665,113.023077 C160.3205,113.023077 154.842399,117.905546 153.824705,124.296959 C152.21481,123.951342 150.515746,123.764759 148.758528,123.764759 C138.719219,123.764759 130.585421,129.776744 130.585421,137.191235 C130.585421,137.230054 130.58736,137.271377 130.58736,137.307692 L247.703581,137.307692 Z" id="Stroke-2473" stroke="#80959D" fill="#FFFFFF"></path>
                <path d="M383.659667,137.307692 C383.67283,137.050502 383.678815,136.792005 383.678815,136.530898 C383.678815,128.753813 377.908911,122.446763 370.78779,122.446763 C368.171528,122.446763 365.743166,123.299279 363.708558,124.757564 C362.042574,117.907411 358.036796,113.076923 353.359594,113.076923 C349.825366,113.076923 346.67412,115.834217 344.627544,120.138573 C342.57738,118.638511 340.109522,117.762496 337.45496,117.762496 C331.846629,117.762496 327.076075,121.67258 325.302378,127.13103 C323.590916,126.221071 321.670007,125.700162 319.634204,125.700162 C313.288628,125.700162 308.013014,130.713424 306.943052,137.307692 L383.659667,137.307692 Z" id="Stroke-2475" stroke="#80959D" fill="#FFFFFF"></path>
                <path d="M480.6082,137.307692 C480.6082,137.273403 480.6082,137.239115 480.6082,137.201016 C480.6082,130.400399 473.879005,124.891328 465.567246,124.891328 C465.218626,124.891328 464.870009,124.906567 464.528577,124.925617 C463.604915,118.850145 457.279449,114.151306 449.60982,114.151306 C446.001429,114.151306 442.691341,115.191401 440.100056,116.923621 C438.879291,111.612663 434.578453,107.692308 429.458179,107.692308 C424.475675,107.692308 420.273076,111.401851 418.924121,116.493106 C417.384684,115.567308 415.627212,115.046625 413.759522,115.046625 C408.290629,115.046625 403.75618,119.518142 402.911587,125.378991 C401.580604,125.062772 400.174144,124.891328 398.719767,124.891328 C390.411603,124.891328 383.678815,130.400399 383.678815,137.201016 C383.678815,137.239115 383.681211,137.273403 383.681211,137.307692 L480.6082,137.307692" id="Fill-2478" stroke="#80959D" fill="#FFFFFF" fill-rule="nonzero"></path>
                <path d="M577.507927,137.307692 C577.52335,136.962784 577.537585,136.620402 577.537585,136.26665 C577.537585,125.899181 570.043553,117.4963 560.797314,117.4963 C557.405604,117.4963 554.246415,118.632098 551.608023,120.577735 C549.447719,111.445872 544.245673,105 538.175234,105 C533.580585,105 529.490129,108.681551 526.835126,114.418655 C524.175381,112.418691 520.97111,111.244992 517.521267,111.244992 C510.244333,111.244992 504.056448,116.460311 501.750227,123.742555 C499.527049,122.52211 497.029829,121.832293 494.390253,121.832293 C486.151205,121.832293 479.303723,128.515684 477.915718,137.307692 L577.507927,137.307692 Z" id="Stroke-2481" stroke="#80959D" fill="#FFFFFF"></path>
                <path d="M665.04328,137.307692 C665.04328,137.270919 665.04328,137.226536 665.04328,137.189763 C665.04328,129.774134 659.246378,123.764787 652.090965,123.764787 C651.791216,123.764787 651.491467,123.774931 651.195224,123.799024 C650.399398,117.169594 644.95308,112.042818 638.344579,112.042818 C635.243666,112.042818 632.395172,113.177734 630.158448,115.067147 C629.110203,109.278442 625.40278,105 620.997697,105 C616.7083,105 613.088525,109.046387 611.924587,114.596696 C610.601132,113.591122 609.08661,113.02303 607.477435,113.02303 C602.770847,113.02303 598.86359,117.903802 598.139638,124.298641 C596.991473,123.953728 595.780206,123.764787 594.528625,123.764787 C587.373212,123.764787 581.57631,129.774134 581.57631,137.189763 C581.57631,137.226536 581.57631,137.270919 581.57631,137.307692 L665.04328,137.307692 Z" id="Stroke-2483" stroke="#80959D" fill="#FFFFFF"></path>
                <path d="M443.668064,108.674064 C441.620974,98.7127798 440.331587,90.1923077 436.216328,90.1923077 C432.101064,90.1923077 431.34336,98.8574957 428.764588,108.674064 C426.398957,117.666767 430.860866,125.242777 434.770013,126.835922 L434.770013,140 L437.661469,140 L437.661469,126.899394 C441.538997,125.613453 445.859203,119.329732 443.668064,108.674064" id="Fill-2494" stroke="#80959D" fill="url(#linearGradient-2)" fill-rule="nonzero"></path>
                <path d="M960.878813,47.0711971 C960.162737,48.3733536 958.522075,48.8427492 957.223366,48.126742 C955.919889,47.4047781 955.448064,45.769041 956.168909,44.4668849 C956.886178,43.1647287 958.52684,42.6953328 959.826742,43.4125315 C961.12545,44.1321127 961.600851,45.769041 960.878813,47.0711971" id="Fill-2500" stroke="#80959D" fill="#F0F5F8" fill-rule="nonzero"></path>
                <path d="M970.523878,29.7296779 C966.161622,38.6291236 961.552127,45.1778454 960.227768,44.3529622 C958.904553,43.5280789 961.367838,35.6432784 965.727801,26.7399598 C970.092346,17.840514 976.025057,12.1153846 976.025057,12.1153846 C976.025057,12.1153846 974.884987,20.8250685 970.523878,29.7296779" id="Fill-2502" stroke="#80959D" fill="url(#linearGradient-2)" fill-rule="nonzero"></path>
                <path d="M938.950871,44.444585 C948.244749,44.2359197 955.801851,45.5691358 955.831348,47.4191127 C955.860846,49.2704902 948.350937,50.9370099 939.054698,51.1442746 C929.76082,51.3501389 922.175399,48.1669458 922.175399,48.1669458 C922.175399,48.1669458 929.65581,44.6490487 938.950871,44.444585" id="Fill-2504" stroke="#80959D" fill="url(#linearGradient-2)" fill-rule="nonzero"></path>
                <path d="M971.173911,62.4229623 C966.432881,53.8951063 961.518112,47.6795895 960.199347,48.5413464 C958.878247,49.4031034 961.652207,57.0148687 966.394402,65.5427248 C971.137765,74.0705804 977.371298,79.4230769 977.371298,79.4230769 C977.371298,79.4230769 975.916107,70.9482909 971.173911,62.4229623" id="Fill-2506" stroke="#80959D" fill="url(#linearGradient-2)" fill-rule="nonzero"></path>
                <polygon id="Fill-2508" stroke="#80959D" fill="url(#linearGradient-1)" fill-rule="nonzero" points="956.506335 137.307692 960.545059 137.307692 960.545059 48.4615385 956.506335 48.4615385"></polygon>
                <path d="M872.354919,137.307692 C872.354919,137.25943 872.364465,137.211167 872.364465,137.161634 C872.364465,127.891347 864.41177,120.377575 854.602449,120.377575 C854.187215,120.377575 853.780331,120.395357 853.368679,120.423298 C852.282863,112.138591 844.815799,105.728516 835.758198,105.728516 C831.503238,105.728516 827.594307,107.145921 824.539709,109.510803 C823.099512,102.271368 818.022435,96.9230769 811.972897,96.9230769 C806.095183,96.9230769 801.135038,101.981791 799.545692,108.920218 C797.723673,107.664112 795.646305,106.952869 793.441265,106.952869 C786.980075,106.952869 781.63214,113.054316 780.638202,121.044366 C779.064369,120.61254 777.40343,120.377575 775.688798,120.377575 C765.885444,120.377575 757.933941,127.891347 757.933941,137.161634 C757.933941,137.211167 757.933941,137.25943 757.933941,137.307692 L872.354919,137.307692 Z" id="Stroke-2511" stroke="#80959D" fill="#FFFFFF"></path>
                <path d="M934.291572,137.307692 C934.291572,137.270919 934.291572,137.226536 934.291572,137.189763 C934.291572,129.774134 929.429552,123.764787 923.428112,123.764787 C923.175232,123.764787 922.925297,123.774931 922.675357,123.799024 C922.012289,117.169594 917.438433,112.042818 911.898643,112.042818 C909.294882,112.042818 906.905773,113.177734 905.032712,115.067147 C904.152048,109.278442 901.042532,105 897.3464,105 C893.748766,105 890.712762,109.046387 889.739475,114.596696 C888.63093,113.591122 887.359187,113.02303 886.006587,113.02303 C882.059044,113.02303 878.784861,117.903802 878.176191,124.298641 C877.214666,123.953728 876.194334,123.764787 875.149008,123.764787 C869.144627,123.764787 864.287016,129.774134 864.287016,137.189763 C864.287016,137.226536 864.289956,137.270919 864.289956,137.307692 L934.291572,137.307692 Z" id="Stroke-2513" stroke="#80959D" fill="#FFFFFF"></path>
                <polygon id="Fill-2520" stroke="#80959D" fill-rule="nonzero" points="411.949886 26.9230769 415.98861 26.9230769 415.98861 21.5384615 411.949886 21.5384615"></polygon>
                <polygon id="Fill-2522" stroke="#80959D" fill-rule="nonzero" points="411.949886 37.6923077 415.98861 37.6923077 415.98861 32.3076923 411.949886 32.3076923"></polygon>
                <path d="M145.236842,106.244844 C145.383624,105.577466 145.467158,104.87083 145.467158,104.136334 C145.467158,100.064947 142.975444,96.7698458 139.898989,96.7698458 C138.758147,96.7698458 137.694873,97.2219409 136.814181,97.996961 C136.818954,97.8538607 136.827308,97.7107607 136.827308,97.5600622 C136.827308,93.4937407 134.3344,90.1923077 131.260332,90.1923077 C128.180297,90.1923077 125.689776,93.4937407 125.689776,97.5600622 C125.689776,97.7107607 125.696937,97.8538607 125.702903,97.996961 C124.819825,97.2219409 123.762517,96.7698458 122.618095,96.7698458 C119.544027,96.7698458 117.047539,100.064947 117.047539,104.136334 C117.047539,104.87083 117.12988,105.577466 117.280242,106.244844 C115.582106,107.504885 114.430524,109.912259 114.430524,112.671684 C114.430524,116.741805 116.923431,120.044504 120.002273,120.044504 C120.202756,120.044504 120.404432,120.026775 120.600141,119.997648 C121.516633,122.405022 123.394966,124.058905 125.571635,124.058905 C127.186237,124.058905 128.63019,123.150915 129.64573,121.702186 L129.64573,140 L132.872547,140 L132.872547,121.704718 C133.885701,123.150915 135.330847,124.058905 136.943063,124.058905 C139.118539,124.058905 140.998064,122.405022 141.918137,119.997648 C142.113846,120.026775 142.314329,120.044504 142.513618,120.044504 C145.591266,120.044504 148.08656,116.741805 148.08656,112.671684 C148.08656,109.912259 146.934978,107.504885 145.236842,106.244844" id="Fill-2528" stroke="#80959D" fill="url(#linearGradient-2)" fill-rule="nonzero"></path>
                <polygon id="Stroke-2371" stroke="#80959D" points="55.1958998 35 60.5808656 35 60.5808656 28.2692308 55.1958998 28.2692308"></polygon>
                <polygon id="Stroke-2373" stroke="#80959D" points="44.4259681 35 49.8109339 35 49.8109339 28.2692308 44.4259681 28.2692308"></polygon>
                <polygon id="Stroke-2377" stroke="#80959D" points="220.783599 55.1923077 224.822323 55.1923077 224.822323 49.8076923 220.783599 49.8076923"></polygon>
                <polygon id="Stroke-2379" stroke="#80959D" points="220.783599 65.9615385 224.822323 65.9615385 224.822323 60.5769231 220.783599 60.5769231"></polygon>
                <polygon id="Stroke-2327" stroke="#80959D" fill="url(#linearGradient-1)" points="1412.20729 137.307692 1427.01595 137.307692 1427.01595 12.1153846 1412.20729 12.1153846"></polygon>
                <polygon id="Fill-2328" stroke="#80959D" fill="url(#linearGradient-1)" fill-rule="nonzero" points="1674.72437 137.307692 1697.61048 137.307692 1697.61048 24.2307692 1674.72437 24.2307692"></polygon>
                <polygon id="Fill-2330" stroke="#80959D" fill-rule="nonzero" points="1686.84055 36.3461538 1690.87927 36.3461538 1690.87927 30.9615385 1686.84055 30.9615385"></polygon>
                <polygon id="Fill-2332" stroke="#80959D" fill-rule="nonzero" points="1686.84055 47.1153846 1690.87927 47.1153846 1690.87927 41.7307692 1686.84055 41.7307692"></polygon>
                <polygon id="Stroke-2335" stroke="#80959D" fill="url(#linearGradient-1)" points="1166.16716 21.8368031 1166.16716 13.4615385 1150.71547 13.4615385 1150.71547 21.8368031 1148.34396 21.8368031 1148.34396 137.307692 1168.53759 137.307692 1168.53759 21.8368031"></polygon>
                <polygon id="Fill-2336" stroke="#80959D" fill-rule="nonzero" points="1156.42141 32.3076923 1160.46014 32.3076923 1160.46014 26.9230769 1156.42141 26.9230769"></polygon>
                <polygon id="Fill-2338" stroke="#80959D" fill-rule="nonzero" points="1156.42141 43.0769231 1160.46014 43.0769231 1160.46014 37.6923077 1156.42141 37.6923077"></polygon>
                <polygon id="Stroke-2365" stroke="#80959D" fill="url(#linearGradient-1)" points="1079.68565 21.5384615 1052.03828 21.5384615 1052.03828 84.2716719 1040.64465 84.2716719 1040.64465 137.307692 1063.43191 137.307692 1063.43191 134.533414 1079.68565 134.533414"></polygon>
                <polygon id="Fill-2366" stroke="#80959D" fill-rule="nonzero" points="1058.14579 35 1063.53075 35 1063.53075 28.2692308 1058.14579 28.2692308"></polygon>
                <polygon id="Fill-2368" stroke="#80959D" fill-rule="nonzero" points="1068.91572 35 1074.30068 35 1074.30068 28.2692308 1068.91572 28.2692308"></polygon>
                <polygon id="Stroke-2375" stroke="#80959D" fill="url(#linearGradient-1)" points="1234.50848 43.791713 1234.50848 37.6923077 1216.99722 37.6923077 1216.99722 43.791713 1214.30979 43.791713 1214.30979 127.884615 1237.1959 127.884615 1237.1959 43.791713"></polygon>
                <polygon id="Stroke-2381" stroke="#80959D" fill="url(#linearGradient-1)" points="1301.62418 120.064249 1301.62418 109.231846 1316.23562 109.231846 1316.23562 98.7927664 1330.85415 98.7927664 1330.85415 88.4792427 1345.47032 88.4792427 1345.47032 77.9094822 1360.08767 77.9094822 1360.08767 67.3076923 1374.70265 67.3076923 1374.70265 77.9094822 1389.32118 77.9094822 1389.32118 137.125764 1316.23562 137.125764 1296.28075 137.307692 1287.00683 137.307692 1287.00683 120.064249"></polygon>
                <polygon id="Stroke-2383" stroke="#80959D" points="1367.78132 95.5769231 1371.82005 95.5769231 1371.82005 90.1923077 1367.78132 90.1923077"></polygon>
                <polygon id="Stroke-2385" stroke="#80959D" points="1377.20501 95.5769231 1381.24374 95.5769231 1381.24374 90.1923077 1377.20501 90.1923077"></polygon>
                <polygon id="Stroke-2387" stroke="#80959D" fill="#FFFFFF" points="1200.65438 113.09865 1200.65438 97.8946879 1178.9227 97.8946879 1178.9227 83.238961 1157.19103 83.238961 1157.19103 68.7630039 1135.45817 68.7630039 1135.45817 53.9236819 1113.7265 53.9236819 1113.7265 39.0384615 1091.99363 39.0384615 1091.99363 53.9236819 1070.26196 53.9236819 1070.26196 137.055249 1178.9227 137.055249 1178.9227 137.307692 1222.38724 137.307692 1222.38724 113.09865"></polygon>
                <polygon id="Stroke-2391" stroke="#80959D" fill="#FFFFFF" points="1044.60524 62.9635323 1044.60524 55.1923077 1017.83667 55.1923077 1017.83667 62.9635323 1005.64237 62.9635323 1005.64237 137.307692 1056.79954 137.307692 1056.79954 62.9635323"></polygon>
                <path d="M1019.09284,137.307692 C1019.09284,137.273403 1019.10478,137.239115 1019.10478,137.201016 C1019.10478,130.402939 1013.12207,124.891328 1005.73025,124.891328 C1005.41977,124.891328 1005.10929,124.906567 1004.81075,124.925617 C1003.98678,118.852685 998.362317,114.151306 991.543692,114.151306 C988.343357,114.151306 985.397379,115.191401 983.093853,116.923621 C982.005978,111.615203 978.181102,107.692308 973.636149,107.692308 C969.20703,107.692308 965.472909,111.404391 964.27159,116.493106 C962.90667,115.567308 961.339937,115.046625 959.678869,115.046625 C954.816271,115.046625 950.788387,119.523222 950.04204,125.382801 C948.855053,125.065312 947.604771,124.891328 946.312696,124.891328 C938.928045,124.891328 932.94533,130.402939 932.94533,137.201016 C932.94533,137.239115 932.94533,137.273403 932.94533,137.307692 L1019.09284,137.307692 Z" id="Stroke-2515" stroke="#80959D" fill="#FFFFFF"></path>
                <polygon id="Stroke-2393" stroke="#80959D" fill="url(#linearGradient-1)" points="1287.21547 9.27934038 1287.21547 0 1262.25919 0 1262.25919 9.27934038 1258.4291 9.27934038 1258.4291 78.0378358 1235.84966 78.0378358 1235.84966 137.307692 1291.04556 137.307692 1291.04556 9.27934038"></polygon>
                <polygon id="Fill-2408" stroke="#80959D" fill-rule="nonzero" points="1012.37358 76.7307692 1019.10478 76.7307692 1019.10478 70 1012.37358 70"></polygon>
                <polygon id="Fill-2410" stroke="#80959D" fill-rule="nonzero" points="1024.48975 76.7307692 1031.22096 76.7307692 1031.22096 70 1024.48975 70"></polygon>
                <polygon id="Fill-2412" stroke="#80959D" fill-rule="nonzero" points="1276.2369 25.5769231 1282.96811 25.5769231 1282.96811 18.8461538 1276.2369 18.8461538"></polygon>
                <polygon id="Fill-2414" stroke="#80959D" fill-rule="nonzero" points="1276.2369 37.6923077 1282.96811 37.6923077 1282.96811 30.9615385 1276.2369 30.9615385"></polygon>
                <polygon id="Fill-2416" stroke="#80959D" fill-rule="nonzero" points="1079.68565 83.4615385 1086.41686 83.4615385 1086.41686 76.7307692 1079.68565 76.7307692"></polygon>
                <polygon id="Fill-2418" stroke="#80959D" fill-rule="nonzero" points="1091.80182 83.4615385 1098.53303 83.4615385 1098.53303 76.7307692 1091.80182 76.7307692"></polygon>
                <polygon id="Fill-2418" stroke="#80959D" fill-rule="nonzero" points="1103.918 83.4615385 1110.6492 83.4615385 1110.6492 76.7307692 1103.918 76.7307692"></polygon>
                <polygon id="Fill-2420" stroke="#80959D" fill-rule="nonzero" points="1079.68565 71.3461538 1086.41686 71.3461538 1086.41686 64.6153846 1079.68565 64.6153846"></polygon>
                <polygon id="Fill-2422" stroke="#80959D" fill-rule="nonzero" points="1079.68565 95.5769231 1086.41686 95.5769231 1086.41686 88.8461538 1079.68565 88.8461538"></polygon>
                <polygon id="Stroke-2425" stroke="#80959D" fill="#FFFFFF" points="1394.70615 137.307692 1428.36219 137.307692 1428.36219 64.6153846 1394.70615 64.6153846"></polygon>
                <polygon id="Stroke-2427" stroke="#80959D" fill="url(#linearGradient-1)" points="1501.28928 9.42307692 1501.28928 73.3672897 1490.75004 73.3672897 1490.75004 9.42307692 1457.9795 9.42307692 1457.9795 137.307692 1490.75004 137.307692 1490.75004 133.389604 1501.28928 133.389604 1501.28928 137.307692 1545.48519 137.307692 1545.48519 9.42307692"></polygon>
                <polyline id="Fill-2428" stroke="#80959D" fill="#FFFFFF" fill-rule="nonzero" points="1596.56543 62.9633336 1596.56543 55.1923077 1569.79686 55.1923077 1569.79686 62.9633336 1557.60137 62.9633336 1557.60137 137.307692 1608.75854 137.307692 1608.75854 62.9633336 1596.56543 62.9633336"></polyline>
                <polygon id="Fill-2430" stroke="#80959D" fill-rule="nonzero" points="1402.7836 80.7692308 1409.51481 80.7692308 1409.51481 74.0384615 1402.7836 74.0384615"></polygon>
                <polygon id="Fill-2432" stroke="#80959D" fill-rule="nonzero" points="1402.7836 92.8846154 1409.51481 92.8846154 1409.51481 86.1538462 1402.7836 86.1538462"></polygon>
                <polygon id="Fill-2434" stroke="#80959D" fill-rule="nonzero" points="1464.71071 22.8846154 1471.44191 22.8846154 1471.44191 16.1538462 1464.71071 16.1538462"></polygon>
                <polygon id="Fill-2436" stroke="#80959D" fill-rule="nonzero" points="1476.82688 22.8846154 1483.55809 22.8846154 1483.55809 16.1538462 1476.82688 16.1538462"></polygon>
                <polygon id="Fill-2438" stroke="#80959D" fill-rule="nonzero" points="1509.13667 22.8846154 1515.86788 22.8846154 1515.86788 16.1538462 1509.13667 16.1538462"></polygon>
                <polygon id="Fill-2440" stroke="#80959D" fill-rule="nonzero" points="1509.13667 35 1515.86788 35 1515.86788 28.2692308 1509.13667 28.2692308"></polygon>
                <polygon id="Fill-2442" stroke="#80959D" fill-rule="nonzero" points="1564.33257 76.7307692 1571.06378 76.7307692 1571.06378 70 1564.33257 70"></polygon>
                <polygon id="Fill-2442" stroke="#80959D" fill-rule="nonzero" points="1564.33257 88.8461538 1571.06378 88.8461538 1571.06378 82.1153846 1564.33257 82.1153846"></polygon>
                <polygon id="Fill-2444" fill="#FFFFFE" fill-rule="nonzero" points="1576.44875 88.8461538 1583.17995 88.8461538 1583.17995 82.1153846 1576.44875 82.1153846"></polygon>
                <polygon id="Fill-2458" stroke="#80959D" fill="#FFFFFF" fill-rule="nonzero" points="1751.26816 102.215361 1729.53751 102.215361 1729.53751 89.1668588 1707.80567 89.1668588 1707.80567 76.2760579 1686.07263 76.2760579 1686.07263 63.0622236 1664.34079 63.0622236 1664.34079 49.8076923 1642.60775 49.8076923 1642.60775 63.0622236 1620.87472 63.0622236 1620.79664 137.307692 1729.58612 137.307692 1773 137.307692 1773 115.7535 1751.26816 115.7535"></polygon>
                <polygon id="Stroke-2461" stroke="#80959D" points="1630.29841 91.5384615 1637.02961 91.5384615 1637.02961 84.8076923 1630.29841 84.8076923"></polygon>
                <polygon id="Fill-2462" stroke="#80959D" fill-rule="nonzero" points="1642.41458 91.5384615 1649.14579 91.5384615 1649.14579 84.8076923 1642.41458 84.8076923"></polygon>
                <polygon id="Fill-2464" stroke="#80959D" fill-rule="nonzero" points="1630.29841 79.4230769 1637.02961 79.4230769 1637.02961 72.6923077 1630.29841 72.6923077"></polygon>
                <path d="M1144.30243,137.307692 C1144.30243,137.270919 1144.30524,137.229072 1144.30524,137.192299 C1144.30524,129.77667 1138.22662,123.76225 1130.72468,123.76225 C1130.41105,123.76225 1130.09882,123.777467 1129.788,123.799024 C1128.95539,117.173399 1123.24103,112.046622 1116.31574,112.046622 C1113.06124,112.046622 1110.07538,113.18027 1107.73366,115.069683 C1106.63664,109.278442 1102.74784,105 1098.12769,105 C1093.63272,105 1089.83675,109.048923 1088.62018,114.596696 C1087.23062,113.591122 1085.64275,113.02303 1083.95362,113.02303 C1079.01844,113.02303 1074.9243,117.903802 1074.16482,124.298641 C1072.96091,123.953728 1071.69231,123.76225 1070.37869,123.76225 C1062.87957,123.76225 1056.79954,129.77667 1056.79954,137.192299 C1056.79954,137.229072 1056.80376,137.270919 1056.80376,137.307692 L1144.30243,137.307692 Z" id="Stroke-2471" stroke="#80959D" fill="#FFFFFF"></path>
                <path d="M1253.34595,137.307692 C1253.34595,137.271377 1253.3508,137.230054 1253.3508,137.191235 C1253.3508,129.776744 1245.21506,123.764759 1235.17672,123.764759 C1234.75317,123.764759 1234.33446,123.779785 1233.91769,123.798569 C1232.80113,117.176744 1225.15873,112.045081 1215.88803,112.045081 C1211.52939,112.045081 1207.53034,113.183363 1204.40069,115.070483 C1202.92842,109.278891 1197.72849,105 1191.54091,105 C1185.52489,105 1180.44514,109.04848 1178.8178,114.599642 C1176.95493,113.597853 1174.82941,113.023077 1172.57303,113.023077 C1165.96287,113.023077 1160.48477,117.905546 1159.46707,124.296959 C1157.85718,123.951342 1156.15812,123.764759 1154.4009,123.764759 C1144.36159,123.764759 1136.22779,129.776744 1136.22779,137.191235 C1136.22779,137.230054 1136.22973,137.271377 1136.22973,137.307692 L1253.34595,137.307692 Z" id="Stroke-2473" stroke="#80959D" fill="#FFFFFF"></path>
                <path d="M1389.30204,137.307692 C1389.3152,137.050502 1389.32118,136.792005 1389.32118,136.530898 C1389.32118,128.753813 1383.55128,122.446763 1376.43016,122.446763 C1373.8139,122.446763 1371.38553,123.299279 1369.35093,124.757564 C1367.68494,117.907411 1363.67916,113.076923 1359.00196,113.076923 C1355.46773,113.076923 1352.31649,115.834217 1350.26991,120.138573 C1348.21975,118.638511 1345.75189,117.762496 1343.09733,117.762496 C1337.489,117.762496 1332.71844,121.67258 1330.94475,127.13103 C1329.23329,126.221071 1327.31238,125.700162 1325.27657,125.700162 C1318.931,125.700162 1313.65538,130.713424 1312.58542,137.307692 L1389.30204,137.307692 Z" id="Stroke-2475" stroke="#80959D" fill="#FFFFFF"></path>
                <path d="M1486.25057,137.307692 C1486.25057,137.273403 1486.25057,137.239115 1486.25057,137.201016 C1486.25057,130.400399 1479.52137,124.891328 1471.20961,124.891328 C1470.86099,124.891328 1470.51238,124.906567 1470.17095,124.925617 C1469.24728,118.850145 1462.92182,114.151306 1455.25219,114.151306 C1451.6438,114.151306 1448.33371,115.191401 1445.74242,116.923621 C1444.52166,111.612663 1440.22082,107.692308 1435.10055,107.692308 C1430.11804,107.692308 1425.91544,111.401851 1424.56649,116.493106 C1423.02705,115.567308 1421.26958,115.046625 1419.40189,115.046625 C1413.933,115.046625 1409.39855,119.518142 1408.55396,125.378991 C1407.22297,125.062772 1405.81651,124.891328 1404.36214,124.891328 C1396.05397,124.891328 1389.32118,130.400399 1389.32118,137.201016 C1389.32118,137.239115 1389.32358,137.273403 1389.32358,137.307692 L1486.25057,137.307692" id="Fill-2478" stroke="#80959D" fill="#FFFFFF" fill-rule="nonzero"></path>
                <path d="M1583.1503,137.307692 C1583.16572,136.962784 1583.17995,136.620402 1583.17995,136.26665 C1583.17995,125.899181 1575.68592,117.4963 1566.43968,117.4963 C1563.04797,117.4963 1559.88878,118.632098 1557.25039,120.577735 C1555.09009,111.445872 1549.88804,105 1543.8176,105 C1539.22295,105 1535.1325,108.681551 1532.4775,114.418655 C1529.81775,112.418691 1526.61348,111.244992 1523.16364,111.244992 C1515.8867,111.244992 1509.69882,116.460311 1507.3926,123.742555 C1505.16942,122.52211 1502.6722,121.832293 1500.03262,121.832293 C1491.79357,121.832293 1484.94609,128.515684 1483.55809,137.307692 L1583.1503,137.307692 Z" id="Stroke-2481" stroke="#80959D" fill="#FFFFFF"></path>
                <path d="M1670.68565,137.307692 C1670.68565,137.270919 1670.68565,137.226536 1670.68565,137.189763 C1670.68565,129.774134 1664.88875,123.764787 1657.73333,123.764787 C1657.43359,123.764787 1657.13384,123.774931 1656.83759,123.799024 C1656.04177,117.169594 1650.59545,112.042818 1643.98695,112.042818 C1640.88603,112.042818 1638.03754,113.177734 1635.80082,115.067147 C1634.75257,109.278442 1631.04515,105 1626.64007,105 C1622.35067,105 1618.73089,109.046387 1617.56696,114.596696 C1616.2435,113.591122 1614.72898,113.02303 1613.1198,113.02303 C1608.41322,113.02303 1604.50596,117.903802 1603.78201,124.298641 C1602.63384,123.953728 1601.42257,123.764787 1600.17099,123.764787 C1593.01558,123.764787 1587.21868,129.774134 1587.21868,137.189763 C1587.21868,137.226536 1587.21868,137.270919 1587.21868,137.307692 L1670.68565,137.307692 Z" id="Stroke-2483" stroke="#80959D" fill="#FFFFFF"></path>
                <path d="M1592.11063,113.670695 C1590.40472,105.369624 1589.33023,98.2692308 1585.90085,98.2692308 C1582.47146,98.2692308 1581.84004,105.490221 1579.69107,113.670695 C1577.71971,121.164614 1581.43797,127.477955 1584.69559,128.805576 L1584.69559,139.775641 L1587.10513,139.775641 L1587.10513,128.858469 C1590.33641,127.786852 1593.93658,122.550417 1592.11063,113.670695" id="Fill-2494" stroke="#80959D" fill="url(#linearGradient-2)" fill-rule="nonzero"></path>
                <polygon id="Fill-2520" stroke="#80959D" fill-rule="nonzero" points="1417.59226 22.8846154 1421.63098 22.8846154 1421.63098 17.5 1417.59226 17.5"></polygon>
                <polygon id="Fill-2522" stroke="#80959D" fill-rule="nonzero" points="1417.59226 33.6538462 1421.63098 33.6538462 1421.63098 28.2692308 1417.59226 28.2692308"></polygon>
                <path d="M1231.44734,115.367859 C1231.53541,114.880853 1231.58553,114.3652 1231.58553,113.829217 C1231.58553,110.858204 1230.09051,108.453671 1228.24463,108.453671 C1227.56013,108.453671 1226.92216,108.783578 1226.39375,109.349134 C1226.39661,109.244709 1226.40162,109.140285 1226.40162,109.030316 C1226.40162,106.063 1224.90588,103.653846 1223.06144,103.653846 C1221.21342,103.653846 1219.71911,106.063 1219.71911,109.030316 C1219.71911,109.140285 1219.7234,109.244709 1219.72698,109.349134 C1219.19713,108.783578 1218.56275,108.453671 1217.8761,108.453671 C1216.03166,108.453671 1214.53376,110.858204 1214.53376,113.829217 C1214.53376,114.3652 1214.58317,114.880853 1214.67338,115.367859 C1213.6545,116.287348 1212.96355,118.044081 1212.96355,120.057715 C1212.96355,123.027804 1214.4593,125.437881 1216.3066,125.437881 C1216.42689,125.437881 1216.5479,125.424944 1216.66532,125.403689 C1217.21522,127.160422 1218.34222,128.367309 1219.64822,128.367309 C1220.61698,128.367309 1221.48335,127.704722 1222.09268,126.647541 L1222.09268,140 L1224.02877,140 L1224.02877,126.649389 C1224.63666,127.704722 1225.50375,128.367309 1226.47108,128.367309 C1227.77636,128.367309 1228.90408,127.160422 1229.45612,125.403689 C1229.57355,125.424944 1229.69384,125.437881 1229.81341,125.437881 C1231.66,125.437881 1233.15718,123.027804 1233.15718,120.057715 C1233.15718,118.044081 1232.46623,116.287348 1231.44734,115.367859" id="Fill-2528" stroke="#80959D" fill="url(#linearGradient-2)" fill-rule="nonzero"></path>
                <polygon id="Stroke-2377" stroke="#80959D" points="1223.73349 55.1923077 1227.77221 55.1923077 1227.77221 49.8076923 1223.73349 49.8076923"></polygon>
                <polygon id="Stroke-2379" stroke="#80959D" points="1223.73349 65.9615385 1227.77221 65.9615385 1227.77221 60.5769231 1223.73349 60.5769231"></polygon>
            </g>
        </g>
    </g>
</svg>