<svg xmlns="http://www.w3.org/2000/svg" width="24" height="24" viewBox="0 0 24 24">
    <g fill="none" fill-rule="evenodd">
        <path d="M-3-3h30v30H-3z" opacity=".05"/>
        <g stroke="#80959D">
            <path d="M11.988 16.21c.72.192.654.192 1.046-.32.196-.255 0-1.087.131-1.343.196-.384.523-.767.196-1.023-.392-.384-.196-.384-1.242-.32-.13 0-.785-.256-.915-.512l-.131-.384c-.196-.512-.654-.064-.915-.448-.85-1.087-.327-.256-1.57-.895-.457-.256-.718.447-1.241 1.28-.197.319-.589.191-.589.639 0 1.023-.13.832.654 1.407.327.256 0 .64.327.896.98.576.719.192 1.111 2.239 0 .128-.13.576-.196.768-.13.448.523.448.392.895-.196.896-.327.576.916 1.856a.5.5 0 0 0 .261.128c.654 0 .588-.32.588-1.088 0-.192-.261-.512-.392-.704a.411.411 0 0 1 .13-.575c.655-.32.393-.128 1.374-1.408.13-.256.065-.896.065-1.087z"/>
            <path d="M23.25 11.911C23.25 5.747 18.214.75 12 .75S.75 5.747.75 11.911c0 6.165 5.036 11.162 11.25 11.162s11.25-4.997 11.25-11.162zm-22.473.031c0-1.35.287-2.63.717-3.84L2.14 9.81c.072.142.144.213.215.284 2.15 1.138 1.936 1.21 2.51-.782.143-.569.86-.427 1.791-.427.215 0 1.434-.71 1.649-.782.502-.284.072-.711.502-.996 2.078-1.422 1.433-1.137 3.082-1.564.287-.071.502-.427.358-.711-.143-.356.215-.854.43-1.28.359-.712-.716-.925-2.007-1.494-.143-.071-1.29-.142-1.505.071-1.434 1.067-.86.996-3.01.356a11.375 11.375 0 0 1 5.95-1.707c2.795 0 5.375.996 7.31 2.702-.501.285-.358.57-.071.996.143.285.072.64-.215.782l-.215.072c-.359.213-.359.71-.072.924l.502.356.072.07c1.362.57 1.863.996 2.293.57.072-.143.216-.143.359-.143.215.427.358.783.502 1.28-.645-.284-.645-.213-1.076.285-.286.284-.645.071-1.075 0-.215-.071-.358-.213-.358-.427 0-.782-1.004-.355-1.792-.142h-.144c-.573 0-1.29-.142-1.362.356-.143.782 0 .497-1.29 1.422-.358.213-.215.64 0 2.062 0 .143.072.214.143.285 1.506 1.28.932 1.209 2.724.64.574-.142.502.427 1.004.427h.43c0 1.564-.072 1.28.502 2.062.43.569-.645 1.209-.072 1.707.287.213.215.355.144.711-.144.64.573.427.573 1.067a11.234 11.234 0 0 1-8.96 4.409C5.795 23.108.777 18.13.777 11.942z"/>
        </g>
    </g>
</svg>
