<?xml version="1.0" encoding="UTF-8"?>
<svg width="100px" height="100px" viewBox="0 0 100 100" version="1.1" xmlns="http://www.w3.org/2000/svg" xmlns:xlink="http://www.w3.org/1999/xlink">
    <!-- Generator: Sketch 48.1 (47250) - http://www.bohemiancoding.com/sketch -->
    <title>vehicle</title>
    <desc>Created with Sketch.</desc>
    <defs></defs>
    <g id="Page-1" stroke="none" stroke-width="1" fill="none" fill-rule="evenodd">
        <g id="vehicle">
            <g id="Group">
                <g id="header/assets/logo/1024minus" transform="translate(1.000000, 33.000000)" fill-rule="nonzero">
                    <path d="M78.7609417,42.4075487 C80.3369742,42.4075487 81.6079356,41.1245053 81.6079356,39.5335225 C81.6079356,37.9425388 80.3369742,36.6594844 78.7609417,36.6594844 C77.1933555,36.6594844 75.9223942,37.9425388 75.9223942,39.5335216 C75.9223942,41.1245044 77.1933555,42.4075487 78.7609417,42.4075487 M72.2131893,39.5335208 C72.2131893,35.8746797 75.155571,32.9215308 78.763034,32.9215308 C82.3832823,32.9215308 85.3298483,35.8746875 85.3298483,39.5335231 C85.3298483,43.196626 82.3832823,46.1455032 78.763034,46.1455024 C75.1534015,46.1455015 72.2131893,43.1966234 72.2131893,39.5335208" id="Fill-1" fill="#80959D"></path>
                    <path d="M37.6865424,42.2792362 C39.2625749,42.279237 40.5336137,40.9961803 40.5336137,39.4051975 C40.5336137,37.8142139 39.2625749,36.5311673 37.6865424,36.5311673 C36.1190339,36.5311673 34.8395487,37.8142139 34.8395487,39.4051958 C34.8395487,40.9961795 36.1168642,42.2792362 37.6865424,42.2792362 M31.1282516,39.405195 C31.1282516,35.7420917 34.0790797,32.7932136 37.6865424,32.7932136 C41.3067909,32.7932214 44.2449108,35.7420995 44.2449108,39.4051981 C44.2449108,43.0640369 41.3067909,46.0171907 37.6865424,46.0171898 C34.0790797,46.017189 31.1282516,43.0640346 31.1282516,39.405195" id="Fill-2" fill="#80959D"></path>
                    <path d="M0.352033388,0 L25.3488723,0.125548081 L25.3780079,0.122575603 L25.3779304,0.122575603 L25.3780079,0.12249738 L25.3780079,0.122575603 L59.0494176,0.123592504 C61.3216039,0.168054516 63.6707359,0.352989576 65.8047608,1.20994714 C70.2214329,3.70234643 73.1549808,7.93504549 73.5855053,13.0353405 C74.7195451,13.0334162 75.4332889,13.0353639 76.5696531,13.0353639 C77.1098234,13.0353639 78.1630428,13.5215049 78.62495,14.0997457 L85.0029257,23.4099847 L88.3499507,24.536945 C89.7186246,25.0437445 90.7117134,26.5499461 90.7121783,27.9498502 L91.2428949,31.8750542 L91.9571812,31.8750542 C92.5969236,31.88484 92.7392694,32.5592483 92.7842126,33.0715628 L92.7835152,35.7850362 C92.7839027,36.9761159 91.9064263,37.9405441 90.7117134,37.9405363 L87.2032031,37.9406303 C86.4800058,33.7146973 82.8733952,31.0676276 78.7748122,30.859296 C74.5931618,30.9268024 71.1981717,33.8400107 70.3681955,37.9405988 L46.0157483,37.9406303 C45.3195169,33.7295832 41.7986085,31.0673537 37.7009553,30.859296 C33.5040398,30.923298 30.2146659,33.8571886 29.3867045,37.9405988 L26.5109627,37.9406303 L26.5109627,37.9405519 L20.277425,37.9405519 C19.1063459,37.9405285 18.1424703,36.9761003 18.1424703,35.7849969 L18.1421603,30.8534605 L19.9294255,30.8534605 L19.9294255,17.8344765 L7.19594562,14.908776 L19.9294255,14.9727625 L19.9294255,11.5207769 L4.09974987,7.8837155 L19.9294255,7.96319016 L19.9294255,5.77020546 C19.9223741,5.5721211 19.9267134,5.72792587 19.9359345,5.30266598 L19.9359345,4.49962759 L0.352033388,0 Z M75.2422803,15.3946197 L65.3368096,15.3946197 L66.3803432,21.8925346 C66.3804981,22.7582298 67.3453037,23.4600083 68.5353672,23.4600317 L82.4479074,23.4600317 L78.0946983,16.9622107 C77.584516,16.2528914 76.7877823,15.3947135 75.2422803,15.3947527 L75.2422803,15.3946197 Z" id="Fill-3" fill="#2A5C57"></path>
                    <path d="M23.6986836,14.397103 C23.3776501,8.21230728 28.0839731,3.19853489 34.2107321,3.19853489 C40.3374137,3.19853489 45.5643797,8.21230728 45.8854132,14.397103 C46.2065244,20.5819066 41.500124,25.5956789 35.3734425,25.5956789 C29.2467609,25.5956789 24.0197949,20.5819066 23.6986836,14.397103 Z" id="Fill-4" fill="#FFFFFF"></path>
                </g>
                <rect id="Rectangle" fill="#D8D8D8" opacity="0" x="0" y="0" width="100" height="100"></rect>
            </g>
        </g>
    </g>
</svg>