<?xml version="1.0" encoding="UTF-8"?>
<svg width="133px" height="41px" viewBox="0 0 133 41" version="1.1" xmlns="http://www.w3.org/2000/svg" xmlns:xlink="http://www.w3.org/1999/xlink">
    <!-- Generator: Sketch 48.2 (47327) - http://www.bohemiancoding.com/sketch -->
    <title>logo</title>
    <desc>Created with Sketch.</desc>
    <defs></defs>
    <g id="Page-1" stroke="none" stroke-width="1" fill="none" fill-rule="evenodd">
        <g id="logo">
            <g id="Group-3" transform="translate(6.000000, 9.000000)">
                <g id="Group" fill="#2A5C57" fill-rule="nonzero">
                    <path d="M1.77353364,6.1567547 C0.801229931,6.15708105 0.147221094,6.15750994 0,6.15804455 L2.78777195e-05,18.7812979 C2.78777195e-05,20.1944922 1.30559152,21.3427225 2.67482357,21.3400825 C5.6546643,20.7594605 11.324298,20.72058 14.3582456,21.3401091 C15.8882932,21.3374957 17.0330414,20.1944922 17.0329856,18.7812179 L17.0330414,6.15812449 C16.9494694,6.15781018 16.6761726,6.15752903 16.2560818,6.15728182 C16.2140895,8.31600807 15.2605256,10.4853872 13.7079993,11.8349109 C13.7003829,11.8415313 13.6927514,11.8481293 13.6851046,11.8547049 L13.6851046,14.5663726 L5.71937218,14.5465095 C5.71937218,14.5465095 5.02779895,14.5531305 3.64465258,14.5663726 C2.99091654,14.5133336 2.61383442,14.1099792 2.5134063,13.3563093 C2.5134063,13.3563093 2.5142538,12.5026705 2.5159488,10.7953928 C2.5159488,10.7953928 1.9794318,10.5127357 0.906397793,9.94742154 C0.681246777,9.88354164 0.646887971,9.71254199 0.803321288,9.43442252 L1.81000271,7.00815643 C1.80052139,6.85345699 1.78029236,6.45530863 1.77353364,6.1567547 Z" id="Combined-Shape"></path>
                    <path d="M12.8921692,11.347692 L12.903677,14.7074225 C12.9163271,14.7074225 10.631732,14.7074225 6.04989175,14.7074225 L6.04144708,13.852812 C6.04144708,13.852812 5.39565839,13.8585532 4.10408101,13.8700357 C3.53721352,13.8240445 3.25989986,13.4659806 3.27214003,12.7958442 C3.25016887,12.8492186 3.25016887,12.0763141 3.27214003,10.4771303 C3.27214003,10.4771303 2.80691559,10.2320328 1.87646654,9.74183769 C1.58361716,9.65875048 1.75399321,9.36792053 1.87646654,9.00199969 C1.94171966,8.80703936 2.19819222,8.19827448 2.6458843,7.17570487 C2.60455316,6.89650704 2.58309629,6.612926 2.58309629,6.32651822 C2.58309629,2.92667353 5.56355385,0.170554921 8.96339855,0.170554921 C12.3632432,0.170554921 15.4775584,2.92403561 15.4775584,6.32388022 C15.4775584,8.30479762 14.4349326,10.1513836 12.8921692,11.347692 Z M8.42731853,1.73266737 C7.68235498,1.73373094 8.00425039,1.69873614 7.45700275,1.79106134 C6.49972883,2.09242186 5.92560724,2.855175 5.95310233,3.78192925 C3.9805157,3.98045827 4.09653687,6.8039393 5.81387686,6.8039393 C5.81387686,6.8039393 11.5921856,6.8039393 12.6831804,6.8039393 C14.2607867,6.8039393 14.5799721,3.87018166 12.2781787,3.80400532 C12.4038261,2.57506038 10.7927965,1.7243402 9.73587424,2.48050426 C9.33801459,2.00014855 9.02419264,1.90509942 8.42731853,1.73266737 Z" id="Combined-Shape"></path>
                </g>
                <path d="M34.0581731,20.0728591 L23,20.0728591 L23,18.0299429 L30.1247972,7.81536208 L23.1931115,7.81536208 L23.1931115,5.213439 L33.8650616,5.213439 L33.8650616,7.24619141 L26.7504282,17.470936 L34.0581731,17.470936 L34.0581731,20.0728591 Z M38.2619051,14.3709886 C38.2619051,15.4957839 38.4465449,16.3461435 38.8158301,16.9220928 C39.1851153,17.4980422 39.7864652,17.7860126 40.6198979,17.7860126 C41.4465546,17.7860126 42.0411288,17.4997362 42.4036381,16.9271747 C42.7661474,16.3546133 42.9473994,15.5025597 42.9473994,14.3709886 C42.9473994,13.2461933 42.7644535,12.4026095 42.3985562,11.8402118 C42.032659,11.2778142 41.433003,10.9966196 40.5995703,10.9966196 C39.7729136,10.9966196 39.1766455,11.2761203 38.8107482,11.83513 C38.444851,12.3941397 38.2619051,13.2394174 38.2619051,14.3709886 Z M46.1184931,14.3709886 C46.1184931,16.2208025 45.6306374,17.6674302 44.6549114,18.710915 C43.6791854,19.7543997 42.3206428,20.2761343 40.5792428,20.2761343 C39.4883269,20.2761343 38.5261671,20.0372883 37.6927344,19.5595891 C36.8593018,19.0818899 36.2189912,18.3958428 35.7717834,17.5014273 C35.3245756,16.6070118 35.1009751,15.5635426 35.1009751,14.3709886 C35.1009751,12.5143988 35.5854429,11.071159 36.5543931,10.041226 C37.5233432,9.01129293 38.8852737,8.49633413 40.6402254,8.49633413 C41.7311413,8.49633413 42.6933012,8.73348621 43.5267338,9.20779748 C44.3601665,9.68210874 45.0004771,10.363074 45.4476848,11.2507136 C45.8948926,12.1383533 46.1184931,13.1784345 46.1184931,14.3709886 Z M54.5300226,20.2761343 C53.1951752,20.2761343 52.1483182,19.7916665 51.3894201,18.8227163 L51.2267999,18.8227163 C51.335214,19.7713389 51.3894201,20.3201765 51.3894201,20.4692458 L51.3894201,25.07343 L48.2894727,25.07343 L48.2894727,8.70977314 L50.8100857,8.70977314 L51.2471275,10.1835186 L51.3894201,10.1835186 C52.1144388,9.05872334 53.1883989,8.49633413 54.6113327,8.49633413 C55.952956,8.49633413 57.0032009,9.01468081 57.7620989,10.0513897 C58.520997,11.0880986 58.9004403,12.5279505 58.9004403,14.3709886 C58.9004403,15.5838702 58.7225762,16.637503 58.3668428,17.5319186 C58.0111093,18.4263341 57.5046202,19.1072993 56.8473603,19.5748347 C56.1901004,20.0423701 55.4176623,20.2761343 54.5300226,20.2761343 Z M53.615284,10.9762921 C52.8496101,10.9762921 52.2906088,11.2117502 51.9382633,11.6826735 C51.5859178,12.1535969 51.4029719,12.9311169 51.3894201,14.0152569 L51.3894201,14.3506611 C51.3894201,15.5703186 51.5706721,16.4443934 51.9331814,16.9729117 C52.2956907,17.5014299 52.8699375,17.7656851 53.6559391,17.7656851 C55.0449935,17.7656851 55.7395103,16.6205794 55.7395103,14.3303335 C55.7395103,13.2123141 55.568422,12.3738121 55.2262403,11.8148024 C54.8840586,11.2557927 54.3470785,10.9762921 53.615284,10.9762921 Z M70.0866768,15.9463717 C70.0866768,17.287995 69.6039029,18.3450157 68.6383407,19.1174654 C67.6727785,19.8899152 66.3294814,20.2761343 64.6084091,20.2761343 C63.0228543,20.2761343 61.6202691,19.9780003 60.4006116,19.3817233 L60.4006116,16.4545598 C61.4034411,16.9017676 62.2521068,17.216841 62.946634,17.3997897 C63.6411612,17.5827383 64.27639,17.6742112 64.8523393,17.6742112 C65.5434786,17.6742112 66.0736829,17.5420837 66.4429681,17.2778245 C66.8122533,17.0135654 66.9968931,16.6205705 66.9968931,16.0988281 C66.9968931,15.8074655 66.9155838,15.5482922 66.7529628,15.3213003 C66.5903418,15.0943085 66.3514958,14.8757898 66.0364176,14.6657377 C65.7213394,14.4556855 65.0793349,14.1202848 64.1103847,13.6595252 C63.2024174,13.2326451 62.5214522,12.8227108 62.0674686,12.42971 C61.6134849,12.0367093 61.250981,11.5793446 60.979946,11.0576022 C60.708911,10.5358598 60.5733955,9.92604015 60.5733955,9.228125 C60.5733955,7.91360521 61.0189026,6.88029973 61.9099302,6.12817758 C62.8009578,5.37605543 64.0324547,5 65.6044577,5 C66.3769075,5 67.1137729,5.09147294 67.815076,5.27442157 C68.5163791,5.45737021 69.2498565,5.7148496 70.0155305,6.04686749 L68.9991542,8.49633413 C68.2063768,8.17109212 67.5508208,7.94410371 67.0324663,7.81536208 C66.5141118,7.68662045 66.0042349,7.6222506 65.5028201,7.6222506 C64.9065431,7.6222506 64.4491784,7.76115396 64.1307122,8.03896484 C63.8122461,8.31677573 63.6530154,8.67927961 63.6530154,9.12648738 C63.6530154,9.40429826 63.7173853,9.64653217 63.8461269,9.85319636 C63.9748685,10.0598606 64.1798357,10.2597459 64.4610345,10.4528583 C64.7422333,10.6459708 65.4079531,10.9932292 66.4582137,11.4946439 C67.8472682,12.1586797 68.7992644,12.8243995 69.3142309,13.4918232 C69.8291974,14.1592469 70.0866768,14.9774215 70.0866768,15.9463717 Z M82.3197808,20.0728591 L79.2198334,20.0728591 L79.2198334,13.4359225 C79.2198334,12.6160416 79.082624,12.0011401 78.808201,11.5911997 C78.5337781,11.1812592 78.1018225,10.9762921 77.5123213,10.9762921 C76.7195439,10.9762921 76.1436032,11.2676503 75.7844818,11.8503756 C75.4253604,12.4331009 75.2458024,13.3918728 75.2458024,14.7267203 L75.2458024,20.0728591 L72.145855,20.0728591 L72.145855,8.70977314 L74.5140116,8.70977314 L74.9307258,10.1631911 L75.1035098,10.1631911 C75.4084241,9.64144871 75.8488494,9.23320835 76.4247988,8.93845778 C77.0007482,8.64370721 77.6613861,8.49633413 78.4067324,8.49633413 C80.1074771,8.49633413 81.2593586,9.05194757 81.8624115,10.1631911 L82.1368331,10.1631911 C82.4417475,9.63467284 82.8906425,9.22473854 83.4835315,8.9333759 C84.0764206,8.64201327 84.7455283,8.49633413 85.4908745,8.49633413 C86.7782908,8.49633413 87.7523083,8.8266531 88.4129561,9.48730093 C89.0736039,10.1479488 89.4039229,11.2066634 89.4039229,12.6634766 L89.4039229,20.0728591 L86.2938117,20.0728591 L86.2938117,13.4359225 C86.2938117,12.6160416 86.1566023,12.0011401 85.8821794,11.5911997 C85.6077564,11.1812592 85.1758009,10.9762921 84.5862997,10.9762921 C83.8274017,10.9762921 83.2599307,11.247323 82.8838696,11.789393 C82.5078085,12.331463 82.3197808,13.1919863 82.3197808,14.3709886 L82.3197808,20.0728591 Z M99.411163,20.0728591 L98.8115011,18.5279672 L98.730191,18.5279672 C98.2084486,19.1852271 97.6714685,19.6408979 97.1192347,19.8949932 C96.5670009,20.1490886 95.8470749,20.2761343 94.9594353,20.2761343 C93.8685194,20.2761343 93.0096901,19.9644487 92.3829216,19.3410682 C91.7561531,18.7176877 91.4427736,17.8300613 91.4427736,16.6781626 C91.4427736,15.4720568 91.8645655,14.5827365 92.708162,14.010175 C93.5517584,13.4376136 94.8239099,13.1208462 96.5246546,13.0598633 L98.4964244,12.9988807 L98.4964244,12.5008564 C98.4964244,11.3489576 97.9069321,10.7730168 96.7279299,10.7730168 C95.8199626,10.7730168 94.7527782,11.0474357 93.5263448,11.5962816 L92.4998049,9.50254657 C93.8075488,8.81818318 95.2575643,8.47600661 96.849895,8.47600661 C98.3744669,8.47600661 99.5432879,8.80801952 100.356393,9.47205529 C101.169498,10.1360911 101.576044,11.1456813 101.576044,12.5008564 L101.576044,20.0728591 L99.411163,20.0728591 Z M98.4964244,14.8080303 L97.2971005,14.8486854 C96.3959091,14.8757889 95.7251075,15.0384075 95.2846756,15.336546 C94.8442438,15.6346845 94.6240311,16.0886613 94.6240311,16.6984901 C94.6240311,17.572578 95.1254384,18.0096154 96.1282679,18.0096154 C96.8465107,18.0096154 97.4207575,17.8029543 97.8510256,17.3896259 C98.2812936,16.9762975 98.4964244,16.4274599 98.4964244,15.7430965 L98.4964244,14.8080303 Z M110.719365,8.49633413 C111.139469,8.49633413 111.488421,8.52682512 111.766232,8.58780799 L111.532466,11.4946439 C111.281758,11.4268852 110.976848,11.3930063 110.617727,11.3930063 C109.628449,11.3930063 108.857705,11.6470978 108.305471,12.1552885 C107.753237,12.6634791 107.477125,13.3749353 107.477125,14.2896785 L107.477125,20.0728591 L104.377177,20.0728591 L104.377177,8.70977314 L106.725006,8.70977314 L107.182376,10.6205604 L107.334832,10.6205604 C107.687177,9.98362813 108.163176,9.47036328 108.76284,9.08075045 C109.362505,8.69113763 110.014674,8.49633413 110.719365,8.49633413 Z M118.226319,17.8063401 C118.768389,17.8063401 119.418864,17.6877641 120.177762,17.4506085 L120.177762,19.7577825 C119.405312,20.1033521 118.456704,20.2761343 117.331908,20.2761343 C116.091923,20.2761343 115.189051,19.9627548 114.623266,19.3359863 C114.05748,18.7092179 113.774592,17.7690793 113.774592,16.5155424 L113.774592,11.0372746 L112.290682,11.0372746 L112.290682,9.72614934 L113.998194,8.68944561 L114.892605,6.29079778 L116.874539,6.29079778 L116.874539,8.70977314 L120.055797,8.70977314 L120.055797,11.0372746 L116.874539,11.0372746 L116.874539,16.5155424 C116.874539,16.9559743 116.998197,17.2812114 117.245516,17.4912635 C117.492836,17.7013157 117.819767,17.8063401 118.226319,17.8063401 Z" id="ZopSmart" fill="#80959D"></path>
            </g>
        </g>
    </g>
</svg>