<?xml version="1.0" encoding="UTF-8"?>
<svg width="40px" height="40px" viewBox="0 0 40 40" version="1.1" xmlns="http://www.w3.org/2000/svg" xmlns:xlink="http://www.w3.org/1999/xlink">
    <!-- Generator: Sketch 48.2 (47327) - http://www.bohemiancoding.com/sketch -->
    <title>bike</title>
    <desc>Created with Sketch.</desc>
    <defs></defs>
    <g id="icons" stroke="none" stroke-width="1" fill="none" fill-rule="evenodd">
        <g id="bike">
            <g id="Group-2">
                <rect id="Rectangle-25" x="0" y="0" width="40" height="40"></rect>
                <g id="r" transform="translate(4.000000, 10.000000)">
                    <g id="noun_1104012_cc" transform="translate(16.000000, 10.000000) scale(-1, 1) translate(-16.000000, -10.000000) " stroke="#80959D">
                        <g id="Group">
                            <path d="M9.56094955,15.2314151 L18.3863623,15.2314151 L20.2249896,15.2314151 C20.4231671,17.7621321 22.4921245,19.7593396 25.00542,19.7593396 C27.5187154,19.7593396 29.5876729,17.7621321 29.7743598,15.2314151 L31.6244787,15.2314151 C31.8275574,15.2313943 31.9921809,15.0624752 31.9922044,14.8540943 C31.9922044,11.6145472 30.4752451,8.79970189 28.3034581,7.30755472 L31.6244787,7.30755472 C31.7474254,7.30886 31.8628744,7.24703378 31.9321386,7.1427942 C32.0014028,7.03855462 32.0153181,6.90569316 31.9692214,6.78873208 L30.8660449,3.77012075 C30.8093252,3.62624759 30.6725443,3.53267903 30.5213023,3.53429057 L19.1218121,3.53429057 C18.9705701,3.53267903 18.8337891,3.62624759 18.7770695,3.77012075 L17.673893,6.78873208 C17.6277963,6.90569316 17.6417116,7.03855462 17.7109758,7.1427942 C17.7802399,7.24703378 17.895689,7.30886 18.0186356,7.30755472 L19.7193661,7.30755472 C19.6731923,7.42940755 19.6722132,7.55555849 19.5814689,7.68488302 C19.3999815,7.9435283 19.1330742,8.2256 18.8460181,8.56924151 C18.321278,9.19745283 17.778003,10.0891887 17.6853847,11.4581321 L12.3303822,11.4581321 C11.9321165,10.6630377 11.2199767,9.9344717 10.4113146,9.30032075 C9.64546523,8.69976226 8.86949834,8.26456981 8.21645337,7.93250189 L12.3303822,0.893003774 L15.0768319,0.893003774 C15.2094487,0.894931242 15.3328036,0.823437763 15.3996602,0.705900275 C15.4665168,0.588362788 15.4665168,0.442991929 15.3996602,0.325454442 C15.3328036,0.207916954 15.2094487,0.136423475 15.0768319,0.138350943 L12.1350281,0.138350943 L10.5951774,0.138350943 L9.56094955,0.138350943 C9.39093604,0.159921374 9.30336532,0.224105028 9.25068395,0.315203774 L8.35435292,1.76555472 C8.3076108,1.71444676 8.24792567,1.67770013 8.18198179,1.65943019 L3.76927595,0.52745283 C3.72079471,0.513051139 3.66994339,0.509043452 3.61988745,0.515679245 C3.43950853,0.544960937 3.30739501,0.705627266 3.30961913,0.893003774 L3.30961913,2.77963774 L3.30961913,4.6662717 C3.3120624,4.77301244 3.35845796,4.87369535 3.43730633,4.94336544 C3.5161547,5.01303553 3.62007519,5.04517126 3.72331034,5.03180755 L6.55019991,4.71343774 L4.91841802,7.35472075 C3.14675126,7.72335849 1.62334566,8.1181283 0.471237922,9.30032075 C0.337408464,9.43800611 0.327458811,9.6575016 0.448254933,9.80733962 L2.26263611,11.6585849" id="Shape" fill-rule="nonzero"></path>
                            <path d="M5.51597205,10.7034717 C7.75430841,10.7034717 9.56095228,12.557283 9.56095228,14.8540755 C9.56095228,17.1508302 7.75430841,19.0046415 5.51597205,19.0046415 C3.27763531,19.0046415 1.4709916,17.1508302 1.4709916,14.8540755 C1.4709916,12.557283 3.27763531,10.7034717 5.51597205,10.7034717 Z" id="Path"></path>
                        </g>
                    </g>
                    <path d="M2.5,15.2315278 L11.5,15.2315278" id="Line-7" stroke="#979797" stroke-linecap="square"></path>
                    <path d="M23.5,1.5 L25.3507603,4.5" id="Line-8" stroke="#80959D" stroke-linecap="square"></path>
                </g>
            </g>
        </g>
    </g>
</svg>