<svg xmlns="http://www.w3.org/2000/svg" xmlns:xlink="http://www.w3.org/1999/xlink" width="26" height="26" viewBox="0 0 26 26">
    <defs>
        <circle id="a" cx="12" cy="12" r="12"/>
    </defs>
    <g fill="none" fill-rule="evenodd" transform="translate(1 1)">
        <mask id="b" fill="#fff">
            <use xlink:href="#a"/>
        </mask>
        <use fill="#FFF" stroke="#20C05C" xlink:href="#a"/>
        <g fill-rule="nonzero" stroke="#20C05C" mask="url(#b)">
            <path d="M12.068 13.854c2.208 0 4-1.792 4-4s-1.792-4-4-4-4 1.792-4 4 1.792 4 4 4zM21.039 19.615a8.803 8.803 0 0 0-.54-1.085c-1.077-1.72-2.768-2.886-4.655-3.177a.914.914 0 0 0-.686.186c-.98.767-2.157 1.19-3.382 1.19s-2.401-.423-3.382-1.19a.914.914 0 0 0-.686-.186c-1.887.291-3.578 1.43-4.656 3.177-.22.344-.392.714-.539 1.085a.54.54 0 0 0 .025.476c.196.345.416.715.637 1.033.318.476.686.926 1.078 1.323.343.37.71.689 1.103 1.006 1.862 1.509 4.092 2.303 6.42 2.303 2.328 0 4.558-.794 6.42-2.303.392-.317.76-.662 1.103-1.006.392-.397.76-.847 1.078-1.323.22-.318.441-.662.638-1.033a.643.643 0 0 0 .024-.476z"/>
        </g>
    </g>
</svg>
