<svg xmlns="http://www.w3.org/2000/svg" width="10" height="12" viewBox="0 0 10 12">
    <g fill="none" fill-rule="evenodd">
        <path d="M-2-2h14v14H-2z" opacity=".05"/>
        <g stroke="#45C0FF">
            <path d="M4.856 6.062A1.376 1.376 0 0 1 3.484 4.69c0-.755.618-1.372 1.372-1.372.755 0 1.372.617 1.372 1.372 0 .754-.617 1.372-1.372 1.372z"/>
            <path d="M4.856.917A3.784 3.784 0 0 0 1.083 4.69c0 2.778 3.499 6.963 3.636 7.134l.137.155.138-.155C5.13 11.653 8.63 7.468 8.63 4.69A3.784 3.784 0 0 0 4.856.917z"/>
        </g>
    </g>
</svg>
