<svg xmlns="http://www.w3.org/2000/svg" width="15" height="20" viewBox="0 0 15 20">
    <g fill="none" fill-rule="evenodd">
        <path d="M-5-2h24v24H-5z" opacity=".05"/>
        <g stroke="#ff0000">
            <path d="M7.372 9.339a2.284 2.284 0 0 1-2.277-2.277 2.284 2.284 0 0 1 2.277-2.277 2.284 2.284 0 0 1 2.277 2.277 2.284 2.284 0 0 1-2.277 2.277z"/>
            <path d="M7.372.8C3.928.8 1.11 3.618 1.11 7.062c0 4.61 5.806 11.556 6.034 11.84l.228.256.227-.256c.228-.284 6.034-7.23 6.034-11.84C13.633 3.618 10.816.8 7.372.8z"/>
        </g>
    </g>
</svg>
