<?xml version="1.0" encoding="UTF-8"?>
<svg width="40px" height="24px" viewBox="0 0 40 24" version="1.1" xmlns="http://www.w3.org/2000/svg" xmlns:xlink="http://www.w3.org/1999/xlink">
    <!-- Generator: Sketch 48.2 (47327) - http://www.bohemiancoding.com/sketch -->
    <title>american express</title>
    <desc>Created with Sketch.</desc>
    <defs>
        <linearGradient x1="50%" y1="0%" x2="50%" y2="100%" id="linearGradient-1">
            <stop stop-color="#79C8F0" offset="0%"></stop>
            <stop stop-color="#287FC2" offset="100%"></stop>
        </linearGradient>
    </defs>
    <g id="Page-1" stroke="none" stroke-width="1" fill="none" fill-rule="evenodd">
        <g id="american-express" fill-rule="nonzero">
            <path d="M2.5,0.5 L37.5,0.5 C38.60457,0.5 39.5,1.3954305 39.5,2.5 L39.5,21.5 C39.5,22.60457 38.60457,23.5 37.5,23.5 L2.5,23.5 C1.3954305,23.5 0.5,22.60457 0.5,21.5 L0.5,2.5 C0.5,1.3954305 1.3954305,0.5 2.5,0.5 Z" id="Stroke-4" stroke="#EAEAEA" fill="url(#linearGradient-1)"></path>
            <g id="American_Express_logo_(2018)" transform="translate(4.000000, 6.000000)">
                <path d="M6.1964848,11.9702116 L6.1964848,6.79304132 L11.5027334,6.79304132 L12.0720365,7.55973223 L12.6601648,6.79304132 L31.9205376,6.79304132 L31.9205376,11.6131669 C31.9205376,11.6131669 31.4168448,11.9650347 30.8343008,11.9702116 L20.1694349,11.9702116 L19.527568,11.1541058 L19.527568,11.9702116 L17.4242192,11.9702116 L17.4242192,10.5770942 C17.4242192,10.5770942 17.1368986,10.771557 16.5157309,10.771557 L15.7998022,10.771557 L15.7998022,11.9702116 L12.6151546,11.9702116 L12.046665,11.1870777 L11.4694467,11.9702116 L6.1964848,11.9702116 Z" id="path3082" fill="#FFFFFF"></path>
                <path d="M0,4 L1.19658,0.00916694215 L3.26594016,0.00916694215 L3.94501312,1.62347438 L3.94501312,0.00916694215 L6.51741856,0.00916694215 L6.92167104,1.1759405 L7.31358016,0.00916694215 L18.8610138,0.00916694215 L18.8610138,0.595742149 C18.8610138,0.595742149 19.4680522,0.00916694215 20.4656813,0.00916694215 L24.212401,0.0226942149 L24.879751,1.61587438 L24.879751,0.00916694215 L27.0324739,0.00916694215 L27.6249667,0.924320661 L27.6249667,0.00916694215 L29.7974394,0.00916694215 L29.7974394,5.18633388 L27.6249667,5.18633388 L27.0571613,4.26821488 L27.0571613,5.18633388 L23.8943341,5.18633388 L23.5762672,4.3702281 L22.7259926,4.3702281 L22.4131027,5.18633388 L20.2681837,5.18633388 C19.4097552,5.18633388 18.8610138,4.61173554 18.8610138,4.61173554 L18.8610138,5.18633388 L15.626992,5.18633388 L14.9851248,4.3702281 L14.9851248,5.18633388 L2.95937696,5.18633388 L2.64152928,4.3702281 L1.79396608,4.3702281 L1.4783648,5.18633388 L0,5.18633388 L0,4 Z" id="path3080" fill="#FFFFFF"></path>
                <path d="M1.62009696,0.647401653 L0.006171808,4.52390083 L1.05692035,4.52390083 L1.3547096,3.74764959 L3.08589888,3.74764959 L3.38214528,4.52390083 L4.45603808,4.52390083 L2.84365568,0.647401653 L1.62009696,0.647401653 Z M2.21721824,1.54958017 L2.7449072,2.90603967 L1.68798656,2.90603967 L2.21721824,1.54958017 Z" id="path3046" fill="#02B6FF"></path>
                <polygon id="path3048" fill="#02B6FF" points="4.56713024 4.52324959 4.56713024 0.646747107 6.0603024 0.652476033 6.92878208 3.15179835 7.77646528 0.646747107 9.25769664 0.646747107 9.25769664 4.52324959 8.31958336 4.52324959 8.31958336 1.66687934 7.32516352 4.52324959 6.50243616 4.52324959 5.50524352 1.66687934 5.50524352 4.52324959"></polygon>
                <polygon id="path3050" fill="#02B6FF" points="9.89956352 4.52324959 9.89956352 0.646747107 12.9607754 0.646747107 12.9607754 1.51386116 10.8475517 1.51386116 10.8475517 2.17694545 12.911401 2.17694545 12.911401 2.99305124 10.8475517 2.99305124 10.8475517 3.68163967 12.9607754 3.68163967 12.9607754 4.52324959"></polygon>
                <path d="M13.5038934,0.647401653 L13.5038934,4.52390083 L14.4420067,4.52390083 L14.4420067,3.14672397 L14.8370016,3.14672397 L15.9618118,4.52390083 L17.1082234,4.52390083 L15.8738637,3.09571901 C16.3804525,3.05155702 16.9030109,2.60238678 16.9030109,1.90503471 C16.9030109,1.08928264 16.2832262,0.647401653 15.591504,0.647401653 L13.5038934,0.647401653 Z M14.4420067,1.5145124 L15.5143565,1.5145124 C15.7715984,1.5145124 15.9587261,1.72238678 15.9587261,1.92256529 C15.9587261,2.18010248 15.7162707,2.33061818 15.5282432,2.33061818 L14.4420067,2.33061818 L14.4420067,1.5145124 Z" id="path3052" fill="#02B6FF"></path>
                <polygon id="path3054" fill="#02B6FF" points="18.2438342 4.52324959 17.2859712 4.52324959 17.2859712 0.646747107 18.2438342 0.646747107"></polygon>
                <path d="M20.5150557,4.52324959 L20.3083005,4.52324959 C19.3079254,4.52324959 18.7005472,3.70906116 18.7005472,2.60093884 C18.7005472,1.46544132 19.3011251,0.646747107 20.5644301,0.646747107 L21.6012922,0.646747107 L21.6012922,1.56486612 L20.5265219,1.56486612 C20.0136899,1.56486612 19.6510038,1.97831074 19.6510038,2.61050248 C19.6510038,3.36123306 20.0657197,3.67653884 20.6631789,3.67653884 L20.9100506,3.67653884 L20.5150557,4.52324959 Z" id="path3056" fill="#02B6FF"></path>
                <path d="M22.5563776,0.647401653 L20.9424528,4.52390083 L21.9932013,4.52390083 L22.2909904,3.74764959 L24.0221798,3.74764959 L24.3184259,4.52390083 L25.3923187,4.52390083 L23.7799366,0.647401653 L22.5563776,0.647401653 Z M23.1534992,1.54958017 L23.6811878,2.90603967 L22.6242675,2.90603967 L23.1534992,1.54958017 Z" id="path3058" fill="#02B6FF"></path>
                <polygon id="path3060" fill="#02B6FF" points="25.5018682 4.52324959 25.5018682 0.646747107 26.694568 0.646747107 28.2174592 3.08231405 28.2174592 0.646747107 29.1555725 0.646747107 29.1555725 4.52324959 28.0014464 4.52324959 26.4399814 2.02392727 26.4399814 4.52324959"></polygon>
                <polygon id="path3062" fill="#348AC8" points="6.838352 11.3071273 6.838352 7.43062479 9.89956352 7.43062479 9.89956352 8.29773884 7.78634016 8.29773884 7.78634016 8.96082314 9.85018912 8.96082314 9.85018912 9.77692893 7.78634016 9.77692893 7.78634016 10.4655174 9.89956352 10.4655174 9.89956352 11.3071273"></polygon>
                <polygon id="path3064" fill="#358BC9" points="21.838289 11.3071273 21.838289 7.43062479 24.8995008 7.43062479 24.8995008 8.29773884 22.7862771 8.29773884 22.7862771 8.96082314 24.8402515 8.96082314 24.8402515 9.77692893 22.7862771 9.77692893 22.7862771 10.4655174 24.8995008 10.4655174 24.8995008 11.3071273"></polygon>
                <polygon id="path3066" fill="#348AC8" points="10.0183706 11.3071273 11.5088598 9.39278347 9.98288288 7.43062479 11.1647821 7.43062479 12.0735792 8.64362314 12.9854624 7.43062479 14.1210733 7.43062479 12.6151546 9.36887603 14.1083875 11.3071273 12.9266752 11.3071273 12.0442634 10.1132496 11.1832976 11.3071273"></polygon>
                <path d="M14.2198221,7.43127934 L14.2198221,11.3077785 L15.1826224,11.3077785 L15.1826224,10.0836198 L16.1701101,10.0836198 C17.0056643,10.0836198 17.6389978,9.62568926 17.6389978,8.73513388 C17.6389978,7.99740165 17.142271,7.43127934 16.2920032,7.43127934 L14.2198221,7.43127934 Z M15.1826224,8.30795372 L16.2225702,8.30795372 C16.492505,8.30795372 16.685455,8.47886612 16.685455,8.75426116 C16.685455,9.01297851 16.493479,9.2005686 16.2194845,9.2005686 L15.1826224,9.2005686 L15.1826224,8.30795372 Z" id="path3068" fill="#358BC9"></path>
                <path d="M18.0463366,7.43062479 L18.0463366,11.3071273 L18.9844499,11.3071273 L18.9844499,9.92994711 L19.3794448,9.92994711 L20.504255,11.3071273 L21.6506666,11.3071273 L20.4163069,9.87894215 C20.9228954,9.83477355 21.4454541,9.38560992 21.4454541,8.68825455 C21.4454541,7.87250579 20.8256694,7.43062479 20.1339472,7.43062479 L18.0463366,7.43062479 Z M18.9844499,8.29773884 L20.0567997,8.29773884 C20.3140416,8.29773884 20.501169,8.50560992 20.501169,8.70578843 C20.501169,8.96332893 20.2587136,9.11384132 20.0706861,9.11384132 L18.9844499,9.11384132 L18.9844499,8.29773884 Z" id="path3072" fill="#358BC9"></path>
                <path d="M25.3339952,11.3071273 L25.3339952,10.4655174 L27.2114563,10.4655174 C27.4892531,10.4655174 27.6095373,10.3104364 27.6095373,10.1403504 C27.6095373,9.97738843 27.4896323,9.81263471 27.2114563,9.81263471 L26.3630531,9.81263471 C25.6255904,9.81263471 25.2148797,9.34847273 25.2148797,8.65159669 C25.2148797,8.03003306 25.590991,7.43062479 26.6868534,7.43062479 L28.5137056,7.43062479 L28.1187104,8.30283636 L26.5387302,8.30283636 C26.2367075,8.30283636 26.143735,8.46655868 26.143735,8.62290579 C26.143735,8.78360661 26.2586266,8.96082314 26.4893558,8.96082314 L27.3780947,8.96082314 C28.200184,8.96082314 28.5569082,9.44255537 28.5569082,10.073405 C28.5569082,10.7516298 28.1594003,11.3071273 27.3333414,11.3071273 L25.3339952,11.3071273 Z" id="path3074" fill="#388DCB"></path>
                <path d="M28.7770874,11.3071273 L28.7770874,10.4655174 L30.6545472,10.4655174 C30.9323456,10.4655174 31.0526304,10.3104364 31.0526304,10.1403504 C31.0526304,9.97738843 30.9327232,9.81263471 30.6545472,9.81263471 L29.8061453,9.81263471 C29.0686826,9.81263471 28.6579715,9.34847273 28.6579715,8.65159669 C28.6579715,8.03003306 29.0340829,7.43062479 30.1299453,7.43062479 L31.9567968,7.43062479 L31.5618016,8.30283636 L29.9818221,8.30283636 C29.6797997,8.30283636 29.5868272,8.46655868 29.5868272,8.62290579 C29.5868272,8.78360661 29.7017184,8.96082314 29.9324477,8.96082314 L30.8211872,8.96082314 C31.6432768,8.96082314 32,9.44255537 32,10.073405 C32,10.7516298 31.6024928,11.3071273 30.776432,11.3071273 L28.7770874,11.3071273 Z" id="path3076" fill="#388DCB"></path>
            </g>
        </g>
    </g>
</svg>