<svg xmlns="http://www.w3.org/2000/svg" width="20" height="20" viewBox="0 0 20 20">
    <g fill="none" fill-rule="evenodd">
        <path d="M-2-2h24v24H-2z" opacity=".05"/>
        <path stroke="#80959D" d="M4.531 1.062a.816.816 0 0 0-.577.226c-.024.023-1.052.969-1.653 1.598C.895 4.348.681 6.14 1.645 8.368c.734 1.697 2.18 3.61 4.423 5.852 3.403 3.403 6.04 4.987 8.298 4.987 1.135 0 2.159-.431 3.044-1.282a34.807 34.807 0 0 0 1.582-1.58c.33-.33.33-.848.012-1.166l-2.719-2.719a.82.82 0 0 0-.578-.226.816.816 0 0 0-.577.226l-1.21 1.208a1.752 1.752 0 0 1-1.233.497c-.469 0-.918-.181-1.234-.497L6.62 8.837a1.734 1.734 0 0 1-.51-1.234c0-.467.18-.905.51-1.234l1.208-1.207a.811.811 0 0 0 .238-.578.81.81 0 0 0-.238-.577L5.11 1.287a.817.817 0 0 0-.578-.225z"/>
    </g>
</svg>
