<svg xmlns="http://www.w3.org/2000/svg" width="13" height="13" viewBox="0 0 13 13">
    <g fill="none" fill-rule="evenodd">
        <path d="M-6-6h24v24H-6z" opacity=".05"/>
        <path fill="#45C0FF" d="M2.384.062c-.15 0-.29.055-.387.151C1.981.23 1.292.863.89 1.284c-.942.98-1.086 2.18-.44 3.674.492 1.137 1.461 2.419 2.964 3.921 2.28 2.28 4.047 3.342 5.56 3.342.76 0 1.447-.29 2.04-.86a23.323 23.323 0 0 0 1.06-1.058.55.55 0 0 0 .008-.782L10.26 7.7a.55.55 0 0 0-.388-.152c-.15 0-.29.055-.387.152l-.81.81a1.174 1.174 0 0 1-.827.332c-.314 0-.615-.121-.827-.333L3.784 5.272a1.162 1.162 0 0 1-.342-.827c0-.313.12-.606.341-.827l.81-.809a.544.544 0 0 0 .16-.387.542.542 0 0 0-.16-.387L2.772.213a.548.548 0 0 0-.388-.151z"/>
    </g>
</svg>
