<svg xmlns="http://www.w3.org/2000/svg" width="16" height="16" viewBox="0 0 16 16">
    <g fill="#80959D" fill-rule="nonzero" stroke="#80959D" stroke-width=".3">
        <path d="M7.984 1a6.947 6.947 0 0 0-4.937 2.043A6.948 6.948 0 0 0 1 7.984c0 1.868.728 3.621 2.047 4.941a6.942 6.942 0 0 0 4.937 2.043 6.947 6.947 0 0 0 4.938-2.043 6.948 6.948 0 0 0 2.047-4.94c0-1.869-.729-3.622-2.047-4.942A6.947 6.947 0 0 0 7.984 1zm0 13.332c-3.503 0-6.356-2.848-6.356-6.348S4.48 1.636 7.984 1.636c3.503 0 6.357 2.848 6.357 6.348s-2.854 6.348-6.357 6.348z"/>
        <path d="M10.985 10.195L8.251 8.064V3.867a.317.317 0 0 0-.314-.318.317.317 0 0 0-.314.318V8.22c0 .098.041.19.116.25l2.86 2.228a.303.303 0 0 0 .188.067.313.313 0 0 0 .252-.124.318.318 0 0 0-.054-.446z"/>
    </g>
</svg>
