<?xml version="1.0" encoding="UTF-8"?>
<svg width="149px" height="39px" viewBox="0 0 149 39" version="1.1" xmlns="http://www.w3.org/2000/svg" xmlns:xlink="http://www.w3.org/1999/xlink">
    <!-- Generator: Sketch 48.2 (47327) - http://www.bohemiancoding.com/sketch -->
    <title>Artboard 2</title>
    <desc>Created with Sketch.</desc>
    <defs></defs>
    <g id="Page-1" stroke="none" stroke-width="1" fill="none" fill-rule="evenodd">
        <g id="Artboard-2">
            <g id="SmartStore-Logo-Copy" transform="translate(0.000000, 2.000000)">
                <path d="M97.9832,12.4496 C97.9832,12.9104023 98.0663992,13.3007984 98.2328,13.6208 C98.3992008,13.9408016 98.6199986,14.199999 98.8952,14.3984 C99.1704014,14.596801 99.4935981,14.7439995 99.8648,14.84 C100.236002,14.9360005 100.619998,14.984 101.0168,14.984 C101.285601,14.984 101.573598,14.9616002 101.8808,14.9168 C102.188002,14.8719998 102.475999,14.7856006 102.7448,14.6576 C103.013601,14.5295994 103.237599,14.3536011 103.4168,14.1296 C103.596001,13.9055989 103.6856,13.6208017 103.6856,13.2752 C103.6856,12.9039981 103.567201,12.6032012 103.3304,12.3728 C103.093599,12.1423988 102.783202,11.9504008 102.3992,11.7968 C102.015198,11.6431992 101.580002,11.5088006 101.0936,11.3936 C100.607198,11.2783994 100.114402,11.1504007 99.6152,11.0096 C99.1031974,10.8815994 98.6040024,10.7248009 98.1176,10.5392 C97.6311976,10.3535991 97.1960019,10.1136015 96.812,9.8192 C96.4279981,9.52479853 96.1176012,9.15680221 95.8808,8.7152 C95.6439988,8.27359779 95.5256,7.73920314 95.5256,7.112 C95.5256,6.40799648 95.6759985,5.79680259 95.9768,5.2784 C96.2776015,4.75999741 96.6711976,4.32800173 97.1576,3.9824 C97.6440024,3.63679827 98.1943969,3.38080083 98.8088,3.2144 C99.4232031,3.04799917 100.037597,2.9648 100.652,2.9648 C101.368804,2.9648 102.056797,3.0447992 102.716,3.2048 C103.375203,3.3648008 103.960797,3.62399821 104.4728,3.9824 C104.984803,4.34080179 105.391198,4.79839722 105.692,5.3552 C105.992802,5.91200278 106.1432,6.58719603 106.1432,7.3808 L103.2248,7.3808 C103.1992,6.97119795 103.112801,6.63200134 102.9656,6.3632 C102.818399,6.09439866 102.623201,5.88320077 102.38,5.7296 C102.136799,5.57599923 101.858402,5.46720032 101.5448,5.4032 C101.231198,5.33919968 100.888802,5.3072 100.5176,5.3072 C100.274399,5.3072 100.031201,5.33279974 99.788,5.384 C99.5447988,5.43520026 99.324001,5.52479936 99.1256,5.6528 C98.927199,5.78080064 98.7640006,5.94079904 98.636,6.1328 C98.5079994,6.32480096 98.444,6.56799853 98.444,6.8624 C98.444,7.13120134 98.4951995,7.34879917 98.5976,7.5152 C98.7000005,7.68160083 98.9015985,7.8351993 99.2024,7.976 C99.5032015,8.1168007 99.9191973,8.2575993 100.4504,8.3984 C100.981603,8.5392007 101.675996,8.71839891 102.5336,8.936 C102.789601,8.98720026 103.144798,9.07999933 103.5992,9.2144 C104.053602,9.34880067 104.504798,9.56319853 104.9528,9.8576 C105.400802,10.1520015 105.787998,10.5455975 106.1144,11.0384 C106.440802,11.5312025 106.604,12.1615962 106.604,12.9296 C106.604,13.5568031 106.482401,14.1391973 106.2392,14.6768 C105.995999,15.2144027 105.634402,15.678398 105.1544,16.0688 C104.674398,16.459202 104.079204,16.7631989 103.3688,16.9808 C102.658396,17.1984011 101.836005,17.3072 100.9016,17.3072 C100.146396,17.3072 99.4136036,17.2144009 98.7032,17.0288 C97.9927964,16.8431991 97.3656027,16.552002 96.8216,16.1552 C96.2775973,15.758398 95.8456016,15.2528031 95.5256,14.6384 C95.2055984,14.0239969 95.0519999,13.2944042 95.0648,12.4496 L97.9832,12.4496 Z M112.0576,7.0736 L114.0544,7.0736 L114.0544,8.8976 L112.0576,8.8976 L112.0576,13.8128 C112.0576,14.2736023 112.134399,14.5807992 112.288,14.7344 C112.441601,14.8880008 112.748798,14.9648 113.2096,14.9648 C113.363201,14.9648 113.510399,14.9584001 113.6512,14.9456 C113.792001,14.9327999 113.926399,14.9136001 114.0544,14.888 L114.0544,17 C113.823999,17.0384002 113.568001,17.0639999 113.2864,17.0768 C113.004799,17.0896001 112.729601,17.096 112.4608,17.096 C112.038398,17.096 111.638402,17.0672003 111.2608,17.0096 C110.883198,16.9519997 110.550401,16.8400008 110.2624,16.6736 C109.974399,16.5071992 109.747201,16.2704015 109.5808,15.9632 C109.414399,15.6559985 109.3312,15.2528025 109.3312,14.7536 L109.3312,8.8976 L107.68,8.8976 L107.68,7.0736 L109.3312,7.0736 L109.3312,4.0976 L112.0576,4.0976 L112.0576,7.0736 Z M118.2792,12.0464 C118.2792,12.443202 118.3176,12.8303981 118.3944,13.208 C118.4712,13.5856019 118.602399,13.9247985 118.788,14.2256 C118.973601,14.5264015 119.219998,14.7663991 119.5272,14.9456 C119.834402,15.1248009 120.218398,15.2144 120.6792,15.2144 C121.140002,15.2144 121.527198,15.1248009 121.8408,14.9456 C122.154402,14.7663991 122.403999,14.5264015 122.5896,14.2256 C122.775201,13.9247985 122.9064,13.5856019 122.9832,13.208 C123.06,12.8303981 123.0984,12.443202 123.0984,12.0464 C123.0984,11.649598 123.06,11.2592019 122.9832,10.8752 C122.9064,10.4911981 122.775201,10.1520015 122.5896,9.8576 C122.403999,9.56319853 122.154402,9.32320093 121.8408,9.1376 C121.527198,8.95199907 121.140002,8.8592 120.6792,8.8592 C120.218398,8.8592 119.834402,8.95199907 119.5272,9.1376 C119.219998,9.32320093 118.973601,9.56319853 118.788,9.8576 C118.602399,10.1520015 118.4712,10.4911981 118.3944,10.8752 C118.3176,11.2592019 118.2792,11.649598 118.2792,12.0464 Z M115.5528,12.0464 C115.5528,11.252796 115.674399,10.5328032 115.9176,9.8864 C116.160801,9.23999677 116.506398,8.68960227 116.9544,8.2352 C117.402402,7.78079773 117.939997,7.42880125 118.5672,7.1792 C119.194403,6.92959875 119.898396,6.8048 120.6792,6.8048 C121.460004,6.8048 122.167197,6.92959875 122.8008,7.1792 C123.434403,7.42880125 123.975198,7.78079773 124.4232,8.2352 C124.871202,8.68960227 125.216799,9.23999677 125.46,9.8864 C125.703201,10.5328032 125.8248,11.252796 125.8248,12.0464 C125.8248,12.840004 125.703201,13.5567968 125.46,14.1968 C125.216799,14.8368032 124.871202,15.3839977 124.4232,15.8384 C123.975198,16.2928023 123.434403,16.6415988 122.8008,16.8848 C122.167197,17.1280012 121.460004,17.2496 120.6792,17.2496 C119.898396,17.2496 119.194403,17.1280012 118.5672,16.8848 C117.939997,16.6415988 117.402402,16.2928023 116.9544,15.8384 C116.506398,15.3839977 116.160801,14.8368032 115.9176,14.1968 C115.674399,13.5567968 115.5528,12.840004 115.5528,12.0464 Z M128.0912,7.0736 L130.6832,7.0736 L130.6832,8.9168 L130.7216,8.9168 C130.849601,8.60959846 131.022399,8.32480131 131.24,8.0624 C131.457601,7.79999869 131.707199,7.57600093 131.9888,7.3904 C132.270401,7.20479907 132.571198,7.06080051 132.8912,6.9584 C133.211202,6.85599949 133.543998,6.8048 133.8896,6.8048 C134.068801,6.8048 134.267199,6.83679968 134.4848,6.9008 L134.4848,9.4352 C134.356799,9.40959987 134.203201,9.3872001 134.024,9.368 C133.844799,9.3487999 133.672001,9.3392 133.5056,9.3392 C133.006398,9.3392 132.584002,9.42239917 132.2384,9.5888 C131.892798,9.75520083 131.614401,9.98239856 131.4032,10.2704 C131.191999,10.5584014 131.0416,10.8943981 130.952,11.2784 C130.8624,11.6624019 130.8176,12.0783978 130.8176,12.5264 L130.8176,17 L128.0912,17 L128.0912,7.0736 Z M142.396,10.9712 C142.267999,10.2799965 142.040802,9.75520179 141.7144,9.3968 C141.387998,9.03839821 140.892003,8.8592 140.2264,8.8592 C139.791198,8.8592 139.429601,8.93279926 139.1416,9.08 C138.853599,9.22720074 138.623201,9.40959891 138.4504,9.6272 C138.277599,9.84480109 138.156,10.0751988 138.0856,10.3184 C138.0152,10.5616012 137.9736,10.779199 137.9608,10.9712 L142.396,10.9712 Z M137.9608,12.6992 C137.9992,13.5824044 138.223198,14.222398 138.6328,14.6192 C139.042402,15.016002 139.631196,15.2144 140.3992,15.2144 C140.949603,15.2144 141.423198,15.0768014 141.82,14.8016 C142.216802,14.5263986 142.46,14.2352015 142.5496,13.928 L144.9496,13.928 C144.565598,15.118406 143.976804,15.9695974 143.1832,16.4816 C142.389596,16.9936026 141.429606,17.2496 140.3032,17.2496 C139.522396,17.2496 138.818403,17.1248012 138.1912,16.8752 C137.563997,16.6255988 137.032802,16.2704023 136.5976,15.8096 C136.162398,15.3487977 135.826401,14.7984032 135.5896,14.1584 C135.352799,13.5183968 135.2344,12.8144038 135.2344,12.0464 C135.2344,11.3039963 135.355999,10.6128032 135.5992,9.9728 C135.842401,9.3327968 136.187998,8.77920234 136.636,8.312 C137.084002,7.84479766 137.618397,7.47680134 138.2392,7.208 C138.860003,6.93919866 139.547996,6.8048 140.3032,6.8048 C141.148004,6.8048 141.883997,6.96799837 142.5112,7.2944 C143.138403,7.62080163 143.653598,8.05919725 144.0568,8.6096 C144.460002,9.16000275 144.751199,9.78719648 144.9304,10.4912 C145.109601,11.1952035 145.1736,11.9311962 145.1224,12.6992 L137.9608,12.6992 Z M38.092,23.004 L44.994,23.004 L44.994,24.124 L39.422,24.124 L39.422,27.302 L44.616,27.302 L44.616,28.422 L39.422,28.422 L39.422,31.88 L45.036,31.88 L45.036,33 L38.092,33 L38.092,23.004 Z M46.85,25.762 L47.97,25.762 L47.97,26.91 L47.998,26.91 C48.4926691,26.0326623 49.2766613,25.594 50.35,25.594 C50.8260024,25.594 51.2226651,25.6593327 51.54,25.79 C51.8573349,25.9206673 52.113999,26.1026655 52.31,26.336 C52.506001,26.5693345 52.6436663,26.8469984 52.723,27.169 C52.8023337,27.4910016 52.842,27.847998 52.842,28.24 L52.842,33 L51.652,33 L51.652,28.1 C51.652,27.6519978 51.5213346,27.2973346 51.26,27.036 C50.9986654,26.7746654 50.6393356,26.644 50.182,26.644 C49.8179982,26.644 49.5030013,26.6999994 49.237,26.812 C48.9709987,26.9240006 48.7493342,27.0826656 48.572,27.288 C48.3946658,27.4933344 48.2616671,27.7336653 48.173,28.009 C48.0843329,28.2843347 48.04,28.5853317 48.04,28.912 L48.04,33 L46.85,33 L46.85,25.762 Z M56.686,25.762 L58.128,25.762 L58.128,26.812 L56.686,26.812 L56.686,31.306 C56.686,31.4460007 56.6976665,31.5579996 56.721,31.642 C56.7443334,31.7260004 56.7886663,31.7913331 56.854,31.838 C56.9193337,31.8846669 57.0103327,31.9149999 57.127,31.929 C57.2436672,31.9430001 57.3953324,31.95 57.582,31.95 L58.128,31.95 L58.128,33 L57.218,33 C56.9099985,33 56.6463344,32.9790002 56.427,32.937 C56.2076656,32.8949998 56.030334,32.8180006 55.895,32.706 C55.759666,32.5939994 55.6593337,32.4353344 55.594,32.23 C55.5286663,32.0246656 55.496,31.7540017 55.496,31.418 L55.496,26.812 L54.264,26.812 L54.264,25.762 L55.496,25.762 L55.496,23.592 L56.686,23.592 L56.686,25.762 Z M64.87,28.688 C64.8513332,28.4079986 64.7883339,28.1420013 64.681,27.89 C64.5736661,27.6379987 64.4290009,27.4210009 64.247,27.239 C64.0649991,27.0569991 63.8503346,26.9123339 63.603,26.805 C63.3556654,26.6976661 63.0826682,26.644 62.784,26.644 C62.4759985,26.644 62.1983346,26.6976661 61.951,26.805 C61.7036654,26.9123339 61.4913342,27.0593324 61.314,27.246 C61.1366658,27.4326676 60.9966672,27.6496654 60.894,27.897 C60.7913328,28.1443346 60.7306668,28.4079986 60.712,28.688 L64.87,28.688 Z M66.018,30.704 C65.8593325,31.5160041 65.509336,32.1273313 64.968,32.538 C64.426664,32.9486687 63.7453374,33.154 62.924,33.154 C62.3453304,33.154 61.8436688,33.0606676 61.419,32.874 C60.9943312,32.6873324 60.6373348,32.4260017 60.348,32.09 C60.0586652,31.7539983 59.8416674,31.352669 59.697,30.886 C59.5523326,30.419331 59.4706668,29.9106694 59.452,29.36 C59.452,28.8093306 59.5359992,28.3053356 59.704,27.848 C59.8720008,27.3906644 60.1076651,26.9940017 60.411,26.658 C60.7143348,26.3219983 61.0736646,26.0606676 61.489,25.874 C61.9043354,25.6873324 62.3593309,25.594 62.854,25.594 C63.4980032,25.594 64.0323312,25.7269987 64.457,25.993 C64.8816688,26.2590013 65.222332,26.5973313 65.479,27.008 C65.7356679,27.4186687 65.9129995,27.8666642 66.011,28.352 C66.1090005,28.8373358 66.1486668,29.2993311 66.13,29.738 L60.712,29.738 C60.7026666,30.0553349 60.7399996,30.3563319 60.824,30.641 C60.9080004,30.9256681 61.0433324,31.1776656 61.23,31.397 C61.4166676,31.6163344 61.6546652,31.7913327 61.944,31.922 C62.2333348,32.0526673 62.573998,32.118 62.966,32.118 C63.4700025,32.118 63.8829984,32.0013345 64.205,31.768 C64.5270016,31.5346655 64.7393328,31.1800024 64.842,30.704 L66.018,30.704 Z M67.72,25.762 L68.84,25.762 L68.84,27.288 L68.868,27.288 C69.1573348,26.6999971 69.5119979,26.2660014 69.932,25.986 C70.3520021,25.7059986 70.8839968,25.5753332 71.528,25.594 L71.528,26.854 C71.0519976,26.854 70.6460017,26.9193327 70.31,27.05 C69.9739983,27.1806673 69.7033344,27.3719987 69.498,27.624 C69.2926656,27.8760013 69.1433338,28.1816649 69.05,28.541 C68.9566662,28.9003351 68.91,29.313331 68.91,29.78 L68.91,33 L67.72,33 L67.72,25.762 Z M72.866,25.762 L74.056,25.762 L74.056,26.742 L74.084,26.742 C74.280001,26.3406647 74.5879979,26.0490009 75.008,25.867 C75.4280021,25.6849991 75.8899975,25.594 76.394,25.594 C76.9540028,25.594 77.4416646,25.6966656 77.857,25.902 C78.2723354,26.1073344 78.6176653,26.3849983 78.893,26.735 C79.1683347,27.0850018 79.3759993,27.4886644 79.516,27.946 C79.6560007,28.4033356 79.726,28.8886641 79.726,29.402 C79.726,29.9153359 79.658334,30.4006644 79.523,30.858 C79.387666,31.3153356 79.1823347,31.7143316 78.907,32.055 C78.6316653,32.3956684 78.2863354,32.663999 77.871,32.86 C77.4556646,33.056001 76.9726694,33.154 76.422,33.154 C76.2446658,33.154 76.0463344,33.1353335 75.827,33.098 C75.6076656,33.0606665 75.3906677,33.0000004 75.176,32.916 C74.9613323,32.8319996 74.7583343,32.7176674 74.567,32.573 C74.3756657,32.4283326 74.2146673,32.2486677 74.084,32.034 L74.056,32.034 L74.056,35.758 L72.866,35.758 L72.866,25.762 Z M78.466,29.318 C78.466,28.9819983 78.4216671,28.6530016 78.333,28.331 C78.2443329,28.0089984 78.1090009,27.7220013 77.927,27.47 C77.7449991,27.2179987 77.5116681,27.0173341 77.227,26.868 C76.9423319,26.7186659 76.6086686,26.644 76.226,26.644 C75.8246647,26.644 75.4840014,26.7233325 75.204,26.882 C74.9239986,27.0406675 74.6953342,27.2483321 74.518,27.505 C74.3406658,27.7616679 74.2123337,28.0533317 74.133,28.38 C74.0536663,28.7066683 74.014,29.0379983 74.014,29.374 C74.014,29.7286684 74.0559996,30.071665 74.14,30.403 C74.2240004,30.734335 74.3569991,31.0259987 74.539,31.278 C74.7210009,31.5300013 74.9566652,31.7329992 75.246,31.887 C75.5353348,32.0410008 75.8853313,32.118 76.296,32.118 C76.7066687,32.118 77.0496653,32.0386675 77.325,31.88 C77.6003347,31.7213325 77.8219992,31.5113346 77.99,31.25 C78.1580008,30.9886654 78.279333,30.6900017 78.354,30.354 C78.428667,30.0179983 78.466,29.6726684 78.466,29.318 Z M81.484,25.762 L82.604,25.762 L82.604,27.288 L82.632,27.288 C82.9213348,26.6999971 83.2759979,26.2660014 83.696,25.986 C84.1160021,25.7059986 84.6479968,25.5753332 85.292,25.594 L85.292,26.854 C84.8159976,26.854 84.4100017,26.9193327 84.074,27.05 C83.7379983,27.1806673 83.4673344,27.3719987 83.262,27.624 C83.0566656,27.8760013 82.9073338,28.1816649 82.814,28.541 C82.7206662,28.9003351 82.674,29.313331 82.674,29.78 L82.674,33 L81.484,33 L81.484,25.762 Z M87.848,24.46 L86.658,24.46 L86.658,23.004 L87.848,23.004 L87.848,24.46 Z M86.658,25.762 L87.848,25.762 L87.848,33 L86.658,33 L86.658,25.762 Z M90.824,30.718 C90.8333334,30.9793346 90.8939994,31.2009991 91.006,31.383 C91.1180006,31.5650009 91.2649991,31.7096661 91.447,31.817 C91.6290009,31.9243339 91.8343322,32.0013331 92.063,32.048 C92.2916678,32.0946669 92.5273321,32.118 92.77,32.118 C92.9566676,32.118 93.1526656,32.1040001 93.358,32.076 C93.5633344,32.0479999 93.7523325,31.996667 93.925,31.922 C94.0976675,31.847333 94.2399994,31.7376674 94.352,31.593 C94.4640006,31.4483326 94.52,31.2640011 94.52,31.04 C94.52,30.7319985 94.4033345,30.4986675 94.17,30.34 C93.9366655,30.1813325 93.6450018,30.0530005 93.295,29.955 C92.9449983,29.8569995 92.5646687,29.7683337 92.154,29.689 C91.7433313,29.6096663 91.3630018,29.4976674 91.013,29.353 C90.6629983,29.2083326 90.3713345,29.0053346 90.138,28.744 C89.9046655,28.4826654 89.788,28.118669 89.788,27.652 C89.788,27.2879982 89.8696659,26.9753346 90.033,26.714 C90.1963342,26.4526654 90.4063321,26.2403342 90.663,26.077 C90.919668,25.9136659 91.2089984,25.7923337 91.531,25.713 C91.8530016,25.6336663 92.1726651,25.594 92.49,25.594 C92.9006687,25.594 93.2786649,25.6289997 93.624,25.699 C93.9693351,25.7690004 94.2749987,25.8903325 94.541,26.063 C94.8070013,26.2356675 95.0193325,26.4689985 95.178,26.763 C95.3366675,27.0570015 95.4299999,27.4233311 95.458,27.862 L94.268,27.862 C94.2493332,27.6286655 94.1886672,27.4350008 94.086,27.281 C93.9833328,27.1269992 93.8526675,27.0033338 93.694,26.91 C93.5353325,26.8166662 93.3603343,26.7490002 93.169,26.707 C92.9776657,26.6649998 92.784001,26.644 92.588,26.644 C92.4106658,26.644 92.2310009,26.6579999 92.049,26.686 C91.8669991,26.7140001 91.7013341,26.7629997 91.552,26.833 C91.4026659,26.9030004 91.2813338,26.9963328 91.188,27.113 C91.0946662,27.2296673 91.048,27.3813324 91.048,27.568 C91.048,27.7733344 91.1203326,27.943666 91.265,28.079 C91.4096674,28.214334 91.5939989,28.3263329 91.818,28.415 C92.0420011,28.5036671 92.2939986,28.578333 92.574,28.639 C92.8540014,28.699667 93.1339986,28.7626663 93.414,28.828 C93.7126682,28.8933337 94.0043319,28.9726662 94.289,29.066 C94.5736681,29.1593338 94.8256656,29.2829992 95.045,29.437 C95.2643344,29.5910008 95.441666,29.7846655 95.577,30.018 C95.712334,30.2513345 95.78,30.5406649 95.78,30.886 C95.78,31.3246689 95.6890009,31.6886652 95.507,31.978 C95.3249991,32.2673348 95.0870015,32.5006658 94.793,32.678 C94.4989985,32.8553342 94.1676685,32.9789997 93.799,33.049 C93.4303315,33.1190004 93.0640018,33.154 92.7,33.154 C92.2986647,33.154 91.9160018,33.1120004 91.552,33.028 C91.1879982,32.9439996 90.8660014,32.8063343 90.586,32.615 C90.3059986,32.4236657 90.0820008,32.1716682 89.914,31.859 C89.7459992,31.5463318 89.6526668,31.1660022 89.634,30.718 L90.824,30.718 Z M102.522,28.688 C102.503333,28.4079986 102.440334,28.1420013 102.333,27.89 C102.225666,27.6379987 102.081001,27.4210009 101.899,27.239 C101.716999,27.0569991 101.502335,26.9123339 101.255,26.805 C101.007665,26.6976661 100.734668,26.644 100.436,26.644 C100.127998,26.644 99.8503346,26.6976661 99.603,26.805 C99.3556654,26.9123339 99.1433342,27.0593324 98.966,27.246 C98.7886658,27.4326676 98.6486672,27.6496654 98.546,27.897 C98.4433328,28.1443346 98.3826668,28.4079986 98.364,28.688 L102.522,28.688 Z M103.67,30.704 C103.511333,31.5160041 103.161336,32.1273313 102.62,32.538 C102.078664,32.9486687 101.397337,33.154 100.576,33.154 C99.9973304,33.154 99.4956688,33.0606676 99.071,32.874 C98.6463312,32.6873324 98.2893348,32.4260017 98,32.09 C97.7106652,31.7539983 97.4936674,31.352669 97.349,30.886 C97.2043326,30.419331 97.1226668,29.9106694 97.104,29.36 C97.104,28.8093306 97.1879992,28.3053356 97.356,27.848 C97.5240008,27.3906644 97.7596651,26.9940017 98.063,26.658 C98.3663348,26.3219983 98.7256646,26.0606676 99.141,25.874 C99.5563354,25.6873324 100.011331,25.594 100.506,25.594 C101.150003,25.594 101.684331,25.7269987 102.109,25.993 C102.533669,26.2590013 102.874332,26.5973313 103.131,27.008 C103.387668,27.4186687 103.565,27.8666642 103.663,28.352 C103.761,28.8373358 103.800667,29.2993311 103.782,29.738 L98.364,29.738 C98.3546666,30.0553349 98.3919996,30.3563319 98.476,30.641 C98.5600004,30.9256681 98.6953324,31.1776656 98.882,31.397 C99.0686676,31.6163344 99.3066652,31.7913327 99.596,31.922 C99.8853348,32.0526673 100.225998,32.118 100.618,32.118 C101.122003,32.118 101.534998,32.0013345 101.857,31.768 C102.179002,31.5346655 102.391333,31.1800024 102.494,30.704 L103.67,30.704 Z" id="SmartStore-Enterpris" fill="#333333"></path>
                <g id="Artboard-Copy">
                    <g id="Rectangle" opacity="0" transform="translate(0.000000, 1.085791)">
                        <g id="path-1-link" fill="#D8D8D8">
                            <rect id="path-1" x="0" y="0" width="32" height="31.9142091"></rect>
                        </g>
                        <rect id="Rectangle-path" stroke="#979797" stroke-width="0.5" x="0.0430107527" y="0.0428954424" width="31.9139785" height="31.8284182"></rect>
                    </g>
                    <polygon id="Path-2" fill="#20C05C" fill-rule="nonzero" transform="translate(12.276383, 17.925969) rotate(180.000000) translate(-12.276383, -17.925969) " points="19.4989653 18.9937192 8.63878778 12.1173528 5.05380095 14.5312297 19.4757719 23.7345845"></polygon>
                    <polygon id="Combined-Shape" fill="#20C05C" fill-rule="nonzero" transform="translate(15.995621, 27.191384) rotate(180.000000) translate(-15.995621, -27.191384) " points="16.1089915 26.106484 8.89789157 30.6980861 5.03280723 28.2460392 16.0982577 21.3960579 16.0982577 21.3827684 16.1088704 21.3894881 16.1197255 21.3827684 16.1197255 21.3963613 26.9584351 28.2591348 26.9352418 33"></polygon>
                    <g id="Group" transform="translate(16.010753, 11.432976) rotate(180.000000) translate(-16.010753, -11.432976) translate(5.010753, 0.932976)" fill="#333333" fill-rule="nonzero">
                        <polygon id="Path-2" transform="translate(7.287136, 5.858945) rotate(180.000000) translate(-7.287136, -5.858945) " points="14.509718 6.92669509 3.64954045 0.0503287078 0.0645536344 2.46420557 14.4865246 11.6675603"></polygon>
                        <polygon id="Combined-Shape" transform="translate(11.006374, 15.124360) rotate(180.000000) translate(-11.006374, -15.124360) " points="11.1197442 14.0394599 3.90864424 18.631062 0.043559914 16.179015 11.1090104 9.32903378 11.1090104 9.31574426 11.1196231 9.322464 11.1304781 9.31574426 11.1304781 9.32933714 21.9691878 16.1921107 21.9459945 20.9329759"></polygon>
                    </g>
                </g>
            </g>
            <path d="M40.3792,14.4496 C40.3792,14.9104023 40.4623992,15.3007984 40.6288,15.6208 C40.7952008,15.9408016 41.0159986,16.199999 41.2912,16.3984 C41.5664014,16.596801 41.8895981,16.7439995 42.2608,16.84 C42.6320019,16.9360005 43.015998,16.984 43.4128,16.984 C43.6816013,16.984 43.9695985,16.9616002 44.2768,16.9168 C44.5840015,16.8719998 44.8719987,16.7856006 45.1408,16.6576 C45.4096013,16.5295994 45.6335991,16.3536011 45.8128,16.1296 C45.9920009,15.9055989 46.0816,15.6208017 46.0816,15.2752 C46.0816,14.9039981 45.9632012,14.6032012 45.7264,14.3728 C45.4895988,14.1423988 45.1792019,13.9504008 44.7952,13.7968 C44.4111981,13.6431992 43.9760024,13.5088006 43.4896,13.3936 C43.0031976,13.2783994 42.5104025,13.1504007 42.0112,13.0096 C41.4991974,12.8815994 41.0000024,12.7248009 40.5136,12.5392 C40.0271976,12.3535991 39.5920019,12.1136015 39.208,11.8192 C38.8239981,11.5247985 38.5136012,11.1568022 38.2768,10.7152 C38.0399988,10.2735978 37.9216,9.73920314 37.9216,9.112 C37.9216,8.40799648 38.0719985,7.79680259 38.3728,7.2784 C38.6736015,6.75999741 39.0671976,6.32800173 39.5536,5.9824 C40.0400024,5.63679827 40.5903969,5.38080083 41.2048,5.2144 C41.8192031,5.04799917 42.4335969,4.9648 43.048,4.9648 C43.7648036,4.9648 44.4527967,5.0447992 45.112,5.2048 C45.7712033,5.3648008 46.3567974,5.62399821 46.8688,5.9824 C47.3808026,6.34080179 47.7871985,6.79839722 48.088,7.3552 C48.3888015,7.91200278 48.5392,8.58719603 48.5392,9.3808 L45.6208,9.3808 C45.5951999,8.97119795 45.5088007,8.63200134 45.3616,8.3632 C45.2143993,8.09439866 45.0192012,7.88320077 44.776,7.7296 C44.5327988,7.57599923 44.2544016,7.46720032 43.9408,7.4032 C43.6271984,7.33919968 43.2848019,7.3072 42.9136,7.3072 C42.6703988,7.3072 42.4272012,7.33279974 42.184,7.384 C41.9407988,7.43520026 41.720001,7.52479936 41.5216,7.6528 C41.323199,7.78080064 41.1600006,7.94079904 41.032,8.1328 C40.9039994,8.32480096 40.84,8.56799853 40.84,8.8624 C40.84,9.13120134 40.8911995,9.34879917 40.9936,9.5152 C41.0960005,9.68160083 41.2975985,9.8351993 41.5984,9.976 C41.8992015,10.1168007 42.3151973,10.2575993 42.8464,10.3984 C43.3776027,10.5392007 44.0719957,10.7183989 44.9296,10.936 C45.1856013,10.9872003 45.5407977,11.0799993 45.9952,11.2144 C46.4496023,11.3488007 46.9007978,11.5631985 47.3488,11.8576 C47.7968022,12.1520015 48.1839984,12.5455975 48.5104,13.0384 C48.8368016,13.5312025 49,14.1615962 49,14.9296 C49,15.5568031 48.8784012,16.1391973 48.6352,16.6768 C48.3919988,17.2144027 48.0304024,17.678398 47.5504,18.0688 C47.0703976,18.459202 46.4752036,18.7631989 45.7648,18.9808 C45.0543964,19.1984011 44.2320047,19.3072 43.2976,19.3072 C42.5423962,19.3072 41.8096036,19.2144009 41.0992,19.0288 C40.3887964,18.8431991 39.7616027,18.552002 39.2176,18.1552 C38.6735973,17.758398 38.2416016,17.2528031 37.9216,16.6384 C37.6015984,16.0239969 37.4479999,15.2944042 37.4608,14.4496 L40.3792,14.4496 Z" id="Path" fill="#20C05C"></path>
            <path d="M51.0744,9.0736 L53.6472,9.0736 L53.6472,10.4176 L53.6856,10.4176 C54.0440018,9.90559744 54.4759975,9.50880141 54.9816,9.2272 C55.4872025,8.94559859 56.0663967,8.8048 56.7192,8.8048 C57.3464031,8.8048 57.9191974,8.92639878 58.4376,9.1696 C58.9560026,9.41280122 59.3495987,9.84159693 59.6184,10.456 C59.9128015,10.0207978 60.3127975,9.63680166 60.8184,9.304 C61.3240025,8.97119834 61.9223965,8.8048 62.6136,8.8048 C63.1384026,8.8048 63.6247978,8.86879936 64.0728,8.9968 C64.5208022,9.12480064 64.9047984,9.32959859 65.2248,9.6112 C65.5448016,9.89280141 65.7943991,10.2607977 65.9736,10.7152 C66.1528009,11.1696023 66.2424,11.7167968 66.2424,12.3568 L66.2424,19 L63.516,19 L63.516,13.3744 C63.516,13.0415983 63.5032001,12.7280015 63.4776,12.4336 C63.4519999,12.1391985 63.3816006,11.8832011 63.2664,11.6656 C63.1511994,11.4479989 62.9816011,11.2752006 62.7576,11.1472 C62.5335989,11.0191994 62.2296019,10.9552 61.8456,10.9552 C61.4615981,10.9552 61.1512012,11.0287993 60.9144,11.176 C60.6775988,11.3232007 60.4920007,11.5151988 60.3576,11.752 C60.2231993,11.9888012 60.1336002,12.2575985 60.0888,12.5584 C60.0439998,12.8592015 60.0216,13.1631985 60.0216,13.4704 L60.0216,19 L57.2952,19 L57.2952,13.432 C57.2952,13.1375985 57.2888001,12.8464014 57.276,12.5584 C57.2631999,12.2703986 57.2088005,12.0048012 57.1128,11.7616 C57.0167995,11.5183988 56.8568011,11.3232007 56.6328,11.176 C56.4087989,11.0287993 56.0792022,10.9552 55.644,10.9552 C55.5159994,10.9552 55.3464011,10.9839997 55.1352,11.0416 C54.9239989,11.0992003 54.719201,11.2079992 54.5208,11.368 C54.322399,11.5280008 54.1528007,11.7583985 54.012,12.0592 C53.8711993,12.3600015 53.8008,12.7535976 53.8008,13.24 L53.8008,19 L51.0744,19 L51.0744,9.0736 Z" id="Path" fill="#20C05C"></path>
            <path d="M68.7776,12.1264 C68.8160002,11.4863968 68.9759986,10.9552021 69.2576,10.5328 C69.5392014,10.1103979 69.8975978,9.77120128 70.3328,9.5152 C70.7680022,9.25919872 71.2575973,9.07680054 71.8016,8.968 C72.3456027,8.85919946 72.8927972,8.8048 73.4432,8.8048 C73.9424025,8.8048 74.4479974,8.83999965 74.96,8.9104 C75.4720026,8.98080035 75.9391979,9.11839898 76.3616,9.3232 C76.7840021,9.52800102 77.1295987,9.81279818 77.3984,10.1776 C77.6672013,10.5424018 77.8016,11.025597 77.8016,11.6272 L77.8016,16.792 C77.8016,17.2400022 77.8271997,17.668798 77.8784,18.0784 C77.9296003,18.488002 78.0191994,18.795199 78.1472,19 L75.3824,19 C75.3311997,18.8463992 75.2896002,18.6896008 75.2576,18.5296 C75.2255998,18.3695992 75.2032001,18.2064008 75.1904,18.04 C74.7551978,18.4880022 74.2432029,18.8015991 73.6544,18.9808 C73.0655971,19.1600009 72.4640031,19.2496 71.8496,19.2496 C71.3759976,19.2496 70.934402,19.1920006 70.5248,19.0768 C70.115198,18.9615994 69.7568015,18.7824012 69.4496,18.5392 C69.1423985,18.2959988 68.9024009,17.9888019 68.7296,17.6176 C68.5567991,17.2463981 68.4704,16.8048026 68.4704,16.2928 C68.4704,15.7295972 68.569599,15.2656018 68.768,14.9008 C68.966401,14.5359982 69.2223984,14.2448011 69.536,14.0272 C69.8496016,13.8095989 70.207998,13.6464005 70.6112,13.5376 C71.014402,13.4287995 71.420798,13.3424003 71.8304,13.2784 C72.240002,13.2143997 72.643198,13.1632002 73.04,13.1248 C73.436802,13.0863998 73.7887985,13.0288004 74.096,12.952 C74.4032015,12.8751996 74.6463991,12.7632007 74.8256,12.616 C75.0048009,12.4687993 75.0880001,12.2544014 75.0752,11.9728 C75.0752,11.6783985 75.0272005,11.4448009 74.9312,11.272 C74.8351995,11.0991991 74.7072008,10.9648005 74.5472,10.8688 C74.3871992,10.7727995 74.2016011,10.7088002 73.9904,10.6768 C73.7791989,10.6447998 73.5520012,10.6288 73.3088,10.6288 C72.7711973,10.6288 72.3488015,10.7439988 72.0416,10.9744 C71.7343985,11.2048012 71.5552003,11.5887973 71.504,12.1264 L68.7776,12.1264 Z M75.0752,14.1424 C74.9599994,14.2448005 74.8160009,14.3247997 74.6432,14.3824 C74.4703991,14.4400003 74.284801,14.4879998 74.0864,14.5264 C73.887999,14.5648002 73.6800011,14.5967999 73.4624,14.6224 C73.2447989,14.6480001 73.0272011,14.6799998 72.8096,14.7184 C72.604799,14.7568002 72.403201,14.8079997 72.2048,14.872 C72.006399,14.9360003 71.8336007,15.0223995 71.6864,15.1312 C71.5391993,15.2400005 71.4208004,15.3775992 71.3312,15.544 C71.2415996,15.7104008 71.1968,15.9215987 71.1968,16.1776 C71.1968,16.4208012 71.2415996,16.6255992 71.3312,16.792 C71.4208004,16.9584008 71.5423992,17.0895995 71.696,17.1856 C71.8496008,17.2816005 72.028799,17.3487998 72.2336,17.3872 C72.438401,17.4256002 72.6495989,17.4448 72.8672,17.4448 C73.4048027,17.4448 73.8207985,17.3552009 74.1152,17.176 C74.4096015,16.9967991 74.6271993,16.7824012 74.768,16.5328 C74.9088007,16.2831988 74.9951998,16.0304013 75.0272,15.7744 C75.0592002,15.5183987 75.0752,15.3136008 75.0752,15.16 L75.0752,14.1424 Z" id="Combined-Shape" fill="#20C05C"></path>
            <path d="M80.4136,9.0736 L83.0056,9.0736 L83.0056,10.9168 L83.044,10.9168 C83.1720006,10.6095985 83.3447989,10.3248013 83.5624,10.0624 C83.7800011,9.79999869 84.0295986,9.57600093 84.3112,9.3904 C84.5928014,9.20479907 84.8935984,9.06080051 85.2136,8.9584 C85.5336016,8.85599949 85.8663983,8.8048 86.212,8.8048 C86.3912009,8.8048 86.5895989,8.83679968 86.8072,8.9008 L86.8072,11.4352 C86.6791994,11.4095999 86.5256009,11.3872001 86.3464,11.368 C86.1671991,11.3487999 85.9944008,11.3392 85.828,11.3392 C85.3287975,11.3392 84.9064017,11.4223992 84.5608,11.5888 C84.2151983,11.7552008 83.9368011,11.9823986 83.7256,12.2704 C83.5143989,12.5584014 83.3640004,12.8943981 83.2744,13.2784 C83.1847996,13.6624019 83.14,14.0783978 83.14,14.5264 L83.14,19 L80.4136,19 L80.4136,9.0736 Z" id="Path" fill="#20C05C"></path>
            <path d="M91.8384,9.0736 L93.8352,9.0736 L93.8352,10.8976 L91.8384,10.8976 L91.8384,15.8128 C91.8384,16.2736023 91.9151992,16.5807992 92.0688,16.7344 C92.2224008,16.8880008 92.5295977,16.9648 92.9904,16.9648 C93.1440008,16.9648 93.2911993,16.9584001 93.432,16.9456 C93.5728007,16.9327999 93.7071994,16.9136001 93.8352,16.888 L93.8352,19 C93.6047988,19.0384002 93.3488014,19.0639999 93.0672,19.0768 C92.7855986,19.0896001 92.5104013,19.096 92.2416,19.096 C91.8191979,19.096 91.4192019,19.0672003 91.0416,19.0096 C90.6639981,18.9519997 90.3312014,18.8400008 90.0432,18.6736 C89.7551986,18.5071992 89.5280008,18.2704015 89.3616,17.9632 C89.1951992,17.6559985 89.112,17.2528025 89.112,16.7536 L89.112,10.8976 L87.4608,10.8976 L87.4608,9.0736 L89.112,9.0736 L89.112,6.0976 L91.8384,6.0976 L91.8384,9.0736 Z" id="Path" fill="#20C05C"></path>
        </g>
    </g>
</svg>