<svg xmlns="http://www.w3.org/2000/svg" xmlns:xlink="http://www.w3.org/1999/xlink" width="400" height="143" viewBox="0 0 400 143">
    <defs>
        <path id="a" d="M0 0h400v143H0z"/>
        <path id="b" d="M0 0h100.716v100.716H0z"/>
    </defs>
    <g fill="none" fill-rule="evenodd">
        <g>
            <use fill="#FEE" xlink:href="#a"/>
            <path stroke="#F8E6E6" d="M.5.5h399v142H.5z"/>
        </g>
        <g fill="#80959D" fill-rule="nonzero" opacity=".2" transform="translate(221.885 38.208)">
            <g transform="translate(0 29.551)">
                <path d="M4.076 33.627h45.855V4.076H4.076v29.551zM0 0h54.007v37.703H0V0z"/>
                <path d="M9.171 27.513l6.115-17.323 10.981 12.407 6.341-3.05v7.966z"/>
                <circle cx="41.779" cy="14.266" r="4.076"/>
            </g>
            <path d="M35.104 7.04l43.533 24.646-16.229 27.548-5.988-3.213.387 5.462 7.762 4.132 21.088-35.81L33.215.116l-15.381 27.16 6.28-1.172z" opacity=".5"/>
            <circle cx="63.179" cy="37.703" r="4.076" opacity=".5"/>
            <path d="M33.627 25.475h10.19l-1.85-8.152z" opacity=".5"/>
        </g>
        <path fill="#80959D" d="M86 60h107.399v6.683H86z" opacity=".2"/>
        <path fill="#80959D" d="M86 76h83.532v6.683H86z" opacity=".1"/>
    </g>
</svg>
