<svg xmlns="http://www.w3.org/2000/svg" width="14" height="14" viewBox="0 0 14 14">
    <g fill="none" fill-rule="evenodd">
        <path d="M-5-5h24v24H-5z" opacity=".05"/>
        <path stroke="#80959D" d="M3.384 1.062c-.15 0-.29.055-.387.151-.016.016-.705.65-1.107 1.071-.942.98-1.086 2.18-.44 3.674.492 1.137 1.461 2.419 2.964 3.921 2.28 2.28 4.047 3.342 5.56 3.342.76 0 1.447-.29 2.04-.86a23.323 23.323 0 0 0 1.06-1.058.55.55 0 0 0 .008-.782L11.26 8.7a.55.55 0 0 0-.388-.152c-.15 0-.29.055-.387.152l-.81.81a1.174 1.174 0 0 1-.827.332c-.314 0-.615-.121-.827-.333L4.784 6.272a1.162 1.162 0 0 1-.342-.827c0-.313.12-.606.341-.827l.81-.809a.544.544 0 0 0 .16-.387.542.542 0 0 0-.16-.387L3.772 1.213a.548.548 0 0 0-.388-.151z"/>
    </g>
</svg>
