<svg xmlns="http://www.w3.org/2000/svg" width="16" height="13" viewBox="0 0 16 13">
    <path fill="#FFF" fill-rule="nonzero" d="M15.263 1.468a6.23 6.23 0 0 1-1.799.493c.647-.387 1.143-1 1.377-1.732-.605.359-1.275.62-1.988.76a3.131 3.131 0 0 0-5.336 2.856A8.891 8.891 0 0 1 1.063.573a3.13 3.13 0 0 0 .97 4.18 3.122 3.122 0 0 1-1.42-.39v.039a3.134 3.134 0 0 0 2.512 3.07 3.148 3.148 0 0 1-1.414.053A3.135 3.135 0 0 0 4.636 9.7 6.282 6.282 0 0 1 0 10.997a8.861 8.861 0 0 0 4.8 1.407c5.76 0 8.91-4.772 8.91-8.91 0-.135-.003-.27-.01-.405a6.342 6.342 0 0 0 1.563-1.62z"/>
</svg>
