<svg xmlns="http://www.w3.org/2000/svg" width="17" height="16" viewBox="0 0 17 16">
    <g fill="#FFF" fill-rule="nonzero">
        <path d="M16.406 6.284h-2.504V3.781a.346.346 0 0 0-.346-.347h-.713a.347.347 0 0 0-.347.347v2.503H9.992a.347.347 0 0 0-.346.347v.713c0 .191.156.346.346.346h2.504v2.505c0 .191.155.346.347.346h.713c.191 0 .346-.155.346-.346V7.69h2.504c.19 0 .346-.155.346-.346V6.63a.347.347 0 0 0-.346-.347z"/>
        <path d="M7.991 8.48c-.526-.374-1.005-.92-1.013-1.089 0-.306.027-.452.713-.987.888-.694 1.376-1.608 1.376-2.573 0-.875-.267-1.652-.722-2.198h.353a.345.345 0 0 0 .203-.065l.985-.714a.347.347 0 0 0-.202-.627H5.278c-.482 0-.971.085-1.452.25-1.605.554-2.728 1.922-2.728 3.326 0 1.99 1.541 3.498 3.602 3.545-.04.158-.061.313-.061.466 0 .306.078.597.238.877H4.82c-1.964 0-3.737.964-4.41 2.398a2.63 2.63 0 0 0-.264 1.122c0 .362.093.71.275 1.038.423.757 1.331 1.344 2.559 1.654.634.16 1.315.241 2.022.241.635 0 1.24-.082 1.8-.244 1.747-.507 2.876-1.792 2.876-3.276 0-1.423-.458-2.276-1.687-3.145zm-5.563 3.258c0-1.035 1.315-1.944 2.815-1.944h.04c.327.004.645.052.945.144l.298.204c.694.473 1.153.786 1.281 1.287.03.126.045.253.045.375 0 1.29-.962 1.943-2.86 1.943-1.438 0-2.564-.882-2.564-2.009zm1.364-9.785c.235-.268.542-.41.886-.41l.04.001c.973.029 1.905 1.114 2.076 2.419.096.73-.066 1.418-.434 1.836-.235.269-.537.41-.896.41h-.016c-.954-.03-1.906-1.156-2.076-2.459-.096-.729.058-1.384.42-1.797z"/>
    </g>
</svg>
