<svg xmlns="http://www.w3.org/2000/svg" width="8" height="13" viewBox="0 0 8 13">
    <g fill="none" fill-rule="evenodd">
        <path d="M-8-6h24v24H-8z" opacity=".05"/>
        <path fill="#EB8181" d="M3.963.8A3.865 3.865 0 0 0 .11 4.653c0 2.838 3.573 7.112 3.713 7.287l.14.157.14-.157c.14-.175 3.714-4.45 3.714-7.287A3.865 3.865 0 0 0 3.963.8z"/>
        <path fill="#FFF" d="M3.963 6.055c-.77 0-1.401-.63-1.401-1.402 0-.77.63-1.4 1.401-1.4.77 0 1.401.63 1.401 1.4 0 .771-.63 1.402-1.4 1.402z"/>
    </g>
</svg>
