<svg xmlns="http://www.w3.org/2000/svg" width="23" height="26" viewBox="0 0 23 26">
    <g fill="none" fill-rule="evenodd">
        <path d="M-3-2h30v30H-3z"/>
        <path fill="#FFF" stroke="#80959D" d="M1 1.273V25l3.33-3.716 3.397 3.397 3.484-3.763 3.556 3.763 3.556-3.763 3.547 3.763V1z"/>
        <path stroke="#80959D" d="M4.424 7.704H7.04l1.766 6.261h6.385l1.754-4.65h-9.57"/>
        <path fill="#80959D" d="M9.91 18.343a1.043 1.043 0 1 0 0-2.087 1.043 1.043 0 0 0 0 2.087zM14.407 18.343a1.043 1.043 0 1 0 0-2.087 1.043 1.043 0 0 0 0 2.087z"/>
    </g>
</svg>
