<?xml version="1.0" encoding="UTF-8"?>
<svg width="24px" height="24px" viewBox="0 0 24 24" version="1.1" xmlns="http://www.w3.org/2000/svg" xmlns:xlink="http://www.w3.org/1999/xlink">
    <!-- Generator: Sketch 48.1 (47250) - http://www.bohemiancoding.com/sketch -->
    <title>Artboard 5</title>
    <desc>Created with Sketch.</desc>
    <defs></defs>
    <g id="Page-1" stroke="none" stroke-width="1" fill="none" fill-rule="evenodd">
        <g id="Artboard-5" fill="#80959D" fill-rule="nonzero">
            <g id="iconfinder_Streamline-67_185087-(1)">
                <path d="M5.748,23.5667368 C4.56694737,23.5667368 3.45663158,23.1063158 2.62168421,22.2713684 L1.728,21.3789474 C0.00442105263,19.6553684 0.00442105263,16.8498947 1.728,15.1269474 L7.53347368,9.32147368 C8.36842105,8.48652632 9.47873684,8.02610526 10.6597895,8.02610526 C11.8408421,8.02610526 12.9511579,8.48652632 13.7854737,9.32147368 L14.6785263,10.2145263 C14.9254737,10.4614737 14.9254737,10.8606316 14.6785263,11.1075789 C14.4315789,11.3545263 14.0324211,11.3545263 13.7854737,11.1075789 L12.8924211,10.2145263 C12.2962105,9.61831579 11.5029474,9.28926316 10.6597895,9.28926316 C9.816,9.28926316 9.02273684,9.61831579 8.42652632,10.2145263 L2.62105263,16.0193684 C1.39010526,17.2503158 1.39010526,19.2536842 2.62105263,20.4852632 L3.51410526,21.3783158 C4.11031579,21.9745263 4.90357895,22.3035789 5.74736842,22.3035789 C6.59052632,22.3035789 7.38378947,21.9745263 7.98,21.3783158 L12,17.3589474 C12.2469474,17.112 12.6461053,17.112 12.8930526,17.3589474 C13.14,17.6058947 13.14,18.0050526 12.8930526,18.252 L8.87368421,22.2713684 C8.03936842,23.1069474 6.92905263,23.5667368 5.748,23.5667368 Z" id="Shape"></path>
                <path d="M13.3395789,15.9745263 C12.1591579,15.9745263 11.0482105,15.5141053 10.2138947,14.6791579 C9.96694737,14.4322105 9.96694737,14.0330526 10.2138947,13.7861053 C10.4608421,13.5391579 10.86,13.5391579 11.1069474,13.7861053 C11.7031579,14.3823158 12.4964211,14.7113684 13.3395789,14.7113684 C14.1833684,14.7113684 14.9766316,14.3823158 15.5728421,13.7861053 L21.3783158,7.98063158 C22.6092632,6.74968421 22.6092632,4.74631579 21.3783158,3.51536842 L20.4858947,2.62105263 C19.2549474,1.39010526 17.2509474,1.39010526 16.02,2.62105263 L12,6.64105263 C11.7530526,6.888 11.3538947,6.888 11.1069474,6.64105263 C10.86,6.39410526 10.86,5.99494737 11.1069474,5.748 L15.1263158,1.72863158 C16.8498947,0.00505263158 19.6547368,0.00505263158 21.3783158,1.72863158 L22.2713684,2.62231579 C23.9949474,4.34589474 23.9949474,7.15073684 22.2713684,8.87368421 L16.4658947,14.6791579 C15.6315789,15.5141053 14.5206316,15.9745263 13.3395789,15.9745263 Z" id="Shape"></path>
            </g>
        </g>
    </g>
</svg>