<svg xmlns="http://www.w3.org/2000/svg" width="13" height="12" viewBox="0 0 13 12">
    <g fill="none" fill-rule="evenodd" opacity=".5">
        <path d="M-5.025-5.397h22.811v23.016h-22.81z"/>
        <path fill="#FFF" fill-rule="nonzero" d="M12.634 7.395v4.561H10.06V7.701c0-1.07-.372-1.8-1.304-1.8-.712 0-1.135.493-1.321.968-.068.17-.086.407-.086.645v4.442H4.772s.035-7.208 0-7.954h2.576v1.127l-.017.026h.017v-.026c.342-.541.953-1.314 2.321-1.314 1.695 0 2.965 1.137 2.965 3.58zM2.091.265C1.211.266.634.853.634 1.623c0 .754.56 1.358 1.423 1.358h.017c.898 0 1.457-.604 1.457-1.358C3.514.852 2.972.266 2.09.266zM.841 11.957h2.483V4.024H.841v7.932z"/>
    </g>
</svg>
