<svg xmlns="http://www.w3.org/2000/svg" xmlns:xlink="http://www.w3.org/1999/xlink" width="299" height="221" viewBox="0 0 299 221">
    <defs>
        <linearGradient id="a" x1="169.961%" x2="38.532%" y1="-324.054%" y2="125.543%">
            <stop offset="0%" stop-color="#44C0FF"/>
            <stop offset="100%" stop-color="#B9F9F0" stop-opacity="0"/>
        </linearGradient>
        <path id="b" d="M30.77 101.378h18.46V108H30.77z"/>
    </defs>
    <g fill="none" fill-rule="evenodd">
        <path d="M-1-40h300v300H-1z"/>
        <path fill="url(#a)" d="M264.255 111.742C263.59 172.197 214.41 221 153.842 221 92.86 221 43.423 171.527 43.423 110.5c0-5.053.34-10.026.995-14.899H9.933C4.447 95.601 0 91.154 0 85.67c0-5.486 4.447-9.933 9.933-9.933h78.146c5.486 0 9.933-4.447 9.933-9.933a9.936 9.936 0 0 0-6.468-9.311 9.912 9.912 0 0 1-3.464.62H42.19c-5.486 0-9.933-4.447-9.933-9.932 0-5.486 4.447-9.933 9.933-9.933H71.17C91.401 14.401 120.941 0 153.842 0 201.3 0 241.763 29.96 257.38 72.011h31.688c5.486 0 9.933 4.447 9.933 9.933 0 5.485-4.447 9.932-9.933 9.932h-48.371c-5.486 0-9.933 4.447-9.933 9.933s4.447 9.933 9.933 9.933h23.559z"/>
        <g transform="translate(109 66)">
            <path fill="#87D5FA" d="M16.632 82C3.905 83.405-1.518 88.598.363 97.578c1.882 8.98 4.224 16.228 7.028 21.744 1.896.904 3.294.904 4.195 0 .9-.903.9-7.19 0-18.862-.522-4.719 2.796-6.787 9.952-6.205M63.368 82c12.727 1.405 18.15 6.598 16.269 15.578-1.882 8.98-4.224 16.228-7.028 21.744-1.896.904-3.294.904-4.195 0-.9-.903-.9-7.19 0-18.862.522-4.719-2.796-6.787-9.952-6.205"/>
            <path fill="#FFF" stroke="#64808C" d="M34.844 2.428C36.806.809 38.539 0 40.04 0c.478 0 2.13.686 3.93 1.95C73.288 26.594 76.557 59.944 53.777 102H26.928C3.698 62.13 6.336 28.94 34.844 2.428z"/>
            <path stroke="#64808C" d="M21.538 18c11.966 4 23.932 4 35.898 0"/>
            <ellipse cx="39.487" cy="41" fill="#EB8181" rx="10.769" ry="11"/>
            <use fill="#FFF" xlink:href="#b"/>
            <path stroke="#64808C" d="M31.27 101.878v5.622h17.46v-5.622H31.27z"/>
            <path fill="#FFF" stroke="#64808C" d="M37.58 83.961c2.162-1.281 4.141-1.281 5.937 0 2.409 9.082 2.117 22.095-.876 39.039h-3.833c-3.416-20.546-3.825-33.56-1.228-39.039z"/>
        </g>
    </g>
</svg>
