<svg xmlns="http://www.w3.org/2000/svg" xmlns:xlink="http://www.w3.org/1999/xlink" width="299" height="221" viewBox="0 0 299 221">
    <defs>
        <linearGradient id="a" x1="169.961%" x2="38.532%" y1="-324.054%" y2="125.543%">
            <stop offset="0%" stop-color="#44C0FF"/>
            <stop offset="100%" stop-color="#B9F9F0" stop-opacity="0"/>
        </linearGradient>
        <path id="b" d="M10.882 41.89h112.094l9.133 79.78H.57z"/>
        <path id="c" d="M17.403 46.581h98.913l8.06 70.4H8.303z"/>
    </defs>
    <g fill="none" fill-rule="evenodd">
        <path d="M-1-40h300v300H-1z"/>
        <path fill="url(#a)" d="M264.255 111.742C263.59 172.197 214.41 221 153.842 221 92.86 221 43.423 171.527 43.423 110.5c0-5.053.34-10.026.995-14.899H9.933C4.447 95.601 0 91.154 0 85.67c0-5.486 4.447-9.933 9.933-9.933h78.146c5.486 0 9.933-4.447 9.933-9.933a9.936 9.936 0 0 0-6.468-9.311 9.912 9.912 0 0 1-3.464.62H42.19c-5.486 0-9.933-4.447-9.933-9.932 0-5.486 4.447-9.933 9.933-9.933H71.17C91.401 14.401 120.941 0 153.842 0 201.3 0 241.763 29.96 257.38 72.011h31.688c5.486 0 9.933 4.447 9.933 9.933 0 5.485-4.447 9.932-9.933 9.932h-48.371c-5.486 0-9.933 4.447-9.933 9.933s4.447 9.933 9.933 9.933h23.559z"/>
        <g transform="translate(84 66)">
            <use fill="#FFF" xlink:href="#b"/>
            <path stroke="#64808C" d="M11.321 42.39L1.138 121.17h130.41l-9.018-78.78H11.32z"/>
            <use fill="#FFF" xlink:href="#c"/>
            <path stroke="#64808C" d="M17.842 47.081l-8.97 69.4h114.943l-7.945-69.4H17.842z"/>
            <path stroke="#EB8181" stroke-dasharray="4,4,4,4" d="M32.96 83.371c-9.562 1.25-12.726 5.836-9.493 13.757 4.175 6.417 11.919 6.417 23.231 0 16.968-9.625 21.367-19.937 43.363-17.248 16.152-.52 22.926-6.046 20.324-16.579-2.256-4.964-6.147-6.6-11.675-4.909"/>
            <ellipse cx="67" cy="81.85" fill="#EB8181" rx="6.084" ry="3.55"/>
            <path fill="#87D5FA" fill-rule="nonzero" d="M87.506 8.292c-11.324-11.056-29.686-11.056-41.012 0C36.29 18.256 35.14 37.015 43.8 48.288L67 81l23.2-32.712c8.66-11.273 7.51-30.032-2.694-39.996zM67.282 37.384c-5.287 0-9.572-4.184-9.572-9.346s4.285-9.346 9.572-9.346c5.288 0 9.573 4.184 9.573 9.346s-4.285 9.346-9.573 9.346z"/>
            <circle cx="67" cy="29" r="14" fill="#EB8181" transform="rotate(45 67 29)"/>
            <g stroke="#FFF" stroke-linecap="square">
                <path d="M71.243 24.757l-8.486 8.486M71.243 33.243l-8.486-8.486"/>
            </g>
        </g>
    </g>
</svg>
