<?xml version="1.0" encoding="UTF-8"?>
<svg width="24px" height="24px" viewBox="0 0 24 24" version="1.1" xmlns="http://www.w3.org/2000/svg" xmlns:xlink="http://www.w3.org/1999/xlink">
    <!-- Generator: Sketch 48.2 (47327) - http://www.bohemiancoding.com/sketch -->
    <title>order returns</title>
    <desc>Created with Sketch.</desc>
    <defs></defs>
    <g id="new_set" stroke="none" stroke-width="1" fill="none" fill-rule="evenodd">
        <g id="order-returns">
            <g id="Group">
                <rect id="Rectangle-14" x="0" y="0" width="24" height="24"></rect>
                <g id="Group-35" transform="translate(3.000000, 2.000000)" stroke="#80959D">
                    <rect id="Rectangle-23" x="0.5" y="5.5" width="17" height="14"></rect>
                    <path d="M0.738516481,4.5 L17.2614835,4.5 L15.6614835,0.5 L2.33851648,0.5 L0.738516481,4.5 Z" id="Rectangle-23-Copy"></path>
                    <path d="M6.60990195,4.5 L11.390098,4.5 L10.590098,0.5 L7.40990195,0.5 L6.60990195,4.5 Z" id="Rectangle-36"></path>
                </g>
            </g>
            <g id="1321209" transform="translate(9.000000, 12.000000)" fill-rule="nonzero" stroke="#80959D">
                <path d="M11,8.99723133 C11,9.05621779 10.9765631,8.955534 10.9347842,8.99723133 L9.15396053,8.99723133 C9.11129005,9.03969143 9.05435361,8.99723133 8.99652558,8.99723133 C8.96786631,8.99723133 8.93895228,9.00854553 8.911312,8.99723133 C8.82813639,8.96278017 8.77400221,9.08710942 8.77400221,8.99723133 L8.77400221,5.63711744 C8.77400221,5.10140845 8.33736223,4.66562052 7.80073322,4.66562052 L4.55000712,4.66562052 L5.35972718,6.97244897 C5.39182557,7.06372543 5.36100094,7.16517199 5.28381194,7.22326857 C5.20624085,7.28174653 5.10013785,7.28314492 5.02129299,7.2273366 L0.187301106,3.81552896 C0.128454077,3.77383163 0.0934260648,3.70620057 0.0934260648,3.63412015 C0.0934260648,3.56191258 0.128454077,3.49428155 0.187301106,3.45271133 L5.02129299,0.0407765465 C5.10064731,-0.0155402482 5.20815147,-0.0133791143 5.28584994,0.0463700906 C5.3631663,0.105992178 5.39258983,0.208964256 5.35819869,0.30036786 L4.55102612,2.4439665 L8.79132515,2.4439665 C10.0091533,2.4439665 11,3.43287968 11,4.64833138" id="Shape"></path>
            </g>
        </g>
    </g>
</svg>