<svg xmlns="http://www.w3.org/2000/svg" width="116" height="103" viewBox="0 0 116 103">
    <defs>
        <linearGradient id="a" x1="122.685%" x2="43.051%" y1="-324.054%" y2="125.543%">
            <stop offset="0%" stop-color="#44C0FF"/>
            <stop offset="100%" stop-color="#B9F9F0" stop-opacity="0"/>
        </linearGradient>
        <linearGradient id="b" x1="135.879%" x2="41.79%" y1="-324.054%" y2="125.543%">
            <stop offset="0%" stop-color="#44C0FF"/>
            <stop offset="100%" stop-color="#B9F9F0" stop-opacity="0"/>
        </linearGradient>
    </defs>
    <g fill="none" fill-rule="evenodd">
        <path d="M-2-13h120v120H-2z"/>
        <g transform="translate(.857 -2.029)">
            <ellipse cx="65.697" cy="103.773" fill="#D8D8D8" fill-rule="nonzero" rx="1.369" ry="1"/>
            <path fill="url(#a)" fill-rule="nonzero" d="M23.413 92.14C12.318 82.916 5.255 69.015 5.255 53.465c0-4.796.672-9.434 1.927-13.827-.028-.024-1.72-1.545-5.075-4.563a6.362 6.362 0 0 1-.471-8.99 6.372 6.372 0 0 1 8.995-.47l4.95 4.454c.15.135.293.276.428.421a4.246 4.246 0 0 0 4.33-1.099 4.239 4.239 0 0 0-.104-5.996l-2.815-2.716c.004-.004-.81-.802-2.443-2.393a4.239 4.239 0 0 1-.105-5.997 4.246 4.246 0 0 1 6-.104l7.552 7.287a4.247 4.247 0 0 0 4.647-.986 4.234 4.234 0 0 0 1.121-3.712l-8.038-7.757a2.081 2.081 0 0 1-.051-2.945c.799-.827 2.118-.85 2.946-.051l4.415 4.26a50.142 50.142 0 0 1 22.11-5.1c27.79 0 50.318 22.512 50.318 50.284 0 1-.03 1.995-.087 2.981l7.185 6.934a4.239 4.239 0 0 1 .105 5.997 4.246 4.246 0 0 1-6 .104l-6.218-6a2.084 2.084 0 0 0-1.974 3.514l.75.723c.462.242.902.545 1.308.91l4.95 4.455a6.362 6.362 0 0 1 .472 8.99 6.372 6.372 0 0 1-8.995.47l-.465-.417c-2.498 3.593-6.084 7.187-9.412 10.014"/>
            <ellipse cx="9.913" cy="6.25" fill="url(#b)" fill-rule="nonzero" rx="4.448" ry="3.764" transform="rotate(45 9.913 6.25)"/>
            <g stroke="#64808C" stroke-linecap="square">
                <path d="M13.345 93.85h32.164M47.562 93.85h22.583M72.198 93.85h26.69M101.625 93.85h4.106M29.085 98.64h16.438M52.352 98.64h16.439M68.777 102.062h28.058"/>
            </g>
            <ellipse cx="6.159" cy="75.716" stroke="#80959D" stroke-linecap="square" rx="2.053" ry="2.053"/>
            <ellipse cx="73.482" cy="33.367" stroke="#80959D" stroke-linecap="square" rx="2.053" ry="2.053"/>
            <g stroke="#80959D" stroke-linecap="square">
                <path d="M101.283 39.008v2.933M106.074 43.212h-2.738M101.177 47.416v-2.933M97.177 42.764h2.737"/>
            </g>
            <path fill="#738E99" fill-rule="nonzero" d="M15.57 44.872h1.928v.646h-1.927v1.992h-.65v-1.992h-1.918v-.646h1.918V42.87h.65zM7.986 12.025h1.927v.646H7.986v1.993h-.65V12.67H5.416v-.646h1.918v-2.002h.65z"/>
        </g>
        <g fill-rule="nonzero">
            <path fill="#FFF" stroke="#64808C" d="M46.725 49.309l17.42-10.058 8.857 15.341-17.42 10.058z"/>
            <path fill="#87D5FA" d="M50.712 49.929l14.507-8.197 7.421 12.854-14.506 8.197z"/>
            <path fill="#FFF" stroke="#64808C" stroke-width="1.05" d="M58.915 50.306l6.533-3.771 2.847 4.931-6.533 3.772z"/>
        </g>
        <g fill-rule="nonzero">
            <path fill="#FFF" stroke="#64808C" d="M56.215 65.746l20.687-11.944 10.439 18.08-20.687 11.944z"/>
            <path fill="#EB8181" d="M60.202 66.366l17.965-10.372 9.174 15.889-17.965 10.372z"/>
            <path fill="#FFF" stroke="#64808C" stroke-width="1.05" d="M70.545 60.394l4.9-2.828 4.112 7.122-4.9 2.829z"/>
        </g>
        <path stroke="#64808C" d="M32.762 39.331c2.802-1.568 5-.971 6.594 1.79l19.402 33.605"/>
        <g fill-rule="nonzero" transform="rotate(-30 176.253 -50.406)">
            <ellipse cx="6.286" cy="6.327" fill="#FFF" stroke="#64808C" rx="6.286" ry="6.327"/>
            <ellipse cx="6.286" cy="6.327" fill="#87D5FA" rx="3.772" ry="3.796"/>
        </g>
        <path stroke="#64808C" d="M65.056 86.01l.947 1.64L74.057 83"/>
        <path stroke="#64808C" stroke-linecap="square" d="M34.562 80.291l2.59-.045m2.659-.046l9.835-.172M34.65 85.352l2.59-.045m2.66-.047l9.835-.171M30.207 82.898l2.59-.045m2.658-.046l9.836-.172"/>
    </g>
</svg>
