<svg xmlns="http://www.w3.org/2000/svg" width="19" height="15" viewBox="0 0 19 15">
    <defs>
        <path id="a" d="M.667.667h22.667v22.667H.667z"/>
    </defs>
    <g fill="none" fill-rule="evenodd">
        <path stroke="#80959D" d="M2.833 4.895h-.17c-1.101 0-1.726.848-1.394 1.897l1.9 6.001c.165.523.742.947 1.306.947h5.433"/>
        <path stroke="#80959D" d="M16.188 4.895h.17c1.101 0 1.726.848 1.393 1.897l-1.9 6.001c-.165.523-.741.947-1.305.947H9.113M5.982 7.456v3.73M13.019 7.456v3.73M9.5 7.456v3.73M11.365 5.099h-3.73"/>
        <circle cx="4.926" cy="4.926" r="1.407" fill="#80959D"/>
        <circle cx="14.074" cy="4.926" r="1.407" fill="#80959D"/>
        <path stroke="#80959D" d="M7.944.446L4.997 4.73M11.33.446l2.947 4.284"/>
    </g>
</svg>
