<svg xmlns="http://www.w3.org/2000/svg" width="24" height="19" viewBox="0 0 24 19">
    <g fill="none" fill-rule="evenodd">
        <path stroke="#80959D" d="M7.431 9.81v4.518M16.32 9.81v4.518M11.876 9.81v4.518"/>
        <circle cx="6.222" cy="6.222" r="1.778" fill="#80959D"/>
        <circle cx="17.778" cy="6.222" r="1.778" fill="#80959D"/>
        <path stroke="#80959D" d="M17.818 5.328L14.327.566M3.068 6.16h-1.41a1 1 0 0 0-.946 1.321l3.192 9.402a1 1 0 0 0 .947.678h13.954a1 1 0 0 0 .943-.667l3.314-9.401a1 1 0 0 0-.943-1.333h-1.102M9.408 6.646h4.943M6.95 4.934L9.954.532"/>
    </g>
</svg>
