<?xml version="1.0" encoding="UTF-8"?>
<svg width="300px" height="300px" viewBox="0 0 300 300" version="1.1" xmlns="http://www.w3.org/2000/svg" xmlns:xlink="http://www.w3.org/1999/xlink">
    <!-- Generator: Sketch 48.2 (47327) - http://www.bohemiancoding.com/sketch -->
    <title>picker empty copy</title>
    <desc>Created with Sketch.</desc>
    <defs>
        <linearGradient x1="169.961462%" y1="-324.053889%" x2="38.5316377%" y2="125.542689%" id="linearGradient-1">
            <stop stop-color="#44C0FF" offset="0%"></stop>
            <stop stop-color="#B9F9F0" stop-opacity="0" offset="100%"></stop>
        </linearGradient>
    </defs>
    <g id="resized-illustrations_version-2" stroke="none" stroke-width="1" fill="none" fill-rule="evenodd">
        <g id="picker-empty-copy">
            <g id="error-msg">
                <rect id="Rectangle-4" x="0" y="0" width="300" height="300"></rect>
                <path d="M265.254584,151.741573 C264.589504,212.19705 215.411011,261 154.842324,261 C93.8595457,261 44.4232365,211.527465 44.4232365,150.5 C44.4232365,145.447329 44.7621099,140.473863 45.4183532,135.601124 L10.9325843,135.601124 C5.44696945,135.601124 1,131.154154 1,125.668539 C1,120.182925 5.44696945,115.735955 10.9325843,115.735955 L49.9985591,115.735955 L89.0798639,115.735955 C94.5654787,115.735955 99.0124481,111.288986 99.0124481,105.803371 C99.0124481,101.536153 96.3215139,97.8974372 92.543996,96.491573 C91.4654202,96.8929824 90.2982612,97.1123596 89.0798639,97.1123596 L43.1898457,97.1123596 C37.7042309,97.1123596 33.2572614,92.6653901 33.2572614,87.1797753 C33.2572614,81.6941605 37.7042309,77.247191 43.1898457,77.247191 L72.1710885,77.247191 C92.4001989,54.4006708 121.940764,40 154.842324,40 C202.299058,40 242.763324,69.9602512 258.37869,112.011236 L290.067416,112.011236 C295.553031,112.011236 300,116.458205 300,121.94382 C300,127.429435 295.553031,131.876404 290.067416,131.876404 L263.699818,131.876404 L241.69607,131.876404 C236.210455,131.876404 231.763485,136.323374 231.763485,141.808989 C231.763485,147.294604 236.210455,151.741573 241.69607,151.741573 L265.254584,151.741573 Z" id="Combined-Shape" fill="url(#linearGradient-1)"></path>
                <g id="Group-46" transform="translate(85.000000, 109.000000)">
                    <path d="M93.9477452,49.6671875 L100.925381,72.3498586 C90.4413248,82.1785426 86.9349044,86.759107 82.2526362,102.617092 L60.5452182,102.894057 L52.3846936,83.8119222 C55.1447675,82.4271004 61.0380886,78.0595854 62.0731163,76.0285134 C58.2357687,68.7564235 49.3429795,70.8869186 39.865787,70.879817 C30.7265627,70.8727153 21.5662154,70.8372071 12.4269911,70.8940203 C8.27279826,76.8381016 5.9985537,82.7679796 6.98429437,92.3907157 C9.42048205,91.0556055 19.6440211,75.4816864 36.4227356,83.9894634 C44.8860235,88.2788602 49.7372758,100.181226 56.0882622,108.135074 L88.1670803,108.170583 L89.0612879,103.874084 C90.7722521,86.2974998 102.932067,78.2655333 116.443756,81.4328693 C122.3582,82.8247928 124.301517,87.0005631 129.026031,82.3134739 C123.456597,71.1993912 112.458547,70.9011219 109.761842,69.3529621 C107.318613,67.9468354 107.558008,65.5251726 106.008987,62.634801 C108.712732,60.17763 113.127442,59.4603633 111.895267,53.8145513 C110.810952,48.8362944 105.445706,48.4812119 101.988573,50.6046053 L99.9114763,47.3378462 L93.9477452,49.6671875 Z" id="Shape" fill="#EB8181"></path>
                    <path d="M46.8645458,63.7639634 L74.4934488,73.9690348 C71.0996845,98.4342201 64.544509,102.787532 79.5629723,99.655704 C80.6684101,95.8847277 85.6534415,75.3112467 85.4140474,71.5544737 C84.9423,64.2681805 71.3954067,60.4758993 64.9388053,57.9406101 L67.1637628,41.6068144 C70.0505748,42.8780098 68.4029797,41.8766771 70.7969213,43.9929689 C74.1132346,46.9117472 75.8241988,50.9099763 82.2737592,49.6742892 C84.7803569,49.1913769 97.3274276,44.3409498 99.2918679,42.79279 C99.8410663,30.4004102 88.8993448,39.3129814 80.499426,41.0244791 C76.7254474,36.4439146 68.7127839,25.3582385 62.6997657,24.2219745 C49.6105377,21.7577018 51.1173128,25.4647633 48.6388791,42.5513339 C47.6249744,49.5393578 45.3718528,57.4861045 46.8645458,63.7639634 Z" id="Path" stroke="#80959D" fill="#FFFFFF"></path>
                    <path d="M62.1646494,1.26233904 C49.6457427,7.90238208 59.5946826,24.7545982 70.7194703,19.1442945 C82.4990714,13.2002132 73.7963894,-4.90189342 62.1646494,1.26233904 Z" id="Path" stroke="#80959D" stroke-width="1.17" fill="#FFFFFF"></path>
                    <g id="Group-44" transform="translate(8.027027, 84.529412)">
                        <path d="M12.8755589,0.787601199 C-9.26839574,7.15925719 -0.490852284,40.6354184 22.313419,34.7431347 C30.2105402,32.6991447 37.033813,23.8374163 34.7527189,13.5309132 C32.9518551,5.37492719 23.060444,-2.14189581 12.8755589,0.787601199 Z" id="Path" stroke="#80959D" fill="#FFFFFF"></path>
                        <path d="M15.0924362,9.8682849 C5.49672256,12.6293358 9.30032473,27.1356724 19.1821756,24.5823494 C22.6042615,23.6966204 25.561013,19.8565381 24.5725389,15.3903868 C23.7921646,11.8561262 19.5058865,8.59883619 15.0924362,9.8682849 Z" id="Path-Copy-4" fill="#87D5FA"></path>
                    </g>
                    <g id="Group-44-Copy" transform="translate(94.693694, 84.529412)">
                        <path d="M12.8755589,0.787601199 C-9.26839574,7.15925719 -0.490852284,40.6354184 22.313419,34.7431347 C30.2105402,32.6991447 37.033813,23.8374163 34.7527189,13.5309132 C32.9518551,5.37492719 23.060444,-2.14189581 12.8755589,0.787601199 Z" id="Path" stroke="#80959D" fill="#FFFFFF"></path>
                        <path d="M15.0924362,9.8682849 C5.49672256,12.6293358 9.30032473,27.1356724 19.1821756,24.5823494 C22.6042615,23.6966204 25.561013,19.8565381 24.5725389,15.3903868 C23.7921646,11.8561262 19.5058865,8.59883619 15.0924362,9.8682849 Z" id="Path-Copy-4" fill="#87D5FA"></path>
                    </g>
                    <rect id="Rectangle-69" stroke="#80959D" fill="#FFFFFF" x="0" y="28.2352941" width="42.1621622" height="36.4705882"></rect>
                    <polygon id="Rectangle-46" fill="#EB8181" points="16.3963964 28.2352941 25.7657658 28.2352941 25.7657658 44.1558529 21.0810811 41.4661535 16.3963964 44.1558529"></polygon>
                    <rect id="Rectangle-69-Copy" stroke="#80959D" fill="#FFFFFF" x="3.51351351" y="50.5882353" width="12.8828829" height="10.5882353"></rect>
                </g>
            </g>
        </g>
    </g>
</svg>