<svg xmlns="http://www.w3.org/2000/svg" width="18" height="18" viewBox="0 0 18 18">
    <g fill="none" fill-rule="evenodd">
        <path d="M-3-3h24v24H-3z" opacity=".05"/>
        <g stroke="#FFF">
            <path d="M9 5.8A3.215 3.215 0 0 0 5.8 9c0 1.755 1.445 3.2 3.2 3.2 1.755 0 3.2-1.445 3.2-3.2 0-1.755-1.445-3.2-3.2-3.2z"/>
            <path d="M16.389 7.495l-.95-.407a1.014 1.014 0 0 1-.521-.498c-.09-.294-.09-.566 0-.792l.385-.95a.785.785 0 0 0-.113-.974L14.126 2.81a.788.788 0 0 0-.95-.113l-.974.385a.993.993 0 0 1-1.29-.543l-.407-.928A.753.753 0 0 0 9.758 1H8.242a.755.755 0 0 0-.747.588l-.407.95a1.03 1.03 0 0 1-1.29.544l-.95-.385c-.295-.203-.702-.158-.974.113L2.81 3.874a.788.788 0 0 0-.113.95l.385.974a.993.993 0 0 1-.543 1.29l-.928.407A.753.753 0 0 0 1 8.242v1.516c0 .362.249.68.588.747l.95.407c.499.227.725.792.544 1.29l-.385.95a.76.76 0 0 0 .113.974l1.064 1.064a.788.788 0 0 0 .95.113l.974-.385a.993.993 0 0 1 1.29.543l.407.928a.753.753 0 0 0 .747.611h1.516a.755.755 0 0 0 .747-.588l.407-.95a1.03 1.03 0 0 1 1.29-.544l.95.385c.295.203.702.158.974-.113l1.064-1.064a.788.788 0 0 0 .113-.95l-.385-.974a.993.993 0 0 1 .543-1.29l.928-.407A.753.753 0 0 0 17 9.758V8.242a.753.753 0 0 0-.611-.747z"/>
        </g>
    </g>
</svg>
