<svg xmlns="http://www.w3.org/2000/svg" width="17" height="18" viewBox="0 0 17 18">
    <g fill="none" fill-rule="evenodd" stroke="#80959D">
        <path d="M14.955 7.49c-.77 0-1.398-.61-1.4-1.358h-.338c-.002.749-.63 1.358-1.401 1.358-.772 0-1.4-.61-1.4-1.362H9.96c0 .751-.512 1.362-1.284 1.362s-1.4-.61-1.4-1.362H6.94c0 .751-.629 1.362-1.4 1.362-.773 0-1.401-.61-1.401-1.362h-.339c0 .751-.628 1.362-1.4 1.362-.746 0-1.356-.568-1.399-1.281L2.96 1h11.432l1.96 5.209c-.043.713-.653 1.281-1.397 1.281z"/>
        <path d="M2.216 7.771v8.092a1 1 0 0 0 1 1h10.77a1 1 0 0 0 1-1V7.43"/>
        <path d="M6.126 16.477v-5.296h5.121v5.548"/>
    </g>
</svg>
