<?xml version="1.0" encoding="UTF-8"?>
<svg width="17px" height="18px" viewBox="0 0 17 18" version="1.1" xmlns="http://www.w3.org/2000/svg" xmlns:xlink="http://www.w3.org/1999/xlink">
    <!-- Generator: Sketch 48.2 (47327) - http://www.bohemiancoding.com/sketch -->
    <title>Group 12</title>
    <desc>Created with Sketch.</desc>
    <defs></defs>
    <g id="Add-Product_variants-disabled" stroke="none" stroke-width="1" fill="none" fill-rule="evenodd" transform="translate(-404.000000, -1304.000000)">
        <g id="Group-17" transform="translate(401.000000, 1301.000000)">
            <g id="Group-12" transform="translate(4.000000, 4.000000)">
                <path d="M13.9551382,6.49043905 C13.1841233,6.49043905 12.556935,5.88062694 12.554308,5.1316117 L12.2167347,5.1316117 C12.2154212,5.88062694 11.5869193,6.49043905 10.8159044,6.49043905 C10.0435761,6.49043905 9.41507425,5.87934985 9.41507425,5.12841896 L8.96085193,5.12841896 C8.96085193,5.87934985 8.44899905,6.49043905 7.67732749,6.49043905 C6.90499913,6.49043905 6.27715396,5.87934985 6.27715396,5.12841896 L5.93892393,5.12841896 C5.93892393,5.87934985 5.31042204,6.49043905 4.53875047,6.49043905 C3.7657654,6.49043905 3.13792025,5.87934985 3.13792025,5.12841896 L2.79903348,5.12841896 C2.79903348,5.87934985 2.17053159,6.49043905 1.39820325,6.49043905 C0.652801331,6.49043905 0.04334496,5.92213248 0,5.20887584 L1.96066649,0 L13.3920182,0 L15.3526847,5.20887584 C15.3093398,5.92213248 14.6992266,6.49043905 13.9551382,6.49043905 Z" id="Path" stroke="#20C05C" fill-rule="nonzero"></path>
                <path d="M1.21596156,6.7714861 L1.21596156,14.8633132 C1.21596156,15.4155979 1.66367681,15.8633132 2.21596156,15.8633132 L12.9862947,15.8633132 C13.5385794,15.8633132 13.9862947,15.4155979 13.9862947,14.8633132 L13.9862947,6.428935" id="Path-46" stroke="#80959D"></path>
                <polyline id="Path-51" stroke="#80959D" points="5.12642382 15.4771594 5.12642382 10.1806203 10.2470484 10.1806203 10.2470484 15.7285322"></polyline>
            </g>
        </g>
    </g>
</svg>