<?xml version="1.0" encoding="UTF-8"?>
<svg width="24px" height="24px" viewBox="0 0 24 24" version="1.1" xmlns="http://www.w3.org/2000/svg" xmlns:xlink="http://www.w3.org/1999/xlink">
    <!-- Generator: Sketch 48.2 (47327) - http://www.bohemiancoding.com/sketch -->
    <title>signature copy 2</title>
    <desc>Created with Sketch.</desc>
    <defs></defs>
    <g id="mster-icons" stroke="none" stroke-width="1" fill="none" fill-rule="evenodd">
        <g id="signature-copy-2">
            <rect id="Rectangle" x="0" y="0" width="24" height="24"></rect>
            <g id="Group" transform="translate(2.000000, 4.000000)" fill="#80959D" fill-rule="nonzero">
                <rect id="Rectangle-path" x="0" y="15" width="19" height="1"></rect>
                <path d="M2.07106599,12 C1.56345178,12 1.0964467,11.8104557 0.730964467,11.4524275 C0.426395939,11.1575808 0.243654822,10.7574317 0.14213198,10.2098592 L0,9.409561 L1.52284264,9.13577476 L1.66497462,9.93607299 C1.70558376,10.1466778 1.76649746,10.2519802 1.78680203,10.2730407 C1.8680203,10.3362221 1.96954315,10.3783431 2.09137056,10.3783431 C2.45685279,10.3572826 2.80203046,10.1466778 3.12690355,9.87289155 C2.88324873,9.59910531 2.68020305,9.3042586 2.5177665,8.9883514 C1.38071066,6.84018247 1.36040609,4.16550155 2.47715736,1.99627214 C2.84263959,1.30127631 3.24873096,0.795824795 3.73604061,0.45885712 C4.42639594,-0.0255339135 5.27918782,-0.130836312 5.96954315,0.164010404 C6.59898477,0.43779664 7.10659898,1.02749007 7.32994924,1.80672782 C7.51269036,2.43854221 7.49238579,3.09141708 7.45177665,3.61792908 C7.30964467,5.34488841 6.78172589,7.09290823 5.92893401,8.63032325 C5.78680203,8.90410948 5.58375635,9.24107716 5.38071066,9.59910531 C5.8071066,9.76758915 6.25380711,9.78864963 6.68020305,9.57804483 C7.04568528,9.409561 7.30964467,9.0936538 7.65482234,8.63032325 C8.02030457,8.16699269 8.22335025,7.7457831 8.3248731,7.28245255 C8.40609137,6.84018247 8.81218274,6.56639624 9.23857868,6.65063815 C9.54314721,6.71381959 9.78680203,6.96654535 9.84771574,7.28245255 C9.96954315,7.59835974 10.6192893,8.86198852 10.7817259,9.0936538 L10.8426396,9.1989562 C11.2081218,9.72546819 11.4111675,9.97819395 11.6345178,9.91501251 C12,9.83077059 12.3248731,9.409561 12.6497462,8.92516996 C12.9949239,8.41971845 13.2588832,7.83002502 13.4213198,7.24033159 C13.5025381,6.92442439 13.7664975,6.67169863 14.0913706,6.65063815 C14.4162437,6.60851719 14.7208122,6.79806151 14.8629442,7.09290823 L15.2893401,7.97744838 C15.6751269,8.7777466 16.0203046,9.409561 16.5279188,9.72546819 C16.8527919,9.93607299 17.2791878,9.99925443 17.6446701,9.89395203 C17.8883249,9.83077059 17.9695431,9.70440771 18.2741117,9.17789572 L18.6598985,8.48289989 L20,9.3042586 L19.6142132,9.99925443 C19.2893401,10.5678874 18.9238579,11.2207623 18.0507614,11.4524275 C17.2791878,11.6630323 16.4467005,11.5366694 15.7563452,11.1154599 C15.0456853,10.6942503 14.5989848,9.99925443 14.2538071,9.36744004 C14.1522843,9.55698435 14.0507614,9.72546819 13.928934,9.89395203 C13.5431472,10.4415245 12.9543147,11.2839437 11.9796954,11.515609 C10.7411168,11.8104557 10.0304569,10.7784922 9.60406091,10.1887987 L9.50253807,10.0203149 C9.50253807,10.0203149 9.29949239,9.70440771 9.07614213,9.3042586 C8.99492386,9.409561 8.91370558,9.51486339 8.83248731,9.64122627 C8.46700508,10.1045568 8.02030457,10.6731898 7.30964467,11.0312179 C6.33502538,11.4945485 5.27918782,11.3681856 4.36548223,10.8837946 C3.77664975,11.4945485 3.06598985,11.957879 2.17258883,12 C2.15228426,12 2.11167513,12 2.07106599,12 Z M5.49887532,1 C5.22907777,1 4.9293027,1.07207207 4.68948265,1.21621622 C4.29977506,1.43243243 3.94004499,1.79279279 3.58031491,2.32132132 C2.32125964,4.21921922 2.35123714,6.66966967 3.64026992,8.56756757 C3.73020244,8.71171171 3.85011247,8.85585586 4,9 C4.26979756,8.66366366 4.4796401,8.35135135 4.65950514,8.11111111 C5.73869538,6.57357357 6.42817803,4.86786787 6.60804307,3.13813814 C6.66799808,2.70570571 6.69797558,2.2012012 6.51811055,1.76876877 C6.39820052,1.43243243 6.12840296,1.16816817 5.8286279,1.04804805 C5.73869538,1.02402402 5.61878535,1 5.49887532,1 Z" id="Shape"></path>
            </g>
            <path d="M-45.3903135,41.5572411 C-33.2893514,47.0542231 -19.1721793,41.372884 -21.9310963,25.6800985 C-22.3565719,23.2599832 -22.4312055,17.612747 -24.5817791,18.8014526 L-28.7406167,15.9929547 C-38.8472193,21.5792665 -38.7758064,53.2883624 -24.4409195,47.761152 C-22.0642296,46.8447538 -20.3658229,44.0327475 -17.8200815,43.9453338 L-14.8368133,36.5915039 C-14.6047177,36.5835344 -11.0361007,58.615163 -3.8062859,46.9481658 C2.13157406,37.3660398 -5.5896216,35.7358437 -0.204800428,44.199229 C0.726233224,45.6625452 2.08654226,48.4826025 3.63797239,47.7072428 C9.28059863,44.887222 13.0981757,39.3602944 17.8282773,35.1868202" id="Path-12" stroke="#979797"></path>
        </g>
    </g>
</svg>