<svg xmlns="http://www.w3.org/2000/svg" width="141" height="35" viewBox="0 0 141 35">
    <g fill="none" fill-rule="evenodd">
        <path fill="#333" d="M92.983 11.45c0 .46.083.85.25 1.17.166.32.387.58.662.778.275.199.599.346.97.442.371.096.755.144 1.152.144.269 0 .557-.022.864-.067.307-.045.595-.131.864-.26.269-.127.493-.303.672-.527.179-.224.269-.51.269-.855 0-.371-.119-.672-.356-.902a2.817 2.817 0 0 0-.93-.576 9.294 9.294 0 0 0-1.306-.403c-.487-.116-.98-.244-1.479-.384a13.127 13.127 0 0 1-1.497-.47 5.145 5.145 0 0 1-1.306-.72 3.39 3.39 0 0 1-.931-1.105c-.237-.441-.355-.976-.355-1.603 0-.704.15-1.315.45-1.834.302-.518.695-.95 1.182-1.296a5.146 5.146 0 0 1 1.65-.768 7.024 7.024 0 0 1 1.844-.25c.717 0 1.405.08 2.064.24.66.16 1.245.42 1.757.778.512.359.918.816 1.219 1.373.3.557.451 1.232.451 2.026h-2.918c-.026-.41-.112-.749-.26-1.018a1.696 1.696 0 0 0-.585-.633 2.476 2.476 0 0 0-.835-.327 5.141 5.141 0 0 0-1.027-.096c-.244 0-.487.026-.73.077-.243.051-.464.14-.662.269a1.667 1.667 0 0 0-.49.48c-.128.192-.192.435-.192.73 0 .268.051.486.154.652.102.167.304.32.604.461.301.14.717.282 1.248.422.532.141 1.226.32 2.084.538.256.051.61.144 1.065.278.455.135.906.35 1.354.644a4.09 4.09 0 0 1 1.161 1.18c.327.493.49 1.124.49 1.892 0 .627-.122 1.21-.365 1.747a3.796 3.796 0 0 1-1.085 1.392c-.48.39-1.075.694-1.785.912-.71.217-1.533.326-2.467.326a8.661 8.661 0 0 1-2.199-.278 5.53 5.53 0 0 1-1.881-.874 4.315 4.315 0 0 1-1.296-1.517c-.32-.614-.474-1.344-.461-2.188h2.918zm14.075-5.376h1.996v1.824h-1.996v4.915c0 .46.076.768.23.921.154.154.46.23.922.23.153 0 .3-.006.441-.018a3.82 3.82 0 0 0 .403-.058V16c-.23.038-.486.064-.768.077-.281.013-.556.019-.825.019a7.96 7.96 0 0 1-1.2-.086 2.83 2.83 0 0 1-.999-.336 1.779 1.779 0 0 1-.681-.71c-.167-.308-.25-.711-.25-1.21V7.898h-1.651V6.074h1.651V3.098h2.727v2.976zm6.221 4.972c0 .397.039.784.115 1.162.077.378.208.717.394 1.018.186.3.432.54.74.72.306.179.69.268 1.151.268.461 0 .848-.09 1.162-.268.313-.18.563-.42.749-.72.185-.301.316-.64.393-1.018a5.957 5.957 0 0 0 0-2.333 2.988 2.988 0 0 0-.393-1.017 2.183 2.183 0 0 0-.75-.72c-.313-.186-.7-.279-1.16-.279-.462 0-.846.093-1.153.279a2.21 2.21 0 0 0-.739.72 2.988 2.988 0 0 0-.394 1.017 5.957 5.957 0 0 0-.115 1.171zm-2.726 0c0-.793.121-1.513.365-2.16a4.648 4.648 0 0 1 1.036-1.65 4.646 4.646 0 0 1 1.613-1.057c.627-.25 1.331-.374 2.112-.374.781 0 1.488.125 2.122.374.633.25 1.174.602 1.622 1.056a4.648 4.648 0 0 1 1.037 1.651c.243.647.365 1.367.365 2.16 0 .794-.122 1.51-.365 2.15a4.665 4.665 0 0 1-1.037 1.642 4.519 4.519 0 0 1-1.622 1.047c-.634.243-1.341.365-2.122.365-.78 0-1.485-.122-2.112-.365a4.535 4.535 0 0 1-1.613-1.047 4.665 4.665 0 0 1-1.036-1.641c-.244-.64-.365-1.357-.365-2.15zm12.538-4.972h2.592v1.843h.039a3.396 3.396 0 0 1 1.267-1.526c.281-.186.582-.33.902-.433.32-.102.653-.153.999-.153.179 0 .377.032.595.096v2.534a5.237 5.237 0 0 0-.98-.096c-.499 0-.921.083-1.267.25a2.195 2.195 0 0 0-.835.681 2.733 2.733 0 0 0-.451 1.008c-.09.384-.134.8-.134 1.248V16h-2.727V6.074zm14.305 3.897c-.128-.691-.355-1.216-.682-1.574-.326-.359-.822-.538-1.488-.538-.435 0-.796.074-1.084.221a2.004 2.004 0 0 0-1.056 1.238 3.13 3.13 0 0 0-.125.653h4.435zm-4.435 1.728c.038.883.262 1.523.672 1.92.41.397.998.595 1.766.595.55 0 1.024-.137 1.421-.412.397-.276.64-.567.73-.874h2.4c-.384 1.19-.973 2.042-1.767 2.554-.793.512-1.753.768-2.88.768-.78 0-1.485-.125-2.112-.375a4.391 4.391 0 0 1-1.593-1.065 4.796 4.796 0 0 1-1.008-1.652 6.044 6.044 0 0 1-.356-2.112c0-.742.122-1.433.365-2.073a4.866 4.866 0 0 1 1.037-1.661 4.88 4.88 0 0 1 1.603-1.104c.621-.269 1.309-.403 2.064-.403.845 0 1.581.163 2.208.49a4.407 4.407 0 0 1 1.546 1.315c.403.55.694 1.177.873 1.881.18.704.244 1.44.192 2.208h-7.161zM33.092 22.004h6.902v1.12h-5.572v3.178h5.194v1.12h-5.194v3.458h5.614V32h-6.944v-9.996zm15.27 9.968c-.205.121-.49.182-.854.182-.308 0-.553-.086-.735-.259-.182-.173-.273-.455-.273-.847a2.847 2.847 0 0 1-1.141.847 3.771 3.771 0 0 1-1.407.259 3.77 3.77 0 0 1-.931-.112 2.165 2.165 0 0 1-.763-.35 1.68 1.68 0 0 1-.511-.623c-.126-.257-.189-.567-.189-.931 0-.41.07-.747.21-1.008.14-.261.324-.474.553-.637.229-.163.49-.287.784-.371.294-.084.595-.154.903-.21.327-.065.637-.114.931-.147.294-.033.553-.08.777-.14.224-.06.401-.15.532-.266.13-.117.196-.287.196-.511 0-.261-.049-.471-.147-.63a1.008 1.008 0 0 0-.378-.364 1.537 1.537 0 0 0-.518-.168 3.912 3.912 0 0 0-.567-.042c-.504 0-.924.096-1.26.287-.336.191-.518.553-.546 1.085h-1.19c.019-.448.112-.826.28-1.134.168-.308.392-.558.672-.749.28-.191.6-.329.959-.413.36-.084.744-.126 1.155-.126.327 0 .651.023.973.07.322.047.614.142.875.287s.471.348.63.609c.159.261.238.602.238 1.022v3.724c0 .28.016.485.049.616.033.13.142.196.329.196.103 0 .224-.023.364-.07v.924zm-1.932-3.71c-.15.112-.345.194-.588.245a8.973 8.973 0 0 1-.763.126 25.6 25.6 0 0 0-.805.112 2.96 2.96 0 0 0-.728.203c-.215.093-.39.226-.525.399-.135.173-.203.408-.203.707 0 .196.04.362.119.497.08.135.182.245.308.329.126.084.273.145.441.182.168.037.345.056.532.056.392 0 .728-.054 1.008-.161a2.12 2.12 0 0 0 .686-.406c.177-.163.308-.34.392-.532.084-.191.126-.371.126-.539v-1.218zm2.95 2.828l4.368-5.278H49.66v-1.05h5.628v.812l-4.424 5.376h4.62V32H49.38v-.91zm10.65 1.876a7.57 7.57 0 0 1-.413.896 2.45 2.45 0 0 1-.448.595 1.52 1.52 0 0 1-.546.336 2.1 2.1 0 0 1-.693.105c-.14 0-.28-.01-.42-.028a1.983 1.983 0 0 1-.406-.098V33.68c.103.047.222.086.357.119.135.033.25.049.343.049.243 0 .446-.058.609-.175a1.07 1.07 0 0 0 .371-.497l.49-1.218-2.87-7.196h1.344l2.114 5.922h.028l2.03-5.922h1.26l-3.15 8.204z"/>
        <path fill="#20C05C" d="M63.778 9.126c.038-.64.198-1.17.48-1.593.281-.423.64-.762 1.075-1.018a4.685 4.685 0 0 1 1.469-.547 8.35 8.35 0 0 1 1.641-.163c.5 0 1.005.035 1.517.105.512.07.98.208 1.402.413.422.205.768.49 1.036.855.27.364.404.848.404 1.45v5.164c0 .448.025.877.076 1.286.052.41.141.717.27.922h-2.766a3.912 3.912 0 0 1-.192-.96 3.553 3.553 0 0 1-1.536.94c-.588.18-1.19.27-1.804.27-.474 0-.916-.058-1.325-.173a3.034 3.034 0 0 1-1.075-.538 2.503 2.503 0 0 1-.72-.921c-.173-.372-.26-.813-.26-1.325 0-.563.1-1.027.298-1.392.198-.365.454-.656.768-.874a3.44 3.44 0 0 1 1.075-.49c.403-.108.81-.195 1.22-.259.409-.064.812-.115 1.209-.153a7.274 7.274 0 0 0 1.056-.173c.307-.077.55-.189.73-.336.179-.147.262-.362.25-.643 0-.295-.049-.528-.145-.701a1.059 1.059 0 0 0-.384-.403 1.51 1.51 0 0 0-.557-.192 4.556 4.556 0 0 0-.681-.048c-.538 0-.96.115-1.267.345-.308.23-.487.615-.538 1.152h-2.726zm6.297 2.016c-.115.103-.259.183-.432.24a4.412 4.412 0 0 1-.557.144c-.198.039-.406.07-.624.096-.217.026-.435.058-.652.096-.205.039-.407.09-.605.154-.199.064-.371.15-.519.26a1.232 1.232 0 0 0-.355.412c-.09.166-.134.378-.134.634 0 .243.045.448.134.614.09.166.211.298.365.394.154.096.333.163.538.201.204.039.416.058.633.058.538 0 .954-.09 1.248-.269.295-.18.512-.394.653-.643.14-.25.227-.503.26-.759a5.21 5.21 0 0 0 .047-.614v-1.018zM35.38 11.45c0 .46.082.85.249 1.17.166.32.387.58.662.778.275.199.599.346.97.442.371.096.755.144 1.152.144.269 0 .557-.022.864-.067.307-.045.595-.131.864-.26.269-.127.493-.303.672-.527.179-.224.269-.51.269-.855 0-.371-.119-.672-.356-.902a2.817 2.817 0 0 0-.93-.576 9.294 9.294 0 0 0-1.306-.403c-.487-.116-.98-.244-1.479-.384a13.127 13.127 0 0 1-1.497-.47 5.145 5.145 0 0 1-1.306-.72 3.39 3.39 0 0 1-.931-1.105c-.237-.441-.355-.976-.355-1.603 0-.704.15-1.315.45-1.834.302-.518.695-.95 1.182-1.296a5.146 5.146 0 0 1 1.65-.768 7.024 7.024 0 0 1 1.844-.25c.717 0 1.405.08 2.064.24.66.16 1.245.42 1.757.778.512.359.918.816 1.219 1.373.3.557.451 1.232.451 2.026h-2.918c-.026-.41-.112-.749-.26-1.018a1.696 1.696 0 0 0-.585-.633 2.476 2.476 0 0 0-.835-.327 5.141 5.141 0 0 0-1.027-.096c-.244 0-.487.026-.73.077-.243.051-.464.14-.662.269a1.667 1.667 0 0 0-.49.48c-.128.192-.192.435-.192.73 0 .268.051.486.154.652.102.167.304.32.604.461.301.14.717.282 1.248.422.532.141 1.226.32 2.084.538.256.051.61.144 1.065.278.455.135.906.35 1.354.644a4.09 4.09 0 0 1 1.161 1.18c.327.493.49 1.124.49 1.892 0 .627-.122 1.21-.365 1.747a3.796 3.796 0 0 1-1.085 1.392c-.48.39-1.075.694-1.785.912-.71.217-1.533.326-2.467.326a8.661 8.661 0 0 1-2.199-.278 5.53 5.53 0 0 1-1.881-.874 4.315 4.315 0 0 1-1.296-1.517c-.32-.614-.474-1.344-.461-2.188h2.918zM46.074 6.074h2.573v1.344h.039c.358-.512.79-.91 1.296-1.19.505-.282 1.084-.423 1.737-.423.627 0 1.2.121 1.719.365.518.243.912.672 1.18 1.286.295-.435.695-.82 1.2-1.152.506-.333 1.104-.5 1.796-.5.524 0 1.01.065 1.459.193.448.128.832.333 1.152.614.32.282.57.65.749 1.104.179.455.268 1.002.268 1.642V16h-2.726v-5.626c0-.332-.013-.646-.038-.94a1.997 1.997 0 0 0-.212-.768 1.279 1.279 0 0 0-.508-.519c-.224-.128-.528-.192-.912-.192s-.695.074-.932.221a1.6 1.6 0 0 0-.556.576 2.306 2.306 0 0 0-.27.806c-.044.301-.066.605-.066.912V16h-2.727v-5.568c0-.294-.006-.586-.019-.874a2.452 2.452 0 0 0-.163-.796 1.225 1.225 0 0 0-.48-.586c-.224-.147-.554-.22-.989-.22-.128 0-.298.028-.509.086a1.689 1.689 0 0 0-.614.326c-.199.16-.368.39-.509.691-.14.301-.211.695-.211 1.181V16h-2.727V6.074zM75.414 6.074h2.592v1.843h.038a3.396 3.396 0 0 1 1.267-1.526c.282-.186.583-.33.903-.433.32-.102.652-.153.998-.153.18 0 .378.032.595.096v2.534a5.237 5.237 0 0 0-.979-.096c-.5 0-.922.083-1.267.25a2.195 2.195 0 0 0-.835.681 2.733 2.733 0 0 0-.452 1.008c-.09.384-.134.8-.134 1.248V16h-2.726V6.074zM86.838 6.074h1.997v1.824h-1.997v4.915c0 .46.077.768.23.921.154.154.462.23.922.23.154 0 .301-.006.442-.018a3.82 3.82 0 0 0 .403-.058V16c-.23.038-.486.064-.768.077-.281.013-.557.019-.825.019a7.96 7.96 0 0 1-1.2-.086 2.83 2.83 0 0 1-.999-.336 1.779 1.779 0 0 1-.681-.71c-.167-.308-.25-.711-.25-1.21V7.898h-1.651V6.074h1.651V3.098h2.726v2.976z"/>
        <g fill-rule="nonzero">
            <path fill="#20C05C" d="M.054 15.858l10.86 6.877 3.585-2.414L.077 11.117z"/>
            <path fill="#20C05C" d="M10.882 27.276l7.211-4.591 3.865 2.452-11.065 6.85V32l-.01-.007-.011.007v-.014L.032 25.124l.024-4.741z"/>
            <g fill="#333">
                <path d="M21.946 16.142l-10.86-6.877-3.585 2.414 14.422 9.204z"/>
                <path d="M11.118 4.724L3.907 9.315.042 6.863 11.107.013V0l.01.007.011-.007v.014l10.84 6.862-.024 4.741z"/>
            </g>
        </g>
    </g>
</svg>
