<svg xmlns="http://www.w3.org/2000/svg" width="24" height="24" viewBox="0 0 24 24">
    <g fill="none" fill-rule="evenodd" transform="translate(-3 -3)">
        <path d="M0 0h30v30H0z" opacity=".05"/>
        <path fill="#80959D" d="M14.843 10.264c-1.014 0-1.814.314-2.4.943-.557.6-.843 1.4-.843 2.4h1.143c0-.7.157-1.243.457-1.643.358-.471.886-.7 1.586-.7.6 0 1.072.157 1.415.5.314.315.471.758.471 1.33 0 .4-.143.77-.414 1.128-.1.114-.257.286-.486.514-.771.686-1.257 1.229-1.443 1.658-.186.357-.271.771-.271 1.243v.328h1.157v-.328c0-.386.086-.743.271-1.058.143-.257.358-.514.658-.771.628-.557 1.028-.929 1.171-1.1a2.776 2.776 0 0 0 .529-1.672c0-.857-.271-1.529-.8-2.015-.543-.514-1.286-.757-2.2-.757zm-.2 8.702c-.257 0-.457.071-.614.242a.778.778 0 0 0-.257.6.83.83 0 0 0 .257.615.828.828 0 0 0 .614.243.902.902 0 0 0 .615-.243.828.828 0 0 0 .243-.614.818.818 0 0 0-.243-.6.818.818 0 0 0-.615-.243z"/>
        <circle cx="15" cy="15" r="11" stroke="#80959D"/>
    </g>
</svg>
