<svg xmlns="http://www.w3.org/2000/svg" width="17" height="15" viewBox="0 0 17 15">
    <g fill="none" fill-rule="evenodd" opacity=".5">
        <path d="M-4-5h24.777v25H-4z"/>
        <path fill="#FFF" fill-rule="nonzero" d="M16.888 2.066a6.939 6.939 0 0 1-2.002.551A3.515 3.515 0 0 0 16.419.68a7.01 7.01 0 0 1-2.216.851A3.47 3.47 0 0 0 11.658.424 3.496 3.496 0 0 0 8.17 3.927c0 .274.03.542.09.798a9.886 9.886 0 0 1-7.187-3.66A3.49 3.49 0 0 0 .6 2.825c0 1.216.616 2.289 1.551 2.916a3.475 3.475 0 0 1-1.58-.44v.044A3.503 3.503 0 0 0 3.37 8.781c-.293.08-.6.123-.92.123-.225 0-.442-.023-.656-.065a3.491 3.491 0 0 0 3.257 2.433 6.976 6.976 0 0 1-4.33 1.498c-.282 0-.56-.017-.833-.048a9.824 9.824 0 0 0 5.346 1.576c6.415 0 9.922-5.339 9.922-9.969l-.012-.453a6.982 6.982 0 0 0 1.744-1.81z"/>
    </g>
</svg>
