<svg xmlns="http://www.w3.org/2000/svg" width="18" height="20" viewBox="0 0 18 20">
    <defs>
        <path id="a" d="M0 0h24v24H0z"/>
    </defs>
    <g fill="none" fill-rule="evenodd" stroke="#80959D">
        <path d="M15.938 11.396a5.004 5.004 0 0 0-6.154 7.424l-8.773-.178V1.03h9.902l5.025 4.724v5.64z"/>
        <path d="M11.454 1.518V5.35l3.996-.063zM16.81 15.28a2.596 2.596 0 0 0-2.402-1.613c-1.21 0-2.226.829-2.511 1.95m.081 1.544a2.593 2.593 0 0 0 4.945-.272"/>
        <path d="M15.636 15.196l1.222.135.136-1.209M13.168 17.469l-1.192-.304-.302 1.179M3 7.333h4.667M3 10.667h6.667M3 14h3.333"/>
    </g>
</svg>
