<svg xmlns="http://www.w3.org/2000/svg" width="299" height="221" viewBox="0 0 299 221">
    <defs>
        <linearGradient id="a" x1="169.961%" x2="38.532%" y1="-324.054%" y2="125.543%">
            <stop offset="0%" stop-color="#44C0FF"/>
            <stop offset="100%" stop-color="#B9F9F0" stop-opacity="0"/>
        </linearGradient>
    </defs>
    <g fill="none" fill-rule="evenodd">
        <path d="M-1-40h300v300H-1z"/>
        <path fill="url(#a)" d="M264.255 111.742C263.59 172.197 214.41 221 153.842 221 92.86 221 43.423 171.527 43.423 110.5c0-5.053.34-10.026.995-14.899H9.933C4.447 95.601 0 91.154 0 85.67c0-5.486 4.447-9.933 9.933-9.933h78.146c5.486 0 9.933-4.447 9.933-9.933a9.936 9.936 0 0 0-6.468-9.311 9.912 9.912 0 0 1-3.464.62H42.19c-5.486 0-9.933-4.447-9.933-9.932 0-5.486 4.447-9.933 9.933-9.933H71.17C91.401 14.401 120.941 0 153.842 0 201.3 0 241.763 29.96 257.38 72.011h31.688c5.486 0 9.933 4.447 9.933 9.933 0 5.485-4.447 9.932-9.933 9.932h-48.371c-5.486 0-9.933 4.447-9.933 9.933s4.447 9.933 9.933 9.933h23.559z"/>
        <path fill="#FFF" stroke="#64808C" d="M87.063 109.376v67.322l75.555 12.283V105.71"/>
        <path fill="#EB8181" d="M134.736 80.537L152.444 67l77.015 12.662-18.017 13.203"/>
        <path fill="#FFF" stroke="#64808C" d="M162.288 106.087v82.14l49.513-12.636v-65.054"/>
        <path fill="#EB8181" d="M86.346 92.605L66 105.637l79.123 15.596 16.51-15.596"/>
        <path fill="#87D5FA" d="M162.352 106.325l17.99 14.732 46.909-15.877-15.917-12.478M85.643 92.963l-16.634-11.29 49.4-11.66 16.17 10.345"/>
        <path fill="#FFF" stroke="#64808C" d="M87.063 93.122l76.068 12.966 46.633-13.265-75.085-12.267z"/>
        <path stroke="#64808C" stroke-width="1.5" d="M199.9 168.634h4.741v-8.251"/>
        <g>
            <circle cx="20" cy="20" r="20" fill="#EB8181" transform="matrix(1 0 0 -1 182 190)"/>
            <path fill="#FFF" stroke="#FFF" d="M202 177.778v-15.802"/>
            <path stroke="#FFF" d="M194.222 168.889l7.727-6.81 7.343 6.81"/>
        </g>
        <path stroke="#64808C" d="M97.5 136.604v19.982l20 3.81v-19.982l-20-3.81z"/>
        <path stroke="#64808C" stroke-linecap="square" d="M97.5 160.5l20 4.004M97.5 164.5l20 4.004M97.5 168.5l13.139 2.691"/>
    </g>
</svg>
