<?xml version="1.0" encoding="UTF-8"?>
<svg width="40px" height="31px" viewBox="0 0 40 31" version="1.1" xmlns="http://www.w3.org/2000/svg" xmlns:xlink="http://www.w3.org/1999/xlink">
    <!-- Generator: Sketch 44.1 (41455) - http://www.bohemiancoding.com/sketch -->
    <title>upload</title>
    <desc>Created with Sketch.</desc>
    <defs></defs>
    <g id="Page-1" stroke="none" stroke-width="1" fill="none" fill-rule="evenodd" opacity="0.5">
        <g id="edit" transform="translate(-654.000000, -698.000000)" fill-rule="nonzero" fill="#9B9B9B">
            <g id="Group-4" transform="translate(596.000000, 698.000000)">
                <g id="upload" transform="translate(58.000000, 0.000000)">
                    <path d="M13.9074444,16.7048889 L15.1643333,17.9617778 C15.3372222,18.1346667 15.6198889,18.1346667 15.7927778,17.9617778 L18.5358889,15.2191111 L18.5358889,30.2222222 C18.5358889,30.4666667 18.7358889,30.6666667 18.9803333,30.6666667 L20.7581111,30.6666667 C21.0025556,30.6666667 21.2025556,30.4666667 21.2025556,30.2222222 L21.2025556,15.2191111 L23.9456667,17.9622222 C24.1185556,18.1351111 24.4012222,18.1351111 24.5741111,17.9622222 L25.831,16.7053333 C26.0038889,16.5324444 26.0038889,16.2497778 25.831,16.0768889 L20.8118889,11.0573333 C20.5514444,10.7968889 20.2105556,10.6666667 19.8692222,10.6666667 C19.5278889,10.6666667 19.187,10.7968889 18.9265556,11.0573333 L13.9074444,16.0764444 C13.7345556,16.2493333 13.7345556,16.532 13.9074444,16.7048889 Z" id="Shape"></path>
                    <path d="M33.2515556,8.09777778 C32.6457778,3.53333333 28.728,0 24,0 C20.4608889,0 17.9751111,2.196 16.7457778,3.60444444 C15.7222222,2.99333333 14.5488889,2.66666667 13.3333333,2.66666667 C10.0813333,2.66666667 7.36533333,5.00711111 6.78266667,8.09244444 C2.94711111,8.68044444 0,12.0026667 0,16 C0,20.4111111 3.58888889,24 8,24 L15.5555556,24 C15.8,24 16,23.8 16,23.5555556 L16,21.7777778 C16,21.5333333 15.8,21.3333333 15.5555556,21.3333333 L8,21.3333333 C5.05911111,21.3333333 2.66666667,18.9408889 2.66666667,16 C2.66666667,13.0591111 5.05911111,10.6666667 8,10.6666667 L9.33333333,10.6666667 L9.33333333,9.33333333 C9.33333333,7.128 11.1275556,5.33333333 13.3333333,5.33333333 C14.3604444,5.33333333 15.3368889,5.72222222 16.0826667,6.42755556 L17.2648889,7.54666667 L18.1288889,6.16666667 C18.1506667,6.13155556 20.3617778,2.66666667 24,2.66666667 C27.676,2.66666667 30.6666667,5.65733333 30.6666667,9.33333333 L30.6666667,10.6666667 L32,10.6666667 C34.9408889,10.6666667 37.3333333,13.0591111 37.3333333,16 C37.3333333,18.9408889 34.9408889,21.3333333 32,21.3333333 L24.4444444,21.3333333 C24.2,21.3333333 24,21.5333333 24,21.7777778 L24,23.5555556 C24,23.8 24.2,24 24.4444444,24 L32,24 C36.4111111,24 40,20.4111111 40,16 C40,12.0146667 37.0706667,8.70044444 33.2515556,8.09777778 Z" id="Shape"></path>
                </g>
            </g>
        </g>
    </g>
</svg>