<svg xmlns="http://www.w3.org/2000/svg" width="299" height="221" viewBox="0 0 299 221">
    <defs>
        <linearGradient id="a" x1="169.961%" x2="38.532%" y1="-324.054%" y2="125.543%">
            <stop offset="0%" stop-color="#44C0FF"/>
            <stop offset="100%" stop-color="#B9F9F0" stop-opacity="0"/>
        </linearGradient>
    </defs>
    <g fill="none" fill-rule="evenodd">
        <path d="M-1-40h300v300H-1z"/>
        <path fill="url(#a)" d="M264.255 111.742C263.59 172.197 214.41 221 153.842 221 92.86 221 43.423 171.527 43.423 110.5c0-5.053.34-10.026.995-14.899H9.933C4.447 95.601 0 91.154 0 85.67c0-5.486 4.447-9.933 9.933-9.933h78.146c5.486 0 9.933-4.447 9.933-9.933a9.936 9.936 0 0 0-6.468-9.311 9.912 9.912 0 0 1-3.464.62H42.19c-5.486 0-9.933-4.447-9.933-9.932 0-5.486 4.447-9.933 9.933-9.933H71.17C91.401 14.401 120.941 0 153.842 0 201.3 0 241.763 29.96 257.38 72.011h31.688c5.486 0 9.933 4.447 9.933 9.933 0 5.485-4.447 9.932-9.933 9.932h-48.371c-5.486 0-9.933 4.447-9.933 9.933s4.447 9.933 9.933 9.933h23.559z"/>
        <g>
            <path fill="#FFF" stroke="#64808C" d="M229.712 77.504c1.246 0 2.268 1.033 2.268 2.29v72.221c0 1.26-1.022 2.291-2.268 2.291H119.225c-1.25 0-2.268-1.03-2.268-2.29V79.794c0-1.258 1.019-2.29 2.268-2.29h110.487z"/>
            <path fill="#87D5FA" d="M144.534 78.198l45.614 52.989a1.886 1.886 0 0 0 2.65.206 1.868 1.868 0 0 0 .206-2.64l-43.52-50.555h79.946c1.507 0 1.993.768 2.208 1.787V151.2h-36.412l-61.171-73.002h10.48z"/>
            <path fill="#CA3E2B" d="M214.798 149.567l.084.08h-22.583l-.733-.81c6.688-5.366 16.857-5.124 23.232.73"/>
            <path fill="#CA3E2B" d="M216.436 149.646c-6.206-6.199-15.546-6.212-21.76-.04l.026.04h21.734"/>
            <path fill="#64808C" d="M233.408 159.864h3.109v-6.213h-3.109z"/>
            <path fill="#EB8181" d="M99.287 162.072h133.262c.541 0 .985-.412.985-.923v-9.026c0-.508-.444-.923-.985-.923H99.287c-.541 0-.982.415-.982.923v9.026c0 .511.441.923.982.923"/>
            <path fill="#FFF" d="M109.185 95.68l-29.218-.397-15.858 28.53.786 19.62h41.632l2.658-47.753"/>
            <path fill="#FFF" stroke="#64808C" d="M99.287 163.626h133.262c.541 0 .985-.472.985-1.056v-5.157H98.304v5.157c0 .584.445 1.056.983 1.056"/>
            <path fill="#FFF" stroke="#64808C" d="M75.311 139.756l-9.43.07v-14.142L80.42 98.4c.942-1.856 1.43-1.975 2.843-1.957h22.731c.646.06.844.608.844 1.48l-.227 32.62c-11.239-2.838-23.3.675-31.3 9.213zm36.707-44.953c-.232-1.705-1.306-2.591-3.25-2.626H82.01c-3.158.119-3.299.874-4.14 2.296L61 125.983v35.165c0 .507.41.924.916.924h21.4l28.978-.026-.276-67.243z"/>
            <path fill="#EB8181" d="M61.577 160.625c0 .518.41.921.915.921l20.823-.003 28.979-.022-.055-13.428H61.577v12.532z"/>
            <path fill="#FFF" stroke="#64808C" d="M60.577 162.227c0 .18.41.319.915.319h20.823l28.979-.009-.055-4.65H60.577v4.34z"/>
            <path fill="#64808C" d="M85.713 147.392c-3.687 4.12-5.23 9.523-5.23 15.148l18.11 1.094h21.735c-1.716-22.632-20.426-21.736-20.535-21.742-3.166.206-5.525.604-7.078 1.192-2.721 1.03-5.474 2.6-7.002 4.308z"/>
            <path fill="#FFF" stroke="#64808C" d="M112.362 150.178c6.547 6.55 6.547 17.164 0 23.714-6.545 6.547-17.159 6.547-23.703 0-6.548-6.55-6.548-17.164 0-23.714 6.544-6.547 17.158-6.547 23.703 0"/>
            <path fill="#64808C" d="M205.144 141.886l.293.006.217.006c.129.005.257.011.386.023l.433.026.217.017.228.023.264.029.258.032.269.031.21.032.276.043.246.04.143.027c.135.023.267.049.401.078a21.013 21.013 0 0 1 10.284 5.296c4.195 3.944 6.368 10.697 6.493 15.985h-20.498l-.011-1.508-21.458 1.508c.246-10.533 8.486-20.627 18.978-21.607.196-.018.343-.03.495-.038l.477-.029c.105-.006.214-.008.322-.014l.19-.006c.232-.006.463-.006.694-.006l.193.006z"/>
            <path fill="#FFF" stroke="#64808C" d="M192.822 173.892c6.544 6.547 17.158 6.547 23.705 0 6.544-6.549 6.544-17.163 0-23.712-6.547-6.55-17.16-6.55-23.705 0-6.547 6.549-6.547 17.163 0 23.712"/>
        </g>
    </g>
</svg>
