<svg xmlns="http://www.w3.org/2000/svg" width="13" height="14" viewBox="0 0 13 14">
    <g fill="none" fill-rule="evenodd">
        <path fill="#80959D" fill-rule="nonzero" d="M1.494 2.745C.674 2.745 0 3.4 0 4.195v8.14c0 .796.673 1.45 1.494 1.45h10.012c.82 0 1.494-.654 1.494-1.45v-8.14c0-.796-.673-1.45-1.494-1.45h-.808a.415.415 0 0 0-.41.394c0 .209.195.398.41.395h.808c.384 0 .681.289.681.661v2.23H.813v-2.23c0-.372.298-.661.682-.661h.808a.415.415 0 0 0 .41-.395.415.415 0 0 0-.41-.394h-.808zm2.975 0a.4.4 0 0 0-.407.394.4.4 0 0 0 .407.395H8.53a.4.4 0 0 0 .406-.395.4.4 0 0 0-.406-.394H4.47zM.812 7.214h11.376v5.121a.662.662 0 0 1-.682.661H1.494a.662.662 0 0 1-.682-.661V7.214z"/>
        <path stroke="#80959D" stroke-linecap="square" stroke-width=".659" d="M9.425.87v3.183M3.575.87v3.183"/>
    </g>
</svg>
