<?xml version="1.0" encoding="UTF-8"?>
<svg width="152px" height="36px" viewBox="0 0 152 36" version="1.1" xmlns="http://www.w3.org/2000/svg" xmlns:xlink="http://www.w3.org/1999/xlink">
    <!-- Generator: Sketch 48.2 (47327) - http://www.bohemiancoding.com/sketch -->
    <title>zopsmart logo</title>
    <desc>Created with Sketch.</desc>
    <defs></defs>
    <g id="Page-1" stroke="none" stroke-width="1" fill="none" fill-rule="evenodd">
        <g id="zopsmart-logo">
            <g id="Group">
                <rect id="Rectangle" x="0" y="0" width="152" height="36"></rect>
                <g id="zopsmart-logo" transform="translate(3.000000, 3.000000)">
                    <path d="M6.37075281,15.3548832 L6.36343117,14.6120725 C6.36343117,14.6120725 5.67546953,14.6182038 4.29954651,14.6304667 C3.69566001,14.5813501 3.40023649,14.1989529 3.41327607,13.4832754 C3.38987002,13.5402772 3.38987002,12.7148477 3.41327607,11.0069871 C3.41327607,11.0069871 2.91767036,10.7452332 1.92645882,10.2217256 C1.61448515,10.1329919 1.79598755,9.82239791 1.92645882,9.43160989 C1.99597328,9.22340046 2.26919467,8.57326527 2.74612297,7.48120419 C2.7020928,7.18303272 2.67923473,6.88018014 2.67923473,6.57430871 C2.67923473,2.94341827 5.85432929,0 9.47619902,0 C13.0980685,0 16.4157625,2.94060101 16.4157625,6.57149145 C16.4157625,8.68702748 15.3050485,10.6591033 13.6615357,11.9367102 L13.6732771,15.3731378 L14.5788026,15.3754014 C14.5896534,13.4353912 14.5977833,12.4630293 14.6031924,12.4583157 C16.2571056,11.0170815 17.2729414,8.70027625 17.3176761,6.39484776 C17.7652006,6.39511181 18.056345,6.39541207 18.1453745,6.39574776 L18.1453151,21.7657214 C18.1453745,23.2750386 16.9258692,24.4957181 15.2959028,24.4985091 C12.0638248,23.8368782 6.02393898,23.878401 2.84950135,24.4984806 C1.39085241,24.5013001 2.97123394e-05,23.2750386 2.97123394e-05,21.7658069 L0,6.3956623 C0.156835267,6.39509145 0.853553769,6.39463335 1.88935325,6.39428483 C1.89655341,6.71312778 1.91810339,7.13833347 1.92820395,7.30354587 L0.855781693,9.89469552 C0.689132579,10.1917154 0.725735172,10.3743358 0.965589598,10.4425568 C2.10869751,11.0462884 2.68025147,11.3481543 2.68025147,11.3481543 C2.67844579,13.1714549 2.67754288,14.083105 2.67754288,14.083105 C2.78452937,14.8879925 3.18623669,15.3187581 3.88266458,15.3754014 C5.35613648,15.3612594 6.09287261,15.3541885 6.09287261,15.3541885 L6.37075281,15.3548832 Z M8.89588092,1.38789589 C8.20728179,1.38891529 8.50482228,1.3553721 7.99897986,1.4438677 C7.11413386,1.73272811 6.58345066,2.46384294 6.6088655,3.35215639 C4.78552604,3.54245052 4.89276891,6.24881638 6.48017383,6.24881638 C6.48017383,6.24881638 11.8212922,6.24881638 12.8297415,6.24881638 C14.2879851,6.24881638 14.5830208,3.43674809 12.4553826,3.37331676 C12.5715233,2.19534721 11.0823853,1.37991403 10.1054304,2.10471315 C9.73767312,1.64428215 9.44759506,1.55317553 8.89588092,1.38789589 Z" id="Combined-Shape-Copy-7" fill="#00B6A4" fill-rule="nonzero"></path>
                    <path d="M38.3321773,22.5927105 L38.3321773,24.5774612 C37.4129754,24.4356933 36.800174,24.4120654 35.5745714,24.4120654 L26.7360907,24.4120654 C25.3219338,24.4120654 24.8034096,24.4356933 24.0491925,24.4829493 L24.0491925,22.8053624 C24.5205782,22.3564307 24.9683945,21.836615 25.7697501,20.7969837 L34.7025079,9.05387516 C34.9382008,8.77033934 35.2210321,8.43954755 35.5745714,8.03787181 C35.1031857,8.08512778 34.4668151,8.10875576 34.1368452,8.10875576 L27.678862,8.10875576 C26.4532593,8.10875576 25.7697501,8.15601173 24.9448253,8.27415165 L24.9448253,6.28940092 C25.7461808,6.40754085 26.4532593,6.45479682 27.678862,6.45479682 L35.29174,6.45479682 C36.2580805,6.45479682 37.0122976,6.43116883 37.9314996,6.38391286 L37.9314996,8.01424382 C37.4365446,8.48680352 36.9887283,9.03024717 36.2345113,10.0226225 L27.5374463,21.4585672 C27.2074763,21.883871 26.9010757,22.2382907 26.4061207,22.8053624 C27.2074763,22.7581064 27.6552927,22.7581064 28.2209554,22.7581064 L35.5745714,22.7581064 C36.6823276,22.7581064 37.4601139,22.7108504 38.3321773,22.5927105 Z M46.4871489,24.7192292 C42.6217866,24.7192292 40.1705813,22.1437788 40.1705813,18.0561374 C40.1705813,13.968496 42.6217866,11.3694177 46.4635796,11.3694177 C50.3053725,11.3694177 52.7330086,13.968496 52.7330086,18.0325094 C52.7330086,22.0728948 50.2818032,24.7192292 46.4871489,24.7192292 Z M46.5107181,12.8579807 C43.7059736,12.8579807 41.985416,14.8191035 41.985416,18.0088814 C41.985416,21.2222874 43.7059736,23.1834101 46.4635796,23.1834101 C49.2211856,23.1834101 50.9181739,21.2222874 50.9181739,18.0325094 C50.9181739,14.8427315 49.2211856,12.8579807 46.5107181,12.8579807 Z M57.5647113,29.3739422 L55.4906145,29.3739422 C55.6084609,28.4524508 55.6555995,27.6963553 55.6555995,26.7276079 L55.6555995,14.3937997 C55.6555995,13.2596565 55.6084609,12.5744449 55.4906145,11.6765815 L57.3761571,11.6765815 L57.3761571,13.0233766 C57.3761571,13.3305404 57.3525878,13.5904483 57.3054492,13.992124 C58.3660669,12.3145371 60.0159166,11.4403016 62.1135827,11.4403016 C65.7432521,11.4403016 67.9587646,13.9212401 67.9587646,18.0325094 C67.9587646,22.0492669 65.6961136,24.6247172 62.1607213,24.6247172 C60.0866245,24.6247172 58.4132055,23.7504818 57.3054492,22.1201508 C57.3761571,22.7817344 57.3997264,23.1361542 57.3997264,23.7741098 L57.3997264,26.7039799 C57.3997264,27.8144952 57.4468649,28.4997067 57.5647113,29.3739422 Z M61.9957363,23.0888982 C64.564788,23.0888982 66.1203606,21.1750314 66.1203606,18.0325094 C66.1203606,14.8191035 64.6119266,12.9761207 61.972167,12.9761207 C59.2616996,12.9761207 57.4232956,15.0081274 57.4232956,18.0561374 C57.4232956,19.5919564 57.9182506,21.0096355 58.7667447,21.836615 C59.5916696,22.6399665 60.7701337,23.0888982 61.9957363,23.0888982 Z" id="Zop" fill="#333333"></path>
                    <path d="M69.6852144,19.3320486 L73.079191,18.9776288 C73.1734681,20.0408881 73.3148838,20.5134478 73.7391309,21.0568915 C74.4226401,21.9547549 75.6482427,22.4509426 77.180246,22.4509426 C79.5371742,22.4509426 80.9513311,21.3876833 80.9513311,19.6155844 C80.9513311,18.646837 80.5035148,17.8434855 79.772867,17.4418098 C79.0657886,17.063762 78.9243729,17.0401341 75.671812,16.2840385 C73.9041159,15.8823628 72.9613446,15.504315 72.1128504,14.8427315 C70.9108171,13.8976121 70.2980157,12.5980729 70.2980157,11.0149979 C70.2980157,7.730708 72.9377753,5.60418936 76.9916918,5.60418936 C79.6785899,5.60418936 81.7055481,6.43116883 82.860443,7.99061584 C83.449675,8.77033934 83.7325064,9.47917889 84.0153378,10.7314621 L80.6449305,11.1331378 C80.5035148,10.3297863 80.3385298,9.9281106 79.937852,9.4555509 C79.3250507,8.72308337 78.2880023,8.32140762 76.9916918,8.32140762 C74.9411643,8.32140762 73.5505766,9.36103896 73.5505766,10.896858 C73.5505766,11.8892333 74.0691008,12.5744449 75.1532878,13.0470046 C75.671812,13.2596565 75.8603662,13.3069124 78.4765565,13.8976121 C80.3385298,14.2992878 81.4698553,14.7482195 82.3183495,15.3389191 C83.6617985,16.3312945 84.2745999,17.6308337 84.2745999,19.4029326 C84.2745999,21.0805195 83.7560757,22.4509426 82.7897351,23.41969 C81.5405632,24.6247172 79.6785899,25.2154168 77.1566768,25.2154168 C75.2239956,25.2154168 73.3384531,24.7428571 72.2071276,23.9867616 C71.2643563,23.348806 70.5808471,22.4509426 70.1330308,21.2931713 C69.9209072,20.7497277 69.8266301,20.300796 69.6852144,19.3320486 Z M90.2611975,24.8373691 L86.9379287,24.8373691 C87.0557751,23.8213657 87.1029137,23.0416422 87.1029137,21.765731 L87.1029137,14.3465438 C87.1029137,12.8579807 87.0557751,12.1727692 86.9379287,11.2749057 L90.0962125,11.2749057 L90.0962125,12.479933 C90.0962125,12.6217009 90.0962125,12.9761207 90.0726432,13.3541684 C90.7561524,11.9128613 92.5002792,10.9913699 94.4565296,10.9913699 C95.7292708,10.9913699 96.7663192,11.3457897 97.496967,12.0546292 C97.9212141,12.432677 98.1097683,12.7398408 98.3925997,13.4723083 C99.1939553,12.409049 99.6417716,11.9837453 100.372419,11.6056975 C101.150206,11.1803938 101.951561,10.9913699 103.012179,10.9913699 C104.520613,10.9913699 105.746216,11.4639296 106.547571,12.3381651 C107.325358,13.1887725 107.655327,14.2520318 107.655327,15.9296188 L107.655327,21.765731 C107.655327,23.0888982 107.702466,23.8686217 107.843882,24.8373691 L104.402767,24.8373691 C104.544182,23.8686217 104.591321,23.1597822 104.591321,21.765731 L104.591321,16.4730624 C104.591321,14.3937997 103.860673,13.4486804 102.281531,13.4486804 C101.503745,13.4486804 100.914513,13.6613322 100.34885,14.1575199 C99.5239252,14.8663594 99.1468167,15.622455 98.8639853,17.08739 L98.8639853,21.765731 C98.8639853,23.0652702 98.9111239,23.8686217 99.0289703,24.8373691 L95.6349937,24.8373691 C95.7764094,23.8449937 95.823548,23.1125262 95.823548,21.765731 L95.823548,16.4730624 C95.823548,14.4883117 95.069331,13.4959363 93.5373276,13.4959363 C92.5474178,13.4959363 91.7460622,13.8976121 91.1096916,14.7245915 C90.5911674,15.4098031 90.3554746,15.9532468 90.0962125,17.08739 L90.0962125,21.765731 C90.0962125,23.0416422 90.143351,23.7504818 90.2611975,24.8373691 Z M119.69923,24.8373691 L119.69923,23.3015501 C118.756459,24.1994135 118.167227,24.5302053 117.200887,24.7901131 C116.517377,24.979137 115.76316,25.0736489 115.008943,25.0736489 C112.133491,25.0736489 110.389364,23.5850859 110.389364,21.1041475 C110.389364,19.4501885 111.426413,17.9616255 113.052693,17.2764139 C114.584696,16.6384583 116.328823,16.4021785 119.69923,16.3312945 L119.69923,15.1262673 C119.69923,13.7558442 118.780028,13.0470046 116.988763,13.0470046 C116.045992,13.0470046 115.079651,13.3069124 114.537558,13.7322162 C114.089741,14.063008 113.877618,14.3937997 113.594786,15.2444072 L110.577918,14.7009636 C111.120012,13.3305404 111.544259,12.7162128 112.439892,12.0782572 C113.594786,11.2276498 114.914666,10.87323 116.941625,10.87323 C119.204276,10.87323 120.571294,11.2749057 121.584773,12.2672811 C122.386129,13.0233766 122.692529,13.9212401 122.692529,15.527943 L122.692529,21.883871 C122.692529,23.1361542 122.739668,23.7741098 122.881084,24.8373691 L119.69923,24.8373691 Z M119.69923,19.5683284 L119.69923,18.3869292 C115.197498,18.4814411 113.429802,19.2611646 113.429802,21.1041475 C113.429802,22.2146628 114.254726,22.8998743 115.574606,22.8998743 C116.823778,22.8998743 118.049381,22.4273146 118.850736,21.6475911 C119.416399,21.0805195 119.69923,20.3953079 119.69923,19.5683284 Z M135.561357,11.2749057 L134.736432,14.2520318 C133.746522,13.968496 133.251568,13.8739841 132.638766,13.8739841 C131.460302,13.8739841 130.564669,14.2520318 129.90473,15.0317553 C129.315497,15.7169669 129.079805,16.2604106 128.938389,17.3945538 L128.938389,21.765731 C128.938389,23.0416422 128.985528,23.7268538 129.103374,24.8373691 L125.732967,24.8373691 C125.850813,23.6795978 125.897952,22.9943863 125.897952,21.765731 L125.897952,14.3465438 C125.897952,12.9052367 125.874382,12.2436531 125.732967,11.2749057 L128.938389,11.2749057 L128.938389,13.4959363 C129.786883,11.8183494 131.248179,11.0149979 133.369414,11.0149979 C133.935077,11.0149979 134.500739,11.0858819 135.561357,11.2749057 Z M138.861057,7.63619606 L142.231464,7.63619606 C142.137187,8.46317553 142.066479,9.47917889 142.066479,10.5424382 L142.066479,11.2749057 L143.056389,11.2749057 C144.164145,11.2749057 144.682669,11.2512778 145.436886,11.1331378 L145.436886,13.9212401 C144.6591,13.8031001 144.211284,13.7794721 143.127097,13.7794721 L142.066479,13.7794721 L142.066479,21.1041475 C142.066479,22.2619187 142.490726,22.6872225 143.622052,22.6872225 C144.234853,22.6872225 144.611961,22.5690825 145.342609,22.1674068 L145.766856,24.6719732 C144.753377,25.0500209 144.046299,25.1681609 142.820696,25.1681609 C140.110229,25.1681609 139.026042,24.1994135 139.026042,21.7184751 L139.026042,13.7794721 L138.130409,13.7794721 C137.258345,13.7794721 136.810529,13.8031001 136.032743,13.9212401 L136.032743,11.1331378 C136.716252,11.2512778 137.164068,11.2749057 138.153978,11.2749057 L139.026042,11.2749057 L139.026042,10.5424382 C139.026042,9.52643486 138.955334,8.48680352 138.861057,7.63619606 Z" id="Smart" fill="#00B6A4"></path>
                </g>
            </g>
        </g>
    </g>
</svg>