<svg xmlns="http://www.w3.org/2000/svg" width="20" height="20" viewBox="0 0 20 20">
    <defs>
        <path id="a" d="M0 0h30v30H0z"/>
    </defs>
    <path fill="#FFF" fill-rule="evenodd" d="M3.673 0a.862.862 0 0 0-.61.238c-.026.025-1.111 1.024-1.746 1.689C-.168 3.47-.394 5.365.624 7.717c.775 1.793 2.303 3.815 4.672 6.183 3.595 3.594 6.38 5.268 8.766 5.268 1.199 0 2.28-.456 3.216-1.355.783-.72 1.662-1.659 1.671-1.669a.868.868 0 0 0 .012-1.232l-2.872-2.871a.867.867 0 0 0-.61-.24.862.862 0 0 0-.61.24l-1.277 1.276a1.851 1.851 0 0 1-1.304.524 1.85 1.85 0 0 1-1.304-.524L5.88 8.213a1.832 1.832 0 0 1-.54-1.303c0-.494.192-.956.54-1.304l1.276-1.275a.857.857 0 0 0 .252-.61c0-.232-.09-.448-.252-.61L4.284.238A.863.863 0 0 0 3.673 0z"/>
</svg>
